<svg version="1.1" xmlns="http://www.w3.org/2000/svg" xmlns:xlink="http://www.w3.org/1999/xlink" width="190" height="204"><defs><clipPath id="FVWSdUOwpnKl"><path fill="none" stroke="none" d=" M 0 0 L 190 0 L 190 204 L 0 204 L 0 0 Z"/></clipPath></defs><g transform="scale(1,1)" clip-path="url(#FVWSdUOwpnKl)"><g transform="translate(-447,-534)"><rect fill="rgb(255,255,255)" stroke="none" x="0" y="0" width="1204" height="932" fill-opacity="1"/><path fill="none" stroke="rgb(97,97,97)" paint-order="fill stroke markers" d=" M 567.3071278368895 603.170521883657 C 567.3071278368895 631.291227573464 544.5107917318209 654.0875636785328 516.3900860420139 654.0875636785328 C 488.2693803522069 654.0875636785328 465.47304424713815 631.291227573464 465.47304424713815 603.170521883657 C 465.47304424713815 575.0498161938499 488.2693803522069 552.2534800887811 516.3900860420139 552.2534800887811 C 544.5107917318209 552.2534800887811 567.3071278368895 575.0498161938499 567.3071278368895 603.170521883657 Z" stroke-opacity="0.8" stroke-linecap="round" stroke-linejoin="round" stroke-miterlimit="10" stroke-width="2.5"/><path fill="none" stroke="rgb(97,97,97)" paint-order="fill stroke markers" d=" M 618.2239742804836 603.0294779876914 C 618.2239742804836 631.1501836774984 595.4276381754148 653.9465197825672 567.3069324856078 653.9465197825672 C 539.1862267958008 653.9465197825672 516.3898906907322 631.1501836774984 516.3898906907322 603.0294779876914 C 516.3898906907322 574.9087722978843 539.1862267958008 552.1124361928155 567.3069324856078 552.1124361928155 C 595.4276381754148 552.1124361928155 618.2239742804836 574.9087722978843 618.2239742804836 603.0294779876914 Z" stroke-opacity="0.8" stroke-linecap="round" stroke-linejoin="round" stroke-miterlimit="10" stroke-width="2.5"/><path fill="none" stroke="rgb(97,97,97)" paint-order="fill stroke markers" d=" M 630.1615602205986 647.1952824364181 C 630.1615602205986 695.9017734358551 590.6771478602027 735.3861857962511 541.9706568607659 735.3861857962511 C 493.26416586132893 735.3861857962511 453.7797535009331 695.9017734358551 453.7797535009331 647.1952824364181 C 453.7797535009331 598.488791436981 493.26416586132893 559.0043790765851 541.9706568607659 559.0043790765851 C 590.6771478602027 559.0043790765851 630.1615602205986 598.488791436981 630.1615602205986 647.1952824364181 Z" stroke-opacity="0.8" stroke-linecap="round" stroke-linejoin="round" stroke-miterlimit="10" stroke-width="2.5"/><path fill="none" stroke="rgb(97,97,97)" paint-order="fill stroke markers" d=" M 516.3900860420139 603.170521883657 L 618.2237789292019 602.8884340917258" stroke-opacity="0.8" stroke-linecap="round" stroke-linejoin="round" stroke-miterlimit="10" stroke-width="2.5"/><path fill="rgb(21,101,192)" stroke="none" paint-order="stroke fill markers" d=" M 521.3900860420139 603.170521883657 C 521.3900860420139 605.931945632811 519.1515097911679 608.170521883657 516.3900860420139 608.170521883657 C 513.6286622928599 608.170521883657 511.3900860420139 605.931945632811 511.3900860420139 603.170521883657 C 511.3900860420139 600.409098134503 513.6286622928599 598.170521883657 516.3900860420139 598.170521883657 C 519.1515097911679 598.170521883657 521.3900860420139 600.409098134503 521.3900860420139 603.170521883657 Z" fill-opacity="1"/><path fill="none" stroke="rgb(0,0,0)" paint-order="fill stroke markers" d=" M 521.3900860420139 603.170521883657 C 521.3900860420139 605.931945632811 519.1515097911679 608.170521883657 516.3900860420139 608.170521883657 C 513.6286622928599 608.170521883657 511.3900860420139 605.931945632811 511.3900860420139 603.170521883657 C 511.3900860420139 600.409098134503 513.6286622928599 598.170521883657 516.3900860420139 598.170521883657 C 519.1515097911679 598.170521883657 521.3900860420139 600.409098134503 521.3900860420139 603.170521883657 Z" stroke-opacity="1" stroke-linecap="round" stroke-linejoin="round" stroke-miterlimit="10"/><text fill="rgb(21,101,192)" stroke="none" font-family="geogebra-sans-serif, sans-serif" font-size="16px" font-style="normal" font-weight="normal" text-decoration="normal" x="520" y="593" text-anchor="start" dominant-baseline="alphabetic" fill-opacity="1">A</text><text fill="none" stroke="rgb(255,255,255)" font-family="geogebra-sans-serif, sans-serif" font-size="16px" font-style="normal" font-weight="normal" text-decoration="normal" x="520" y="593" text-anchor="start" dominant-baseline="alphabetic" stroke-opacity="1" stroke-linejoin="bevel" stroke-miterlimit="10" stroke-width="3">A</text><text fill="rgb(21,101,192)" stroke="none" font-family="geogebra-sans-serif, sans-serif" font-size="16px" font-style="normal" font-weight="normal" text-decoration="normal" x="520" y="593" text-anchor="start" dominant-baseline="alphabetic" fill-opacity="1">A</text><path fill="rgb(21,101,192)" stroke="none" paint-order="stroke fill markers" d=" M 572.3069324856078 603.0294779876914 C 572.3069324856078 605.7909017368454 570.0683562347618 608.0294779876914 567.3069324856078 608.0294779876914 C 564.5455087364538 608.0294779876914 562.3069324856078 605.7909017368454 562.3069324856078 603.0294779876914 C 562.3069324856078 600.2680542385374 564.5455087364538 598.0294779876914 567.3069324856078 598.0294779876914 C 570.0683562347618 598.0294779876914 572.3069324856078 600.2680542385374 572.3069324856078 603.0294779876914 Z" fill-opacity="1"/><path fill="none" stroke="rgb(0,0,0)" paint-order="fill stroke markers" d=" M 572.3069324856078 603.0294779876914 C 572.3069324856078 605.7909017368454 570.0683562347618 608.0294779876914 567.3069324856078 608.0294779876914 C 564.5455087364538 608.0294779876914 562.3069324856078 605.7909017368454 562.3069324856078 603.0294779876914 C 562.3069324856078 600.2680542385374 564.5455087364538 598.0294779876914 567.3069324856078 598.0294779876914 C 570.0683562347618 598.0294779876914 572.3069324856078 600.2680542385374 572.3069324856078 603.0294779876914 Z" stroke-opacity="1" stroke-linecap="round" stroke-linejoin="round" stroke-miterlimit="10"/><text fill="rgb(21,101,192)" stroke="none" font-family="geogebra-sans-serif, sans-serif" font-size="16px" font-style="normal" font-weight="normal" text-decoration="normal" x="571" y="593" text-anchor="start" dominant-baseline="alphabetic" fill-opacity="1">B</text><text fill="none" stroke="rgb(255,255,255)" font-family="geogebra-sans-serif, sans-serif" font-size="16px" font-style="normal" font-weight="normal" text-decoration="normal" x="571" y="593" text-anchor="start" dominant-baseline="alphabetic" stroke-opacity="1" stroke-linejoin="bevel" stroke-miterlimit="10" stroke-width="3">B</text><text fill="rgb(21,101,192)" stroke="none" font-family="geogebra-sans-serif, sans-serif" font-size="16px" font-style="normal" font-weight="normal" text-decoration="normal" x="571" y="593" text-anchor="start" dominant-baseline="alphabetic" fill-opacity="1">B</text><path fill="rgb(97,97,97)" stroke="none" paint-order="stroke fill markers" d=" M 545.9706568607659 647.1952824364181 C 545.9706568607659 649.4044214357413 544.179795860089 651.1952824364181 541.9706568607659 651.1952824364181 C 539.7615178614427 651.1952824364181 537.9706568607659 649.4044214357413 537.9706568607659 647.1952824364181 C 537.9706568607659 644.9861434370949 539.7615178614427 643.1952824364181 541.9706568607659 643.1952824364181 C 544.179795860089 643.1952824364181 545.9706568607659 644.9861434370949 545.9706568607659 647.1952824364181 Z" fill-opacity="1"/><path fill="none" stroke="rgb(0,0,0)" paint-order="fill stroke markers" d=" M 545.9706568607659 647.1952824364181 C 545.9706568607659 649.4044214357413 544.179795860089 651.1952824364181 541.9706568607659 651.1952824364181 C 539.7615178614427 651.1952824364181 537.9706568607659 649.4044214357413 537.9706568607659 647.1952824364181 C 537.9706568607659 644.9861434370949 539.7615178614427 643.1952824364181 541.9706568607659 643.1952824364181 C 544.179795860089 643.1952824364181 545.9706568607659 644.9861434370949 545.9706568607659 647.1952824364181 Z" stroke-opacity="1" stroke-linecap="round" stroke-linejoin="round" stroke-miterlimit="10"/><text fill="rgb(97,97,97)" stroke="none" font-family="geogebra-sans-serif, sans-serif" font-size="16px" font-style="normal" font-weight="normal" text-decoration="normal" x="546" y="639" text-anchor="start" dominant-baseline="alphabetic" fill-opacity="1">C</text><text fill="none" stroke="rgb(255,255,255)" font-family="geogebra-sans-serif, sans-serif" font-size="16px" font-style="normal" font-weight="normal" text-decoration="normal" x="546" y="639" text-anchor="start" dominant-baseline="alphabetic" stroke-opacity="1" stroke-linejoin="bevel" stroke-miterlimit="10" stroke-width="3">C</text><text fill="rgb(97,97,97)" stroke="none" font-family="geogebra-sans-serif, sans-serif" font-size="16px" font-style="normal" font-weight="normal" text-decoration="normal" x="546" y="639" text-anchor="start" dominant-baseline="alphabetic" fill-opacity="1">C</text><path fill="rgb(97,97,97)" stroke="none" paint-order="stroke fill markers" d=" M 545.7263616668558 559.0047174349304 C 545.7263616668558 561.2138564342536 543.935500666179 563.0047174349304 541.7263616668558 563.0047174349304 C 539.5172226675327 563.0047174349304 537.7263616668558 561.2138564342536 537.7263616668558 559.0047174349304 C 537.7263616668558 556.7955784356072 539.5172226675327 555.0047174349304 541.7263616668558 555.0047174349304 C 543.935500666179 555.0047174349304 545.7263616668558 556.7955784356072 545.7263616668558 559.0047174349304 Z" fill-opacity="1"/><path fill="none" stroke="rgb(0,0,0)" paint-order="fill stroke markers" d=" M 545.7263616668558 559.0047174349304 C 545.7263616668558 561.2138564342536 543.935500666179 563.0047174349304 541.7263616668558 563.0047174349304 C 539.5172226675327 563.0047174349304 537.7263616668558 561.2138564342536 537.7263616668558 559.0047174349304 C 537.7263616668558 556.7955784356072 539.5172226675327 555.0047174349304 541.7263616668558 555.0047174349304 C 543.935500666179 555.0047174349304 545.7263616668558 556.7955784356072 545.7263616668558 559.0047174349304 Z" stroke-opacity="1" stroke-linecap="round" stroke-linejoin="round" stroke-miterlimit="10"/><text fill="rgb(97,97,97)" stroke="none" font-family="geogebra-sans-serif, sans-serif" font-size="16px" font-style="normal" font-weight="normal" text-decoration="normal" x="546" y="551" text-anchor="start" dominant-baseline="alphabetic" fill-opacity="1">D</text><text fill="none" stroke="rgb(255,255,255)" font-family="geogebra-sans-serif, sans-serif" font-size="16px" font-style="normal" font-weight="normal" text-decoration="normal" x="546" y="551" text-anchor="start" dominant-baseline="alphabetic" stroke-opacity="1" stroke-linejoin="bevel" stroke-miterlimit="10" stroke-width="3">D</text><text fill="rgb(97,97,97)" stroke="none" font-family="geogebra-sans-serif, sans-serif" font-size="16px" font-style="normal" font-weight="normal" text-decoration="normal" x="546" y="551" text-anchor="start" dominant-baseline="alphabetic" fill-opacity="1">D</text><path fill="rgb(97,97,97)" stroke="none" paint-order="stroke fill markers" d=" M 622.2237789292019 602.8884340917258 C 622.2237789292019 605.097573091049 620.4329179285251 606.8884340917258 618.2237789292019 606.8884340917258 C 616.0146399298787 606.8884340917258 614.2237789292019 605.097573091049 614.2237789292019 602.8884340917258 C 614.2237789292019 600.6792950924026 616.0146399298787 598.8884340917258 618.2237789292019 598.8884340917258 C 620.4329179285251 598.8884340917258 622.2237789292019 600.6792950924026 622.2237789292019 602.8884340917258 Z" fill-opacity="1"/><path fill="none" stroke="rgb(0,0,0)" paint-order="fill stroke markers" d=" M 622.2237789292019 602.8884340917258 C 622.2237789292019 605.097573091049 620.4329179285251 606.8884340917258 618.2237789292019 606.8884340917258 C 616.0146399298787 606.8884340917258 614.2237789292019 605.097573091049 614.2237789292019 602.8884340917258 C 614.2237789292019 600.6792950924026 616.0146399298787 598.8884340917258 618.2237789292019 598.8884340917258 C 620.4329179285251 598.8884340917258 622.2237789292019 600.6792950924026 622.2237789292019 602.8884340917258 Z" stroke-opacity="1" stroke-linecap="round" stroke-linejoin="round" stroke-miterlimit="10"/><text fill="rgb(97,97,97)" stroke="none" font-family="geogebra-sans-serif, sans-serif" font-size="16px" font-style="normal" font-weight="normal" text-decoration="normal" x="622" y="595" text-anchor="start" dominant-baseline="alphabetic" fill-opacity="1">E</text><text fill="none" stroke="rgb(255,255,255)" font-family="geogebra-sans-serif, sans-serif" font-size="16px" font-style="normal" font-weight="normal" text-decoration="normal" x="622" y="595" text-anchor="start" dominant-baseline="alphabetic" stroke-opacity="1" stroke-linejoin="bevel" stroke-miterlimit="10" stroke-width="3">E</text><text fill="rgb(97,97,97)" stroke="none" font-family="geogebra-sans-serif, sans-serif" font-size="16px" font-style="normal" font-weight="normal" text-decoration="normal" x="622" y="595" text-anchor="start" dominant-baseline="alphabetic" fill-opacity="1">E</text></g></g></svg>