<svg version="1.1" xmlns="http://www.w3.org/2000/svg" xmlns:xlink="http://www.w3.org/1999/xlink" width="136" height="125"><defs><clipPath id="LSpKkNwCmxdG"><path fill="none" stroke="none" d=" M 0 0 L 136 0 L 136 125 L 0 125 L 0 0 Z"/></clipPath></defs><g transform="scale(1,1)" clip-path="url(#LSpKkNwCmxdG)"><g transform="translate(-482,-495)"><rect fill="rgb(255,255,255)" stroke="none" x="0" y="0" width="1204" height="932" fill-opacity="1"/><path fill="none" stroke="rgb(97,97,97)" paint-order="fill stroke markers" d=" M 609.7386454983744 544.1655767750854 C 609.7386454983744 567.8883714518731 590.5075206905922 587.1194962596553 566.7847260138045 587.1194962596553 C 543.0619313370169 587.1194962596553 523.8308065292347 567.8883714518731 523.8308065292347 544.1655767750854 C 523.8308065292347 520.4427820982976 543.0619313370169 501.21165729051546 566.7847260138045 501.21165729051546 C 590.5075206905922 501.21165729051546 609.7386454983744 520.4427820982976 609.7386454983744 544.1655767750854 Z" stroke-opacity="0.8" stroke-linecap="round" stroke-linejoin="round" stroke-miterlimit="10" stroke-width="2.5"/><path fill="none" stroke="rgb(97,97,97)" paint-order="fill stroke markers" d=" M 576.4015072265329 571.2520016209565 C 576.4015072265329 594.9747962977442 557.1703824187507 614.2059211055264 533.447587741963 614.2059211055264 C 509.7247930651754 614.2059211055264 490.4936682573932 594.9747962977442 490.4936682573932 571.2520016209565 C 490.4936682573932 547.5292069441688 509.7247930651754 528.2980821363866 533.447587741963 528.2980821363866 C 557.1703824187507 528.2980821363866 576.4015072265329 547.5292069441688 576.4015072265329 571.2520016209565 Z" stroke-opacity="0.8" stroke-linecap="round" stroke-linejoin="round" stroke-miterlimit="10" stroke-width="2.5"/><path fill="none" stroke="rgb(97,97,97)" paint-order="fill stroke markers" d=" M -5 575.028502326309 L 1209 566.5138911354148" stroke-opacity="0.8" stroke-linecap="round" stroke-linejoin="round" stroke-miterlimit="10" stroke-width="2.5"/><path fill="none" stroke="rgb(97,97,97)" paint-order="fill stroke markers" d=" M 343.64047172698145 937 L 878.7307670543787 -5" stroke-opacity="0.8" stroke-linecap="round" stroke-linejoin="round" stroke-miterlimit="10" stroke-width="2.5"/><path fill="rgb(21,101,192)" stroke="none" paint-order="stroke fill markers" d=" M 571.7847260138045 544.1655767750854 C 571.7847260138045 546.9270005242394 569.5461497629585 549.1655767750854 566.7847260138045 549.1655767750854 C 564.0233022646505 549.1655767750854 561.7847260138045 546.9270005242394 561.7847260138045 544.1655767750854 C 561.7847260138045 541.4041530259314 564.0233022646505 539.1655767750854 566.7847260138045 539.1655767750854 C 569.5461497629585 539.1655767750854 571.7847260138045 541.4041530259314 571.7847260138045 544.1655767750854 Z" fill-opacity="1"/><path fill="none" stroke="rgb(0,0,0)" paint-order="fill stroke markers" d=" M 571.7847260138045 544.1655767750854 C 571.7847260138045 546.9270005242394 569.5461497629585 549.1655767750854 566.7847260138045 549.1655767750854 C 564.0233022646505 549.1655767750854 561.7847260138045 546.9270005242394 561.7847260138045 544.1655767750854 C 561.7847260138045 541.4041530259314 564.0233022646505 539.1655767750854 566.7847260138045 539.1655767750854 C 569.5461497629585 539.1655767750854 571.7847260138045 541.4041530259314 571.7847260138045 544.1655767750854 Z" stroke-opacity="1" stroke-linecap="round" stroke-linejoin="round" stroke-miterlimit="10"/><text fill="rgb(21,101,192)" stroke="none" font-family="geogebra-sans-serif, sans-serif" font-size="16px" font-style="normal" font-weight="normal" text-decoration="normal" x="571" y="534" text-anchor="start" dominant-baseline="alphabetic" fill-opacity="1">A</text><text fill="none" stroke="rgb(255,255,255)" font-family="geogebra-sans-serif, sans-serif" font-size="16px" font-style="normal" font-weight="normal" text-decoration="normal" x="571" y="534" text-anchor="start" dominant-baseline="alphabetic" stroke-opacity="1" stroke-linejoin="bevel" stroke-miterlimit="10" stroke-width="3">A</text><text fill="rgb(21,101,192)" stroke="none" font-family="geogebra-sans-serif, sans-serif" font-size="16px" font-style="normal" font-weight="normal" text-decoration="normal" x="571" y="534" text-anchor="start" dominant-baseline="alphabetic" fill-opacity="1">A</text><path fill="rgb(21,101,192)" stroke="none" paint-order="stroke fill markers" d=" M 538.447587741963 571.2520016209565 C 538.447587741963 574.0134253701106 536.209011491117 576.2520016209565 533.447587741963 576.2520016209565 C 530.686163992809 576.2520016209565 528.447587741963 574.0134253701106 528.447587741963 571.2520016209565 C 528.447587741963 568.4905778718025 530.686163992809 566.2520016209565 533.447587741963 566.2520016209565 C 536.209011491117 566.2520016209565 538.447587741963 568.4905778718025 538.447587741963 571.2520016209565 Z" fill-opacity="1"/><path fill="none" stroke="rgb(0,0,0)" paint-order="fill stroke markers" d=" M 538.447587741963 571.2520016209565 C 538.447587741963 574.0134253701106 536.209011491117 576.2520016209565 533.447587741963 576.2520016209565 C 530.686163992809 576.2520016209565 528.447587741963 574.0134253701106 528.447587741963 571.2520016209565 C 528.447587741963 568.4905778718025 530.686163992809 566.2520016209565 533.447587741963 566.2520016209565 C 536.209011491117 566.2520016209565 538.447587741963 568.4905778718025 538.447587741963 571.2520016209565 Z" stroke-opacity="1" stroke-linecap="round" stroke-linejoin="round" stroke-miterlimit="10"/><text fill="rgb(21,101,192)" stroke="none" font-family="geogebra-sans-serif, sans-serif" font-size="16px" font-style="normal" font-weight="normal" text-decoration="normal" x="537" y="561" text-anchor="start" dominant-baseline="alphabetic" fill-opacity="1">B</text><text fill="none" stroke="rgb(255,255,255)" font-family="geogebra-sans-serif, sans-serif" font-size="16px" font-style="normal" font-weight="normal" text-decoration="normal" x="537" y="561" text-anchor="start" dominant-baseline="alphabetic" stroke-opacity="1" stroke-linejoin="bevel" stroke-miterlimit="10" stroke-width="3">B</text><text fill="rgb(21,101,192)" stroke="none" font-family="geogebra-sans-serif, sans-serif" font-size="16px" font-style="normal" font-weight="normal" text-decoration="normal" x="537" y="561" text-anchor="start" dominant-baseline="alphabetic" fill-opacity="1">B</text><path fill="rgb(21,101,192)" stroke="none" paint-order="stroke fill markers" d=" M 605.4985171293539 570.7817276557822 C 605.4985171293539 573.5431514049362 603.2599408785079 575.7817276557822 600.4985171293539 575.7817276557822 C 597.7370933801999 575.7817276557822 595.4985171293539 573.5431514049362 595.4985171293539 570.7817276557822 C 595.4985171293539 568.0203039066282 597.7370933801999 565.7817276557822 600.4985171293539 565.7817276557822 C 603.2599408785079 565.7817276557822 605.4985171293539 568.0203039066282 605.4985171293539 570.7817276557822 Z" fill-opacity="1"/><path fill="none" stroke="rgb(0,0,0)" paint-order="fill stroke markers" d=" M 605.4985171293539 570.7817276557822 C 605.4985171293539 573.5431514049362 603.2599408785079 575.7817276557822 600.4985171293539 575.7817276557822 C 597.7370933801999 575.7817276557822 595.4985171293539 573.5431514049362 595.4985171293539 570.7817276557822 C 595.4985171293539 568.0203039066282 597.7370933801999 565.7817276557822 600.4985171293539 565.7817276557822 C 603.2599408785079 565.7817276557822 605.4985171293539 568.0203039066282 605.4985171293539 570.7817276557822 Z" stroke-opacity="1" stroke-linecap="round" stroke-linejoin="round" stroke-miterlimit="10"/><text fill="rgb(21,101,192)" stroke="none" font-family="geogebra-sans-serif, sans-serif" font-size="16px" font-style="normal" font-weight="normal" text-decoration="normal" x="604" y="561" text-anchor="start" dominant-baseline="alphabetic" fill-opacity="1">C</text><text fill="none" stroke="rgb(255,255,255)" font-family="geogebra-sans-serif, sans-serif" font-size="16px" font-style="normal" font-weight="normal" text-decoration="normal" x="604" y="561" text-anchor="start" dominant-baseline="alphabetic" stroke-opacity="1" stroke-linejoin="bevel" stroke-miterlimit="10" stroke-width="3">C</text><text fill="rgb(21,101,192)" stroke="none" font-family="geogebra-sans-serif, sans-serif" font-size="16px" font-style="normal" font-weight="normal" text-decoration="normal" x="604" y="561" text-anchor="start" dominant-baseline="alphabetic" fill-opacity="1">C</text><path fill="rgb(97,97,97)" stroke="none" paint-order="stroke fill markers" d=" M 530.6586248636613 528.8379805651317 C 530.6586248636613 531.0471195644549 528.8677638629845 532.8379805651317 526.6586248636613 532.8379805651317 C 524.4494858643382 532.8379805651317 522.6586248636613 531.0471195644549 522.6586248636613 528.8379805651317 C 522.6586248636613 526.6288415658086 524.4494858643382 524.8379805651317 526.6586248636613 524.8379805651317 C 528.8677638629845 524.8379805651317 530.6586248636613 526.6288415658086 530.6586248636613 528.8379805651317 Z" fill-opacity="1"/><path fill="none" stroke="rgb(0,0,0)" paint-order="fill stroke markers" d=" M 530.6586248636613 528.8379805651317 C 530.6586248636613 531.0471195644549 528.8677638629845 532.8379805651317 526.6586248636613 532.8379805651317 C 524.4494858643382 532.8379805651317 522.6586248636613 531.0471195644549 522.6586248636613 528.8379805651317 C 522.6586248636613 526.6288415658086 524.4494858643382 524.8379805651317 526.6586248636613 524.8379805651317 C 528.8677638629845 524.8379805651317 530.6586248636613 526.6288415658086 530.6586248636613 528.8379805651317 Z" stroke-opacity="1" stroke-linecap="round" stroke-linejoin="round" stroke-miterlimit="10"/><text fill="rgb(97,97,97)" stroke="none" font-family="geogebra-sans-serif, sans-serif" font-size="16px" font-style="normal" font-weight="normal" text-decoration="normal" x="531" y="521" text-anchor="start" dominant-baseline="alphabetic" fill-opacity="1">D</text><text fill="none" stroke="rgb(255,255,255)" font-family="geogebra-sans-serif, sans-serif" font-size="16px" font-style="normal" font-weight="normal" text-decoration="normal" x="531" y="521" text-anchor="start" dominant-baseline="alphabetic" stroke-opacity="1" stroke-linejoin="bevel" stroke-miterlimit="10" stroke-width="3">D</text><text fill="rgb(97,97,97)" stroke="none" font-family="geogebra-sans-serif, sans-serif" font-size="16px" font-style="normal" font-weight="normal" text-decoration="normal" x="531" y="521" text-anchor="start" dominant-baseline="alphabetic" fill-opacity="1">D</text><path fill="rgb(97,97,97)" stroke="none" paint-order="stroke fill markers" d=" M 555.4704541597033 571.1255949487222 C 555.4704541597033 573.3347339480454 553.6795931590265 575.1255949487222 551.4704541597033 575.1255949487222 C 549.2613151603801 575.1255949487222 547.4704541597033 573.3347339480454 547.4704541597033 571.1255949487222 C 547.4704541597033 568.916455949399 549.2613151603801 567.1255949487222 551.4704541597033 567.1255949487222 C 553.6795931590265 567.1255949487222 555.4704541597033 568.916455949399 555.4704541597033 571.1255949487222 Z" fill-opacity="1"/><path fill="none" stroke="rgb(0,0,0)" paint-order="fill stroke markers" d=" M 555.4704541597033 571.1255949487222 C 555.4704541597033 573.3347339480454 553.6795931590265 575.1255949487222 551.4704541597033 575.1255949487222 C 549.2613151603801 575.1255949487222 547.4704541597033 573.3347339480454 547.4704541597033 571.1255949487222 C 547.4704541597033 568.916455949399 549.2613151603801 567.1255949487222 551.4704541597033 567.1255949487222 C 553.6795931590265 567.1255949487222 555.4704541597033 568.916455949399 555.4704541597033 571.1255949487222 Z" stroke-opacity="1" stroke-linecap="round" stroke-linejoin="round" stroke-miterlimit="10"/><text fill="rgb(97,97,97)" stroke="none" font-family="geogebra-sans-serif, sans-serif" font-size="16px" font-style="normal" font-weight="normal" text-decoration="normal" x="555" y="563" text-anchor="start" dominant-baseline="alphabetic" fill-opacity="1">E</text><text fill="none" stroke="rgb(255,255,255)" font-family="geogebra-sans-serif, sans-serif" font-size="16px" font-style="normal" font-weight="normal" text-decoration="normal" x="555" y="563" text-anchor="start" dominant-baseline="alphabetic" stroke-opacity="1" stroke-linejoin="bevel" stroke-miterlimit="10" stroke-width="3">E</text><text fill="rgb(97,97,97)" stroke="none" font-family="geogebra-sans-serif, sans-serif" font-size="16px" font-style="normal" font-weight="normal" text-decoration="normal" x="555" y="563" text-anchor="start" dominant-baseline="alphabetic" fill-opacity="1">E</text></g></g></svg>