<svg version="1.1" xmlns="http://www.w3.org/2000/svg" xmlns:xlink="http://www.w3.org/1999/xlink" width="374" height="260"><defs><clipPath id="POAHkUnPSKBn"><path fill="none" stroke="none" d=" M 0 0 L 374 0 L 374 260 L 0 260 L 0 0 Z"/></clipPath></defs><g transform="scale(1,1)" clip-path="url(#POAHkUnPSKBn)"><g transform="translate(-171,-321)"><rect fill="rgb(255,255,255)" stroke="none" x="0" y="0" width="1204" height="932" fill-opacity="1"/><path fill="none" stroke="rgb(97,97,97)" paint-order="fill stroke markers" d=" M 539.6680783111001 409.9865805162114 C 539.6680783111001 456.9590153648654 501.5893962077738 495.0376974681918 454.61696135911995 495.0376974681918 C 407.64452651046605 495.0376974681918 369.5658444071398 456.9590153648654 369.5658444071398 409.9865805162114 C 369.5658444071398 363.01414566755733 407.64452651046605 324.93546356423093 454.61696135911995 324.93546356423093 C 501.5893962077738 324.93546356423093 539.6680783111001 363.01414566755733 539.6680783111001 409.9865805162114 Z" stroke-opacity="0.8" stroke-linecap="round" stroke-linejoin="round" stroke-miterlimit="10" stroke-width="2.5"/><path fill="none" stroke="rgb(97,97,97)" paint-order="fill stroke markers" d=" M 469.7086353995432 458.35360277605326 C 469.7086353995432 505.3260376247073 431.62995329621697 543.4047197280337 384.6575184475631 543.4047197280337 C 337.6850835989092 543.4047197280337 299.606401495583 505.3260376247073 299.606401495583 458.35360277605326 C 299.606401495583 411.3811679273992 337.6850835989092 373.3024858240728 384.6575184475631 373.3024858240728 C 431.62995329621697 373.3024858240728 469.7086353995432 411.3811679273992 469.7086353995432 458.35360277605326 Z" stroke-opacity="0.8" stroke-linecap="round" stroke-linejoin="round" stroke-miterlimit="10" stroke-width="2.5"/><path fill="none" stroke="rgb(97,97,97)" paint-order="fill stroke markers" d=" M 415.3721744537547 458.9946997831052 C 415.3721744537547 522.9290362767701 363.5431542491716 574.7580564813535 299.60881775550695 574.7580564813535 C 235.67448126184226 574.7580564813535 183.84546105725914 522.9290362767701 183.84546105725914 458.9946997831052 C 183.84546105725914 395.06036328944026 235.67448126184226 343.2313430848569 299.60881775550695 343.2313430848569 C 363.5431542491716 343.2313430848569 415.3721744537547 395.06036328944026 415.3721744537547 458.9946997831052 Z" stroke-opacity="0.8" stroke-linecap="round" stroke-linejoin="round" stroke-miterlimit="10" stroke-width="2.5"/><path fill="none" stroke="rgb(97,97,97)" paint-order="fill stroke markers" d=" M -5 461.290840697612 L 1209 452.1397101073983" stroke-opacity="0.8" stroke-linecap="round" stroke-linejoin="round" stroke-miterlimit="10" stroke-width="2.5"/><path fill="none" stroke="rgb(97,97,97)" paint-order="fill stroke markers" d=" M 155.61950486013734 937 L 690.0567575166717 -5" stroke-opacity="0.8" stroke-linecap="round" stroke-linejoin="round" stroke-miterlimit="10" stroke-width="2.5"/><path fill="rgb(21,101,192)" stroke="none" paint-order="stroke fill markers" d=" M 459.61696135911995 409.9865805162114 C 459.61696135911995 412.74800426536535 457.3783851082739 414.9865805162114 454.61696135911995 414.9865805162114 C 451.855537609966 414.9865805162114 449.61696135911995 412.74800426536535 449.61696135911995 409.9865805162114 C 449.61696135911995 407.22515676705746 451.855537609966 404.9865805162114 454.61696135911995 404.9865805162114 C 457.3783851082739 404.9865805162114 459.61696135911995 407.22515676705746 459.61696135911995 409.9865805162114 Z" fill-opacity="1"/><path fill="none" stroke="rgb(0,0,0)" paint-order="fill stroke markers" d=" M 459.61696135911995 409.9865805162114 C 459.61696135911995 412.74800426536535 457.3783851082739 414.9865805162114 454.61696135911995 414.9865805162114 C 451.855537609966 414.9865805162114 449.61696135911995 412.74800426536535 449.61696135911995 409.9865805162114 C 449.61696135911995 407.22515676705746 451.855537609966 404.9865805162114 454.61696135911995 404.9865805162114 C 457.3783851082739 404.9865805162114 459.61696135911995 407.22515676705746 459.61696135911995 409.9865805162114 Z" stroke-opacity="1" stroke-linecap="round" stroke-linejoin="round" stroke-miterlimit="10"/><text fill="rgb(21,101,192)" stroke="none" font-family="geogebra-sans-serif, sans-serif" font-size="16px" font-style="normal" font-weight="normal" text-decoration="normal" x="459" y="400" text-anchor="start" dominant-baseline="alphabetic" fill-opacity="1">A</text><text fill="none" stroke="rgb(255,255,255)" font-family="geogebra-sans-serif, sans-serif" font-size="16px" font-style="normal" font-weight="normal" text-decoration="normal" x="459" y="400" text-anchor="start" dominant-baseline="alphabetic" stroke-opacity="1" stroke-linejoin="bevel" stroke-miterlimit="10" stroke-width="3">A</text><text fill="rgb(21,101,192)" stroke="none" font-family="geogebra-sans-serif, sans-serif" font-size="16px" font-style="normal" font-weight="normal" text-decoration="normal" x="459" y="400" text-anchor="start" dominant-baseline="alphabetic" fill-opacity="1">A</text><path fill="rgb(21,101,192)" stroke="none" paint-order="stroke fill markers" d=" M 389.6575184475631 458.35360277605326 C 389.6575184475631 461.1150265252072 387.41894219671707 463.35360277605326 384.6575184475631 463.35360277605326 C 381.8960946984092 463.35360277605326 379.6575184475631 461.1150265252072 379.6575184475631 458.35360277605326 C 379.6575184475631 455.5921790268993 381.8960946984092 453.35360277605326 384.6575184475631 453.35360277605326 C 387.41894219671707 453.35360277605326 389.6575184475631 455.5921790268993 389.6575184475631 458.35360277605326 Z" fill-opacity="1"/><path fill="none" stroke="rgb(0,0,0)" paint-order="fill stroke markers" d=" M 389.6575184475631 458.35360277605326 C 389.6575184475631 461.1150265252072 387.41894219671707 463.35360277605326 384.6575184475631 463.35360277605326 C 381.8960946984092 463.35360277605326 379.6575184475631 461.1150265252072 379.6575184475631 458.35360277605326 C 379.6575184475631 455.5921790268993 381.8960946984092 453.35360277605326 384.6575184475631 453.35360277605326 C 387.41894219671707 453.35360277605326 389.6575184475631 455.5921790268993 389.6575184475631 458.35360277605326 Z" stroke-opacity="1" stroke-linecap="round" stroke-linejoin="round" stroke-miterlimit="10"/><text fill="rgb(21,101,192)" stroke="none" font-family="geogebra-sans-serif, sans-serif" font-size="16px" font-style="normal" font-weight="normal" text-decoration="normal" x="389" y="448" text-anchor="start" dominant-baseline="alphabetic" fill-opacity="1">B</text><text fill="none" stroke="rgb(255,255,255)" font-family="geogebra-sans-serif, sans-serif" font-size="16px" font-style="normal" font-weight="normal" text-decoration="normal" x="389" y="448" text-anchor="start" dominant-baseline="alphabetic" stroke-opacity="1" stroke-linejoin="bevel" stroke-miterlimit="10" stroke-width="3">B</text><text fill="rgb(21,101,192)" stroke="none" font-family="geogebra-sans-serif, sans-serif" font-size="16px" font-style="normal" font-weight="normal" text-decoration="normal" x="389" y="448" text-anchor="start" dominant-baseline="alphabetic" fill-opacity="1">B</text><path fill="rgb(21,101,192)" stroke="none" paint-order="stroke fill markers" d=" M 304.60881775550695 458.9946997831052 C 304.60881775550695 461.75612353225915 302.3702415046609 463.9946997831052 299.60881775550695 463.9946997831052 C 296.847394006353 463.9946997831052 294.60881775550695 461.75612353225915 294.60881775550695 458.9946997831052 C 294.60881775550695 456.23327603395126 296.847394006353 453.9946997831052 299.60881775550695 453.9946997831052 C 302.3702415046609 453.9946997831052 304.60881775550695 456.23327603395126 304.60881775550695 458.9946997831052 Z" fill-opacity="1"/><path fill="none" stroke="rgb(0,0,0)" paint-order="fill stroke markers" d=" M 304.60881775550695 458.9946997831052 C 304.60881775550695 461.75612353225915 302.3702415046609 463.9946997831052 299.60881775550695 463.9946997831052 C 296.847394006353 463.9946997831052 294.60881775550695 461.75612353225915 294.60881775550695 458.9946997831052 C 294.60881775550695 456.23327603395126 296.847394006353 453.9946997831052 299.60881775550695 453.9946997831052 C 302.3702415046609 453.9946997831052 304.60881775550695 456.23327603395126 304.60881775550695 458.9946997831052 Z" stroke-opacity="1" stroke-linecap="round" stroke-linejoin="round" stroke-miterlimit="10"/><text fill="rgb(21,101,192)" stroke="none" font-family="geogebra-sans-serif, sans-serif" font-size="16px" font-style="normal" font-weight="normal" text-decoration="normal" x="304" y="449" text-anchor="start" dominant-baseline="alphabetic" fill-opacity="1">C</text><text fill="none" stroke="rgb(255,255,255)" font-family="geogebra-sans-serif, sans-serif" font-size="16px" font-style="normal" font-weight="normal" text-decoration="normal" x="304" y="449" text-anchor="start" dominant-baseline="alphabetic" stroke-opacity="1" stroke-linejoin="bevel" stroke-miterlimit="10" stroke-width="3">C</text><text fill="rgb(21,101,192)" stroke="none" font-family="geogebra-sans-serif, sans-serif" font-size="16px" font-style="normal" font-weight="normal" text-decoration="normal" x="304" y="449" text-anchor="start" dominant-baseline="alphabetic" fill-opacity="1">C</text><path fill="rgb(97,97,97)" stroke="none" paint-order="stroke fill markers" d=" M 381.7501699209112 373.58343685011675 C 381.7501699209112 375.7925758494399 379.9593089202344 377.58343685011675 377.7501699209112 377.58343685011675 C 375.54103092158806 377.58343685011675 373.7501699209112 375.7925758494399 373.7501699209112 373.58343685011675 C 373.7501699209112 371.3742978507936 375.54103092158806 369.58343685011675 377.7501699209112 369.58343685011675 C 379.9593089202344 369.58343685011675 381.7501699209112 371.3742978507936 381.7501699209112 373.58343685011675 Z" fill-opacity="1"/><path fill="none" stroke="rgb(0,0,0)" paint-order="fill stroke markers" d=" M 381.7501699209112 373.58343685011675 C 381.7501699209112 375.7925758494399 379.9593089202344 377.58343685011675 377.7501699209112 377.58343685011675 C 375.54103092158806 377.58343685011675 373.7501699209112 375.7925758494399 373.7501699209112 373.58343685011675 C 373.7501699209112 371.3742978507936 375.54103092158806 369.58343685011675 377.7501699209112 369.58343685011675 C 379.9593089202344 369.58343685011675 381.7501699209112 371.3742978507936 381.7501699209112 373.58343685011675 Z" stroke-opacity="1" stroke-linecap="round" stroke-linejoin="round" stroke-miterlimit="10"/><text fill="rgb(97,97,97)" stroke="none" font-family="geogebra-sans-serif, sans-serif" font-size="16px" font-style="normal" font-weight="normal" text-decoration="normal" x="382" y="366" text-anchor="start" dominant-baseline="alphabetic" fill-opacity="1">D</text><text fill="none" stroke="rgb(255,255,255)" font-family="geogebra-sans-serif, sans-serif" font-size="16px" font-style="normal" font-weight="normal" text-decoration="normal" x="382" y="366" text-anchor="start" dominant-baseline="alphabetic" stroke-opacity="1" stroke-linejoin="bevel" stroke-miterlimit="10" stroke-width="3">D</text><text fill="rgb(97,97,97)" stroke="none" font-family="geogebra-sans-serif, sans-serif" font-size="16px" font-style="normal" font-weight="normal" text-decoration="normal" x="382" y="366" text-anchor="start" dominant-baseline="alphabetic" fill-opacity="1">D</text><path fill="rgb(97,97,97)" stroke="none" paint-order="stroke fill markers" d=" M 416.647817307489 483.9614643779174 C 416.647817307489 486.1706033772406 414.85695630681215 487.9614643779174 412.647817307489 487.9614643779174 C 410.43867830816583 487.9614643779174 408.647817307489 486.1706033772406 408.647817307489 483.9614643779174 C 408.647817307489 481.75232537859426 410.43867830816583 479.9614643779174 412.647817307489 479.9614643779174 C 414.85695630681215 479.9614643779174 416.647817307489 481.75232537859426 416.647817307489 483.9614643779174 Z" fill-opacity="1"/><path fill="none" stroke="rgb(0,0,0)" paint-order="fill stroke markers" d=" M 416.647817307489 483.9614643779174 C 416.647817307489 486.1706033772406 414.85695630681215 487.9614643779174 412.647817307489 487.9614643779174 C 410.43867830816583 487.9614643779174 408.647817307489 486.1706033772406 408.647817307489 483.9614643779174 C 408.647817307489 481.75232537859426 410.43867830816583 479.9614643779174 412.647817307489 479.9614643779174 C 414.85695630681215 479.9614643779174 416.647817307489 481.75232537859426 416.647817307489 483.9614643779174 Z" stroke-opacity="1" stroke-linecap="round" stroke-linejoin="round" stroke-miterlimit="10"/><text fill="rgb(97,97,97)" stroke="none" font-family="geogebra-sans-serif, sans-serif" font-size="16px" font-style="normal" font-weight="normal" text-decoration="normal" x="417" y="476" text-anchor="start" dominant-baseline="alphabetic" fill-opacity="1">E</text><text fill="none" stroke="rgb(255,255,255)" font-family="geogebra-sans-serif, sans-serif" font-size="16px" font-style="normal" font-weight="normal" text-decoration="normal" x="417" y="476" text-anchor="start" dominant-baseline="alphabetic" stroke-opacity="1" stroke-linejoin="bevel" stroke-miterlimit="10" stroke-width="3">E</text><text fill="rgb(97,97,97)" stroke="none" font-family="geogebra-sans-serif, sans-serif" font-size="16px" font-style="normal" font-weight="normal" text-decoration="normal" x="417" y="476" text-anchor="start" dominant-baseline="alphabetic" fill-opacity="1">E</text><path fill="rgb(97,97,97)" stroke="none" paint-order="stroke fill markers" d=" M 431.35888033182806 458.03171995975765 C 431.35888033182806 460.2408589590808 429.5680193311512 462.03171995975765 427.35888033182806 462.03171995975765 C 425.1497413325049 462.03171995975765 423.35888033182806 460.2408589590808 423.35888033182806 458.03171995975765 C 423.35888033182806 455.8225809604345 425.1497413325049 454.03171995975765 427.35888033182806 454.03171995975765 C 429.5680193311512 454.03171995975765 431.35888033182806 455.8225809604345 431.35888033182806 458.03171995975765 Z" fill-opacity="1"/><path fill="none" stroke="rgb(0,0,0)" paint-order="fill stroke markers" d=" M 431.35888033182806 458.03171995975765 C 431.35888033182806 460.2408589590808 429.5680193311512 462.03171995975765 427.35888033182806 462.03171995975765 C 425.1497413325049 462.03171995975765 423.35888033182806 460.2408589590808 423.35888033182806 458.03171995975765 C 423.35888033182806 455.8225809604345 425.1497413325049 454.03171995975765 427.35888033182806 454.03171995975765 C 429.5680193311512 454.03171995975765 431.35888033182806 455.8225809604345 431.35888033182806 458.03171995975765 Z" stroke-opacity="1" stroke-linecap="round" stroke-linejoin="round" stroke-miterlimit="10"/><text fill="rgb(97,97,97)" stroke="none" font-family="geogebra-sans-serif, sans-serif" font-size="16px" font-style="normal" font-weight="normal" text-decoration="normal" x="431" y="450" text-anchor="start" dominant-baseline="alphabetic" fill-opacity="1">F</text><text fill="none" stroke="rgb(255,255,255)" font-family="geogebra-sans-serif, sans-serif" font-size="16px" font-style="normal" font-weight="normal" text-decoration="normal" x="431" y="450" text-anchor="start" dominant-baseline="alphabetic" stroke-opacity="1" stroke-linejoin="bevel" stroke-miterlimit="10" stroke-width="3">F</text><text fill="rgb(97,97,97)" stroke="none" font-family="geogebra-sans-serif, sans-serif" font-size="16px" font-style="normal" font-weight="normal" text-decoration="normal" x="431" y="450" text-anchor="start" dominant-baseline="alphabetic" fill-opacity="1">F</text><path fill="rgb(97,97,97)" stroke="none" paint-order="stroke fill markers" d=" M 529.2975940162156 457.2934580497384 C 529.2975940162156 459.50259704906154 527.5067330155388 461.2934580497384 525.2975940162156 461.2934580497384 C 523.0884550168925 461.2934580497384 521.2975940162156 459.50259704906154 521.2975940162156 457.2934580497384 C 521.2975940162156 455.0843190504152 523.0884550168925 453.2934580497384 525.2975940162156 453.2934580497384 C 527.5067330155388 453.2934580497384 529.2975940162156 455.0843190504152 529.2975940162156 457.2934580497384 Z" fill-opacity="1"/><path fill="none" stroke="rgb(0,0,0)" paint-order="fill stroke markers" d=" M 529.2975940162156 457.2934580497384 C 529.2975940162156 459.50259704906154 527.5067330155388 461.2934580497384 525.2975940162156 461.2934580497384 C 523.0884550168925 461.2934580497384 521.2975940162156 459.50259704906154 521.2975940162156 457.2934580497384 C 521.2975940162156 455.0843190504152 523.0884550168925 453.2934580497384 525.2975940162156 453.2934580497384 C 527.5067330155388 453.2934580497384 529.2975940162156 455.0843190504152 529.2975940162156 457.2934580497384 Z" stroke-opacity="1" stroke-linecap="round" stroke-linejoin="round" stroke-miterlimit="10"/><text fill="rgb(97,97,97)" stroke="none" font-family="geogebra-sans-serif, sans-serif" font-size="16px" font-style="normal" font-weight="normal" text-decoration="normal" x="529" y="449" text-anchor="start" dominant-baseline="alphabetic" fill-opacity="1">G</text><text fill="none" stroke="rgb(255,255,255)" font-family="geogebra-sans-serif, sans-serif" font-size="16px" font-style="normal" font-weight="normal" text-decoration="normal" x="529" y="449" text-anchor="start" dominant-baseline="alphabetic" stroke-opacity="1" stroke-linejoin="bevel" stroke-miterlimit="10" stroke-width="3">G</text><text fill="rgb(97,97,97)" stroke="none" font-family="geogebra-sans-serif, sans-serif" font-size="16px" font-style="normal" font-weight="normal" text-decoration="normal" x="529" y="449" text-anchor="start" dominant-baseline="alphabetic" fill-opacity="1">G</text></g></g></svg>