<svg version="1.1" xmlns="http://www.w3.org/2000/svg" xmlns:xlink="http://www.w3.org/1999/xlink" width="168" height="178"><defs><clipPath id="KUTIaXfbNFwf"><path fill="none" stroke="none" d=" M 0 0 L 168 0 L 168 178 L 0 178 L 0 0 Z"/></clipPath></defs><g transform="scale(1,1)" clip-path="url(#KUTIaXfbNFwf)"><g transform="translate(-496,-427)"><rect fill="rgb(255,255,255)" stroke="none" x="0" y="0" width="1204" height="932" fill-opacity="1"/><path fill="none" stroke="rgb(97,97,97)" paint-order="fill stroke markers" d=" M 626.567993183064 511.13606007605097 C 626.567993183064 534.2173936825801 607.8568753166876 552.9285115489564 584.7755417101583 552.9285115489564 C 561.6942081036291 552.9285115489564 542.9830902372528 534.2173936825801 542.9830902372528 511.13606007605097 C 542.9830902372528 488.05472646952177 561.6942081036291 469.34360860314547 584.7755417101583 469.34360860314547 C 607.8568753166876 469.34360860314547 626.567993183064 488.05472646952177 626.567993183064 511.13606007605097 Z" stroke-opacity="0.8" stroke-linecap="round" stroke-linejoin="round" stroke-miterlimit="10" stroke-width="2.5"/><path fill="none" stroke="rgb(97,97,97)" paint-order="fill stroke markers" d=" M 586.229861632045 500.2070096558242 C 586.229861632045 523.2883432623534 567.5187437656687 541.9994611287296 544.4374101591394 541.9994611287296 C 521.3560765526101 541.9994611287296 502.6449586862338 523.2883432623534 502.6449586862338 500.2070096558242 C 502.6449586862338 477.125676049295 521.3560765526101 458.4145581829187 544.4374101591394 458.4145581829187 C 567.5187437656687 458.4145581829187 586.229861632045 477.125676049295 586.229861632045 500.2070096558242 Z" stroke-opacity="0.8" stroke-linecap="round" stroke-linejoin="round" stroke-miterlimit="10" stroke-width="2.5"/><path fill="none" stroke="rgb(97,97,97)" paint-order="fill stroke markers" d=" M -5 351.34465714965376 L 1209 680.2609133072885" stroke-opacity="0.8" stroke-linecap="round" stroke-linejoin="round" stroke-miterlimit="10" stroke-width="2.5"/><path fill="none" stroke="rgb(97,97,97)" paint-order="fill stroke markers" d=" M 512.6928903907104 937 L 767.9145652675583 -5" stroke-opacity="0.8" stroke-linecap="round" stroke-linejoin="round" stroke-miterlimit="10" stroke-width="2.5"/><path fill="none" stroke="rgb(97,97,97)" paint-order="fill stroke markers" d=" M -5 624.1724056865457 L 1209 302.50261577999373" stroke-opacity="0.8" stroke-linecap="round" stroke-linejoin="round" stroke-miterlimit="10" stroke-width="2.5"/><path fill="none" stroke="rgb(97,97,97)" paint-order="fill stroke markers" d=" M 949.3347778568227 937 L 12.566421364456705 -5" stroke-opacity="0.8" stroke-linecap="round" stroke-linejoin="round" stroke-miterlimit="10" stroke-width="2.5"/><path fill="rgb(21,101,192)" stroke="none" paint-order="stroke fill markers" d=" M 589.7755417101583 511.13606007605097 C 589.7755417101583 513.897483825205 587.5369654593123 516.136060076051 584.7755417101583 516.136060076051 C 582.0141179610043 516.136060076051 579.7755417101583 513.897483825205 579.7755417101583 511.13606007605097 C 579.7755417101583 508.374636326897 582.0141179610043 506.13606007605097 584.7755417101583 506.13606007605097 C 587.5369654593123 506.13606007605097 589.7755417101583 508.374636326897 589.7755417101583 511.13606007605097 Z" fill-opacity="1"/><path fill="none" stroke="rgb(0,0,0)" paint-order="fill stroke markers" d=" M 589.7755417101583 511.13606007605097 C 589.7755417101583 513.897483825205 587.5369654593123 516.136060076051 584.7755417101583 516.136060076051 C 582.0141179610043 516.136060076051 579.7755417101583 513.897483825205 579.7755417101583 511.13606007605097 C 579.7755417101583 508.374636326897 582.0141179610043 506.13606007605097 584.7755417101583 506.13606007605097 C 587.5369654593123 506.13606007605097 589.7755417101583 508.374636326897 589.7755417101583 511.13606007605097 Z" stroke-opacity="1" stroke-linecap="round" stroke-linejoin="round" stroke-miterlimit="10"/><text fill="rgb(21,101,192)" stroke="none" font-family="geogebra-sans-serif, sans-serif" font-size="16px" font-style="normal" font-weight="normal" text-decoration="normal" x="589" y="501" text-anchor="start" dominant-baseline="alphabetic" fill-opacity="1">A</text><text fill="none" stroke="rgb(255,255,255)" font-family="geogebra-sans-serif, sans-serif" font-size="16px" font-style="normal" font-weight="normal" text-decoration="normal" x="589" y="501" text-anchor="start" dominant-baseline="alphabetic" stroke-opacity="1" stroke-linejoin="bevel" stroke-miterlimit="10" stroke-width="3">A</text><text fill="rgb(21,101,192)" stroke="none" font-family="geogebra-sans-serif, sans-serif" font-size="16px" font-style="normal" font-weight="normal" text-decoration="normal" x="589" y="501" text-anchor="start" dominant-baseline="alphabetic" fill-opacity="1">A</text><path fill="rgb(21,101,192)" stroke="none" paint-order="stroke fill markers" d=" M 630.1136732611773 522.0651104962777 C 630.1136732611773 524.8265342454317 627.8750970103313 527.0651104962777 625.1136732611773 527.0651104962777 C 622.3522495120233 527.0651104962777 620.1136732611773 524.8265342454317 620.1136732611773 522.0651104962777 C 620.1136732611773 519.3036867471237 622.3522495120233 517.0651104962777 625.1136732611773 517.0651104962777 C 627.8750970103313 517.0651104962777 630.1136732611773 519.3036867471237 630.1136732611773 522.0651104962777 Z" fill-opacity="1"/><path fill="none" stroke="rgb(0,0,0)" paint-order="fill stroke markers" d=" M 630.1136732611773 522.0651104962777 C 630.1136732611773 524.8265342454317 627.8750970103313 527.0651104962777 625.1136732611773 527.0651104962777 C 622.3522495120233 527.0651104962777 620.1136732611773 524.8265342454317 620.1136732611773 522.0651104962777 C 620.1136732611773 519.3036867471237 622.3522495120233 517.0651104962777 625.1136732611773 517.0651104962777 C 627.8750970103313 517.0651104962777 630.1136732611773 519.3036867471237 630.1136732611773 522.0651104962777 Z" stroke-opacity="1" stroke-linecap="round" stroke-linejoin="round" stroke-miterlimit="10"/><text fill="rgb(21,101,192)" stroke="none" font-family="geogebra-sans-serif, sans-serif" font-size="16px" font-style="normal" font-weight="normal" text-decoration="normal" x="629" y="512" text-anchor="start" dominant-baseline="alphabetic" fill-opacity="1">B</text><text fill="none" stroke="rgb(255,255,255)" font-family="geogebra-sans-serif, sans-serif" font-size="16px" font-style="normal" font-weight="normal" text-decoration="normal" x="629" y="512" text-anchor="start" dominant-baseline="alphabetic" stroke-opacity="1" stroke-linejoin="bevel" stroke-miterlimit="10" stroke-width="3">B</text><text fill="rgb(21,101,192)" stroke="none" font-family="geogebra-sans-serif, sans-serif" font-size="16px" font-style="normal" font-weight="normal" text-decoration="normal" x="629" y="512" text-anchor="start" dominant-baseline="alphabetic" fill-opacity="1">B</text><path fill="rgb(97,97,97)" stroke="none" paint-order="stroke fill markers" d=" M 548.4374101591394 500.2070096558242 C 548.4374101591394 502.41614865514737 546.6465491584626 504.2070096558242 544.4374101591394 504.2070096558242 C 542.2282711598162 504.2070096558242 540.4374101591394 502.41614865514737 540.4374101591394 500.2070096558242 C 540.4374101591394 497.99787065650105 542.2282711598162 496.2070096558242 544.4374101591394 496.2070096558242 C 546.6465491584626 496.2070096558242 548.4374101591394 497.99787065650105 548.4374101591394 500.2070096558242 Z" fill-opacity="1"/><path fill="none" stroke="rgb(0,0,0)" paint-order="fill stroke markers" d=" M 548.4374101591394 500.2070096558242 C 548.4374101591394 502.41614865514737 546.6465491584626 504.2070096558242 544.4374101591394 504.2070096558242 C 542.2282711598162 504.2070096558242 540.4374101591394 502.41614865514737 540.4374101591394 500.2070096558242 C 540.4374101591394 497.99787065650105 542.2282711598162 496.2070096558242 544.4374101591394 496.2070096558242 C 546.6465491584626 496.2070096558242 548.4374101591394 497.99787065650105 548.4374101591394 500.2070096558242 Z" stroke-opacity="1" stroke-linecap="round" stroke-linejoin="round" stroke-miterlimit="10"/><text fill="rgb(97,97,97)" stroke="none" font-family="geogebra-sans-serif, sans-serif" font-size="16px" font-style="normal" font-weight="normal" text-decoration="normal" x="548" y="492" text-anchor="start" dominant-baseline="alphabetic" fill-opacity="1">C</text><text fill="none" stroke="rgb(255,255,255)" font-family="geogebra-sans-serif, sans-serif" font-size="16px" font-style="normal" font-weight="normal" text-decoration="normal" x="548" y="492" text-anchor="start" dominant-baseline="alphabetic" stroke-opacity="1" stroke-linejoin="bevel" stroke-miterlimit="10" stroke-width="3">C</text><text fill="rgb(97,97,97)" stroke="none" font-family="geogebra-sans-serif, sans-serif" font-size="16px" font-style="normal" font-weight="normal" text-decoration="normal" x="548" y="492" text-anchor="start" dominant-baseline="alphabetic" fill-opacity="1">C</text><path fill="rgb(97,97,97)" stroke="none" paint-order="stroke fill markers" d=" M 508.0992786081204 489.2779592355974 C 508.0992786081204 491.48709823492055 506.3084176074436 493.2779592355974 504.0992786081204 493.2779592355974 C 501.89013960879726 493.2779592355974 500.0992786081204 491.48709823492055 500.0992786081204 489.2779592355974 C 500.0992786081204 487.06882023627423 501.89013960879726 485.2779592355974 504.0992786081204 485.2779592355974 C 506.3084176074436 485.2779592355974 508.0992786081204 487.06882023627423 508.0992786081204 489.2779592355974 Z" fill-opacity="1"/><path fill="none" stroke="rgb(0,0,0)" paint-order="fill stroke markers" d=" M 508.0992786081204 489.2779592355974 C 508.0992786081204 491.48709823492055 506.3084176074436 493.2779592355974 504.0992786081204 493.2779592355974 C 501.89013960879726 493.2779592355974 500.0992786081204 491.48709823492055 500.0992786081204 489.2779592355974 C 500.0992786081204 487.06882023627423 501.89013960879726 485.2779592355974 504.0992786081204 485.2779592355974 C 506.3084176074436 485.2779592355974 508.0992786081204 487.06882023627423 508.0992786081204 489.2779592355974 Z" stroke-opacity="1" stroke-linecap="round" stroke-linejoin="round" stroke-miterlimit="10"/><text fill="rgb(97,97,97)" stroke="none" font-family="geogebra-sans-serif, sans-serif" font-size="16px" font-style="normal" font-weight="normal" text-decoration="normal" x="508" y="481" text-anchor="start" dominant-baseline="alphabetic" fill-opacity="1">D</text><text fill="none" stroke="rgb(255,255,255)" font-family="geogebra-sans-serif, sans-serif" font-size="16px" font-style="normal" font-weight="normal" text-decoration="normal" x="508" y="481" text-anchor="start" dominant-baseline="alphabetic" stroke-opacity="1" stroke-linejoin="bevel" stroke-miterlimit="10" stroke-width="3">D</text><text fill="rgb(97,97,97)" stroke="none" font-family="geogebra-sans-serif, sans-serif" font-size="16px" font-style="normal" font-weight="normal" text-decoration="normal" x="508" y="481" text-anchor="start" dominant-baseline="alphabetic" fill-opacity="1">D</text><path fill="rgb(97,97,97)" stroke="none" paint-order="stroke fill markers" d=" M 578.0713112378063 470.7376882015567 C 578.0713112378063 472.94682720087985 576.2804502371295 474.7376882015567 574.0713112378063 474.7376882015567 C 571.8621722384831 474.7376882015567 570.0713112378063 472.94682720087985 570.0713112378063 470.7376882015567 C 570.0713112378063 468.52854920223353 571.8621722384831 466.7376882015567 574.0713112378063 466.7376882015567 C 576.2804502371295 466.7376882015567 578.0713112378063 468.52854920223353 578.0713112378063 470.7376882015567 Z" fill-opacity="1"/><path fill="none" stroke="rgb(0,0,0)" paint-order="fill stroke markers" d=" M 578.0713112378063 470.7376882015567 C 578.0713112378063 472.94682720087985 576.2804502371295 474.7376882015567 574.0713112378063 474.7376882015567 C 571.8621722384831 474.7376882015567 570.0713112378063 472.94682720087985 570.0713112378063 470.7376882015567 C 570.0713112378063 468.52854920223353 571.8621722384831 466.7376882015567 574.0713112378063 466.7376882015567 C 576.2804502371295 466.7376882015567 578.0713112378063 468.52854920223353 578.0713112378063 470.7376882015567 Z" stroke-opacity="1" stroke-linecap="round" stroke-linejoin="round" stroke-miterlimit="10"/><text fill="rgb(97,97,97)" stroke="none" font-family="geogebra-sans-serif, sans-serif" font-size="16px" font-style="normal" font-weight="normal" text-decoration="normal" x="578" y="463" text-anchor="start" dominant-baseline="alphabetic" fill-opacity="1">E</text><text fill="none" stroke="rgb(255,255,255)" font-family="geogebra-sans-serif, sans-serif" font-size="16px" font-style="normal" font-weight="normal" text-decoration="normal" x="578" y="463" text-anchor="start" dominant-baseline="alphabetic" stroke-opacity="1" stroke-linejoin="bevel" stroke-miterlimit="10" stroke-width="3">E</text><text fill="rgb(97,97,97)" stroke="none" font-family="geogebra-sans-serif, sans-serif" font-size="16px" font-style="normal" font-weight="normal" text-decoration="normal" x="578" y="463" text-anchor="start" dominant-baseline="alphabetic" fill-opacity="1">E</text><path fill="rgb(97,97,97)" stroke="none" paint-order="stroke fill markers" d=" M 559.1416406314914 540.6053815303185 C 559.1416406314914 542.8145205296416 557.3507796308146 544.6053815303185 555.1416406314914 544.6053815303185 C 552.9325016321683 544.6053815303185 551.1416406314914 542.8145205296416 551.1416406314914 540.6053815303185 C 551.1416406314914 538.3962425309953 552.9325016321683 536.6053815303185 555.1416406314914 536.6053815303185 C 557.3507796308146 536.6053815303185 559.1416406314914 538.3962425309953 559.1416406314914 540.6053815303185 Z" fill-opacity="1"/><path fill="none" stroke="rgb(0,0,0)" paint-order="fill stroke markers" d=" M 559.1416406314914 540.6053815303185 C 559.1416406314914 542.8145205296416 557.3507796308146 544.6053815303185 555.1416406314914 544.6053815303185 C 552.9325016321683 544.6053815303185 551.1416406314914 542.8145205296416 551.1416406314914 540.6053815303185 C 551.1416406314914 538.3962425309953 552.9325016321683 536.6053815303185 555.1416406314914 536.6053815303185 C 557.3507796308146 536.6053815303185 559.1416406314914 538.3962425309953 559.1416406314914 540.6053815303185 Z" stroke-opacity="1" stroke-linecap="round" stroke-linejoin="round" stroke-miterlimit="10"/><text fill="rgb(97,97,97)" stroke="none" font-family="geogebra-sans-serif, sans-serif" font-size="16px" font-style="normal" font-weight="normal" text-decoration="normal" x="559" y="533" text-anchor="start" dominant-baseline="alphabetic" fill-opacity="1">F</text><text fill="none" stroke="rgb(255,255,255)" font-family="geogebra-sans-serif, sans-serif" font-size="16px" font-style="normal" font-weight="normal" text-decoration="normal" x="559" y="533" text-anchor="start" dominant-baseline="alphabetic" stroke-opacity="1" stroke-linejoin="bevel" stroke-miterlimit="10" stroke-width="3">F</text><text fill="rgb(97,97,97)" stroke="none" font-family="geogebra-sans-serif, sans-serif" font-size="16px" font-style="normal" font-weight="normal" text-decoration="normal" x="559" y="533" text-anchor="start" dominant-baseline="alphabetic" fill-opacity="1">F</text><path fill="rgb(97,97,97)" stroke="none" paint-order="stroke fill markers" d=" M 610.1840026548624 591.9328038250395 C 610.1840026548624 594.1419428243627 608.3931416541856 595.9328038250395 606.1840026548624 595.9328038250395 C 603.9748636555393 595.9328038250395 602.1840026548624 594.1419428243627 602.1840026548624 591.9328038250395 C 602.1840026548624 589.7236648257164 603.9748636555393 587.9328038250395 606.1840026548624 587.9328038250395 C 608.3931416541856 587.9328038250395 610.1840026548624 589.7236648257164 610.1840026548624 591.9328038250395 Z" fill-opacity="1"/><path fill="none" stroke="rgb(0,0,0)" paint-order="fill stroke markers" d=" M 610.1840026548624 591.9328038250395 C 610.1840026548624 594.1419428243627 608.3931416541856 595.9328038250395 606.1840026548624 595.9328038250395 C 603.9748636555393 595.9328038250395 602.1840026548624 594.1419428243627 602.1840026548624 591.9328038250395 C 602.1840026548624 589.7236648257164 603.9748636555393 587.9328038250395 606.1840026548624 587.9328038250395 C 608.3931416541856 587.9328038250395 610.1840026548624 589.7236648257164 610.1840026548624 591.9328038250395 Z" stroke-opacity="1" stroke-linecap="round" stroke-linejoin="round" stroke-miterlimit="10"/><text fill="rgb(97,97,97)" stroke="none" font-family="geogebra-sans-serif, sans-serif" font-size="16px" font-style="normal" font-weight="normal" text-decoration="normal" x="610" y="584" text-anchor="start" dominant-baseline="alphabetic" fill-opacity="1">G</text><text fill="none" stroke="rgb(255,255,255)" font-family="geogebra-sans-serif, sans-serif" font-size="16px" font-style="normal" font-weight="normal" text-decoration="normal" x="610" y="584" text-anchor="start" dominant-baseline="alphabetic" stroke-opacity="1" stroke-linejoin="bevel" stroke-miterlimit="10" stroke-width="3">G</text><text fill="rgb(97,97,97)" stroke="none" font-family="geogebra-sans-serif, sans-serif" font-size="16px" font-style="normal" font-weight="normal" text-decoration="normal" x="610" y="584" text-anchor="start" dominant-baseline="alphabetic" fill-opacity="1">G</text><path fill="rgb(97,97,97)" stroke="none" paint-order="stroke fill markers" d=" M 648.043343867492 452.197417167516 C 648.043343867492 454.40655616683915 646.2524828668152 456.197417167516 644.043343867492 456.197417167516 C 641.8342048681689 456.197417167516 640.043343867492 454.40655616683915 640.043343867492 452.197417167516 C 640.043343867492 449.98827816819283 641.8342048681689 448.197417167516 644.043343867492 448.197417167516 C 646.2524828668152 448.197417167516 648.043343867492 449.98827816819283 648.043343867492 452.197417167516 Z" fill-opacity="1"/><path fill="none" stroke="rgb(0,0,0)" paint-order="fill stroke markers" d=" M 648.043343867492 452.197417167516 C 648.043343867492 454.40655616683915 646.2524828668152 456.197417167516 644.043343867492 456.197417167516 C 641.8342048681689 456.197417167516 640.043343867492 454.40655616683915 640.043343867492 452.197417167516 C 640.043343867492 449.98827816819283 641.8342048681689 448.197417167516 644.043343867492 448.197417167516 C 646.2524828668152 448.197417167516 648.043343867492 449.98827816819283 648.043343867492 452.197417167516 Z" stroke-opacity="1" stroke-linecap="round" stroke-linejoin="round" stroke-miterlimit="10"/><text fill="rgb(97,97,97)" stroke="none" font-family="geogebra-sans-serif, sans-serif" font-size="16px" font-style="normal" font-weight="normal" text-decoration="normal" x="648" y="444" text-anchor="start" dominant-baseline="alphabetic" fill-opacity="1">H</text><text fill="none" stroke="rgb(255,255,255)" font-family="geogebra-sans-serif, sans-serif" font-size="16px" font-style="normal" font-weight="normal" text-decoration="normal" x="648" y="444" text-anchor="start" dominant-baseline="alphabetic" stroke-opacity="1" stroke-linejoin="bevel" stroke-miterlimit="10" stroke-width="3">H</text><text fill="rgb(97,97,97)" stroke="none" font-family="geogebra-sans-serif, sans-serif" font-size="16px" font-style="normal" font-weight="normal" text-decoration="normal" x="648" y="444" text-anchor="start" dominant-baseline="alphabetic" fill-opacity="1">H</text></g></g></svg>