<svg version="1.1" xmlns="http://www.w3.org/2000/svg" xmlns:xlink="http://www.w3.org/1999/xlink" width="179" height="198"><defs><clipPath id="kmfJRgifXdhS"><path fill="none" stroke="none" d=" M 0 0 L 179 0 L 179 198 L 0 198 L 0 0 Z"/></clipPath></defs><g transform="scale(1,1)" clip-path="url(#kmfJRgifXdhS)"><g transform="translate(-533,-334)"><rect fill="rgb(255,255,255)" stroke="none" x="0" y="0" width="1204" height="932" fill-opacity="1"/><path fill="none" stroke="rgb(97,97,97)" paint-order="fill stroke markers" d=" M 665.9399500858402 446.58277439122173 C 665.9399500858402 468.70718301128085 648.0045731933761 486.64255990374494 625.880164573317 486.64255990374494 C 603.7557559532579 486.64255990374494 585.8203790607938 468.70718301128085 585.8203790607938 446.58277439122173 C 585.8203790607938 424.45836577116256 603.7557559532579 406.52298887869847 625.880164573317 406.52298887869847 C 648.0045731933761 406.52298887869847 665.9399500858402 424.45836577116256 665.9399500858402 446.58277439122173 Z" stroke-opacity="0.8" stroke-linecap="round" stroke-linejoin="round" stroke-miterlimit="10" stroke-width="2.5"/><path fill="none" stroke="rgb(97,97,97)" paint-order="fill stroke markers" d=" M 704.6057100726022 457.05871921522123 C 704.6057100726022 479.18312783528035 686.6703331801381 497.11850472774444 664.5459245600789 497.11850472774444 C 642.4215159400198 497.11850472774444 624.4861390475558 479.18312783528035 624.4861390475558 457.05871921522123 C 624.4861390475558 434.93431059516206 642.4215159400198 416.99893370269797 664.5459245600789 416.99893370269797 C 686.6703331801381 416.99893370269797 704.6057100726022 434.93431059516206 704.6057100726022 457.05871921522123 Z" stroke-opacity="0.8" stroke-linecap="round" stroke-linejoin="round" stroke-miterlimit="10" stroke-width="2.5"/><path fill="none" stroke="rgb(97,97,97)" paint-order="fill stroke markers" d=" M 694.3452644254488 418.3352163980537 C 694.3452644254488 440.45962501811283 676.4098875329847 458.3950019105769 654.2854789129256 458.3950019105769 C 632.1610702928665 458.3950019105769 614.2256934004024 440.45962501811283 614.2256934004024 418.3352163980537 C 614.2256934004024 396.21080777799455 632.1610702928665 378.27543088553045 654.2854789129256 378.27543088553045 C 676.4098875329847 378.27543088553045 694.3452644254488 396.21080777799455 694.3452644254488 418.3352163980537 Z" stroke-opacity="0.8" stroke-linecap="round" stroke-linejoin="round" stroke-miterlimit="10" stroke-width="2.5"/><path fill="none" stroke="rgb(97,97,97)" paint-order="fill stroke markers" d=" M 685.0053027741654 407.8592715740542 C 685.0053027741654 446.1798713914115 653.9403187435208 477.2448554220561 615.6197189261636 477.2448554220561 C 577.2991191088065 477.2448554220561 546.2341350781619 446.1798713914115 546.2341350781619 407.8592715740542 C 546.2341350781619 369.538671756697 577.2991191088065 338.4736877260524 615.6197189261636 338.4736877260524 C 653.9403187435208 338.4736877260524 685.0053027741654 369.538671756697 685.0053027741654 407.8592715740542 Z" stroke-opacity="0.8" stroke-linecap="round" stroke-linejoin="round" stroke-miterlimit="10" stroke-width="2.5"/><path fill="none" stroke="rgb(97,97,97)" paint-order="fill stroke markers" d=" M -5 572.3029409305979 L 1209 250.6331510240434" stroke-opacity="0.8" stroke-linecap="round" stroke-linejoin="round" stroke-miterlimit="10" stroke-width="2.5"/><path fill="none" stroke="rgb(97,97,97)" paint-order="fill stroke markers" d=" M 1057.0777376571662 937 L 120.30938116480226 -5" stroke-opacity="0.8" stroke-linecap="round" stroke-linejoin="round" stroke-miterlimit="10" stroke-width="2.5"/><path fill="none" stroke="rgb(97,97,97)" paint-order="fill stroke markers" d=" M 534.5125726233166 937 L 789.734247500163 -5" stroke-opacity="0.8" stroke-linecap="round" stroke-linejoin="round" stroke-miterlimit="10" stroke-width="2.5"/><path fill="rgb(21,101,192)" stroke="none" paint-order="stroke fill markers" d=" M 630.880164573317 446.5827743912217 C 630.880164573317 449.3441981403756 628.641588322471 451.5827743912217 625.880164573317 451.5827743912217 C 623.118740824163 451.5827743912217 620.880164573317 449.3441981403756 620.880164573317 446.5827743912217 C 620.880164573317 443.8213506420677 623.118740824163 441.5827743912217 625.880164573317 441.5827743912217 C 628.641588322471 441.5827743912217 630.880164573317 443.8213506420677 630.880164573317 446.5827743912217 Z" fill-opacity="1"/><path fill="none" stroke="rgb(0,0,0)" paint-order="fill stroke markers" d=" M 630.880164573317 446.5827743912217 C 630.880164573317 449.3441981403756 628.641588322471 451.5827743912217 625.880164573317 451.5827743912217 C 623.118740824163 451.5827743912217 620.880164573317 449.3441981403756 620.880164573317 446.5827743912217 C 620.880164573317 443.8213506420677 623.118740824163 441.5827743912217 625.880164573317 441.5827743912217 C 628.641588322471 441.5827743912217 630.880164573317 443.8213506420677 630.880164573317 446.5827743912217 Z" stroke-opacity="1" stroke-linecap="round" stroke-linejoin="round" stroke-miterlimit="10"/><text fill="rgb(21,101,192)" stroke="none" font-family="geogebra-sans-serif, sans-serif" font-size="16px" font-style="normal" font-weight="normal" text-decoration="normal" x="630" y="437" text-anchor="start" dominant-baseline="alphabetic" fill-opacity="1">A</text><text fill="none" stroke="rgb(255,255,255)" font-family="geogebra-sans-serif, sans-serif" font-size="16px" font-style="normal" font-weight="normal" text-decoration="normal" x="630" y="437" text-anchor="start" dominant-baseline="alphabetic" stroke-opacity="1" stroke-linejoin="bevel" stroke-miterlimit="10" stroke-width="3">A</text><text fill="rgb(21,101,192)" stroke="none" font-family="geogebra-sans-serif, sans-serif" font-size="16px" font-style="normal" font-weight="normal" text-decoration="normal" x="630" y="437" text-anchor="start" dominant-baseline="alphabetic" fill-opacity="1">A</text><path fill="rgb(21,101,192)" stroke="none" paint-order="stroke fill markers" d=" M 669.5459245600789 457.05871921522123 C 669.5459245600789 459.8201429643752 667.3073483092329 462.05871921522123 664.5459245600789 462.05871921522123 C 661.7845008109249 462.05871921522123 659.5459245600789 459.8201429643752 659.5459245600789 457.05871921522123 C 659.5459245600789 454.2972954660673 661.7845008109249 452.05871921522123 664.5459245600789 452.05871921522123 C 667.3073483092329 452.05871921522123 669.5459245600789 454.2972954660673 669.5459245600789 457.05871921522123 Z" fill-opacity="1"/><path fill="none" stroke="rgb(0,0,0)" paint-order="fill stroke markers" d=" M 669.5459245600789 457.05871921522123 C 669.5459245600789 459.8201429643752 667.3073483092329 462.05871921522123 664.5459245600789 462.05871921522123 C 661.7845008109249 462.05871921522123 659.5459245600789 459.8201429643752 659.5459245600789 457.05871921522123 C 659.5459245600789 454.2972954660673 661.7845008109249 452.05871921522123 664.5459245600789 452.05871921522123 C 667.3073483092329 452.05871921522123 669.5459245600789 454.2972954660673 669.5459245600789 457.05871921522123 Z" stroke-opacity="1" stroke-linecap="round" stroke-linejoin="round" stroke-miterlimit="10"/><text fill="rgb(21,101,192)" stroke="none" font-family="geogebra-sans-serif, sans-serif" font-size="16px" font-style="normal" font-weight="normal" text-decoration="normal" x="669" y="447" text-anchor="start" dominant-baseline="alphabetic" fill-opacity="1">B</text><text fill="none" stroke="rgb(255,255,255)" font-family="geogebra-sans-serif, sans-serif" font-size="16px" font-style="normal" font-weight="normal" text-decoration="normal" x="669" y="447" text-anchor="start" dominant-baseline="alphabetic" stroke-opacity="1" stroke-linejoin="bevel" stroke-miterlimit="10" stroke-width="3">B</text><text fill="rgb(21,101,192)" stroke="none" font-family="geogebra-sans-serif, sans-serif" font-size="16px" font-style="normal" font-weight="normal" text-decoration="normal" x="669" y="447" text-anchor="start" dominant-baseline="alphabetic" fill-opacity="1">B</text><path fill="rgb(97,97,97)" stroke="none" paint-order="stroke fill markers" d=" M 658.2854789129256 418.3352163980537 C 658.2854789129256 420.5443553973769 656.4946179122487 422.3352163980537 654.2854789129256 422.3352163980537 C 652.0763399136024 422.3352163980537 650.2854789129256 420.5443553973769 650.2854789129256 418.3352163980537 C 650.2854789129256 416.12607739873056 652.0763399136024 414.3352163980537 654.2854789129256 414.3352163980537 C 656.4946179122487 414.3352163980537 658.2854789129256 416.12607739873056 658.2854789129256 418.3352163980537 Z" fill-opacity="1"/><path fill="none" stroke="rgb(0,0,0)" paint-order="fill stroke markers" d=" M 658.2854789129256 418.3352163980537 C 658.2854789129256 420.5443553973769 656.4946179122487 422.3352163980537 654.2854789129256 422.3352163980537 C 652.0763399136024 422.3352163980537 650.2854789129256 420.5443553973769 650.2854789129256 418.3352163980537 C 650.2854789129256 416.12607739873056 652.0763399136024 414.3352163980537 654.2854789129256 414.3352163980537 C 656.4946179122487 414.3352163980537 658.2854789129256 416.12607739873056 658.2854789129256 418.3352163980537 Z" stroke-opacity="1" stroke-linecap="round" stroke-linejoin="round" stroke-miterlimit="10"/><text fill="rgb(97,97,97)" stroke="none" font-family="geogebra-sans-serif, sans-serif" font-size="16px" font-style="normal" font-weight="normal" text-decoration="normal" x="658" y="410" text-anchor="start" dominant-baseline="alphabetic" fill-opacity="1">C</text><text fill="none" stroke="rgb(255,255,255)" font-family="geogebra-sans-serif, sans-serif" font-size="16px" font-style="normal" font-weight="normal" text-decoration="normal" x="658" y="410" text-anchor="start" dominant-baseline="alphabetic" stroke-opacity="1" stroke-linejoin="bevel" stroke-miterlimit="10" stroke-width="3">C</text><text fill="rgb(97,97,97)" stroke="none" font-family="geogebra-sans-serif, sans-serif" font-size="16px" font-style="normal" font-weight="normal" text-decoration="normal" x="658" y="410" text-anchor="start" dominant-baseline="alphabetic" fill-opacity="1">C</text><path fill="rgb(97,97,97)" stroke="none" paint-order="stroke fill markers" d=" M 619.6197189261637 407.8592715740542 C 619.6197189261637 410.0684105733774 617.8288579254869 411.8592715740542 615.6197189261637 411.8592715740542 C 613.4105799268406 411.8592715740542 611.6197189261637 410.0684105733774 611.6197189261637 407.8592715740542 C 611.6197189261637 405.65013257473106 613.4105799268406 403.8592715740542 615.6197189261637 403.8592715740542 C 617.8288579254869 403.8592715740542 619.6197189261637 405.65013257473106 619.6197189261637 407.8592715740542 Z" fill-opacity="1"/><path fill="none" stroke="rgb(0,0,0)" paint-order="fill stroke markers" d=" M 619.6197189261637 407.8592715740542 C 619.6197189261637 410.0684105733774 617.8288579254869 411.8592715740542 615.6197189261637 411.8592715740542 C 613.4105799268406 411.8592715740542 611.6197189261637 410.0684105733774 611.6197189261637 407.8592715740542 C 611.6197189261637 405.65013257473106 613.4105799268406 403.8592715740542 615.6197189261637 403.8592715740542 C 617.8288579254869 403.8592715740542 619.6197189261637 405.65013257473106 619.6197189261637 407.8592715740542 Z" stroke-opacity="1" stroke-linecap="round" stroke-linejoin="round" stroke-miterlimit="10"/><text fill="rgb(97,97,97)" stroke="none" font-family="geogebra-sans-serif, sans-serif" font-size="16px" font-style="normal" font-weight="normal" text-decoration="normal" x="620" y="400" text-anchor="start" dominant-baseline="alphabetic" fill-opacity="1">D</text><text fill="none" stroke="rgb(255,255,255)" font-family="geogebra-sans-serif, sans-serif" font-size="16px" font-style="normal" font-weight="normal" text-decoration="normal" x="620" y="400" text-anchor="start" dominant-baseline="alphabetic" stroke-opacity="1" stroke-linejoin="bevel" stroke-miterlimit="10" stroke-width="3">D</text><text fill="rgb(97,97,97)" stroke="none" font-family="geogebra-sans-serif, sans-serif" font-size="16px" font-style="normal" font-weight="normal" text-decoration="normal" x="620" y="400" text-anchor="start" dominant-baseline="alphabetic" fill-opacity="1">D</text><path fill="rgb(97,97,97)" stroke="none" paint-order="stroke fill markers" d=" M 686.6907932525343 390.08765840488576 C 686.6907932525343 392.2967974042089 684.8999322518574 394.08765840488576 682.6907932525343 394.08765840488576 C 680.4816542532111 394.08765840488576 678.6907932525343 392.2967974042089 678.6907932525343 390.08765840488576 C 678.6907932525343 387.8785194055626 680.4816542532111 386.08765840488576 682.6907932525343 386.08765840488576 C 684.8999322518574 386.08765840488576 686.6907932525343 387.8785194055626 686.6907932525343 390.08765840488576 Z" fill-opacity="1"/><path fill="none" stroke="rgb(0,0,0)" paint-order="fill stroke markers" d=" M 686.6907932525343 390.08765840488576 C 686.6907932525343 392.2967974042089 684.8999322518574 394.08765840488576 682.6907932525343 394.08765840488576 C 680.4816542532111 394.08765840488576 678.6907932525343 392.2967974042089 678.6907932525343 390.08765840488576 C 678.6907932525343 387.8785194055626 680.4816542532111 386.08765840488576 682.6907932525343 386.08765840488576 C 684.8999322518574 386.08765840488576 686.6907932525343 387.8785194055626 686.6907932525343 390.08765840488576 Z" stroke-opacity="1" stroke-linecap="round" stroke-linejoin="round" stroke-miterlimit="10"/><text fill="rgb(97,97,97)" stroke="none" font-family="geogebra-sans-serif, sans-serif" font-size="16px" font-style="normal" font-weight="normal" text-decoration="normal" x="687" y="382" text-anchor="start" dominant-baseline="alphabetic" fill-opacity="1">E</text><text fill="none" stroke="rgb(255,255,255)" font-family="geogebra-sans-serif, sans-serif" font-size="16px" font-style="normal" font-weight="normal" text-decoration="normal" x="687" y="382" text-anchor="start" dominant-baseline="alphabetic" stroke-opacity="1" stroke-linejoin="bevel" stroke-miterlimit="10" stroke-width="3">E</text><text fill="rgb(97,97,97)" stroke="none" font-family="geogebra-sans-serif, sans-serif" font-size="16px" font-style="normal" font-weight="normal" text-decoration="normal" x="687" y="382" text-anchor="start" dominant-baseline="alphabetic" fill-opacity="1">E</text><path fill="rgb(97,97,97)" stroke="none" paint-order="stroke fill markers" d=" M 552.5486445997931 425.6308847432227 C 552.5486445997931 427.84002374254584 550.7577835991162 429.6308847432227 548.5486445997931 429.6308847432227 C 546.3395056004699 429.6308847432227 544.5486445997931 427.84002374254584 544.5486445997931 425.6308847432227 C 544.5486445997931 423.4217457438995 546.3395056004699 421.6308847432227 548.5486445997931 421.6308847432227 C 550.7577835991162 421.6308847432227 552.5486445997931 423.4217457438995 552.5486445997931 425.6308847432227 Z" fill-opacity="1"/><path fill="none" stroke="rgb(0,0,0)" paint-order="fill stroke markers" d=" M 552.5486445997931 425.6308847432227 C 552.5486445997931 427.84002374254584 550.7577835991162 429.6308847432227 548.5486445997931 429.6308847432227 C 546.3395056004699 429.6308847432227 544.5486445997931 427.84002374254584 544.5486445997931 425.6308847432227 C 544.5486445997931 423.4217457438995 546.3395056004699 421.6308847432227 548.5486445997931 421.6308847432227 C 550.7577835991162 421.6308847432227 552.5486445997931 423.4217457438995 552.5486445997931 425.6308847432227 Z" stroke-opacity="1" stroke-linecap="round" stroke-linejoin="round" stroke-miterlimit="10"/><text fill="rgb(97,97,97)" stroke="none" font-family="geogebra-sans-serif, sans-serif" font-size="16px" font-style="normal" font-weight="normal" text-decoration="normal" x="553" y="418" text-anchor="start" dominant-baseline="alphabetic" fill-opacity="1">F</text><text fill="none" stroke="rgb(255,255,255)" font-family="geogebra-sans-serif, sans-serif" font-size="16px" font-style="normal" font-weight="normal" text-decoration="normal" x="553" y="418" text-anchor="start" dominant-baseline="alphabetic" stroke-opacity="1" stroke-linejoin="bevel" stroke-miterlimit="10" stroke-width="3">F</text><text fill="rgb(97,97,97)" stroke="none" font-family="geogebra-sans-serif, sans-serif" font-size="16px" font-style="normal" font-weight="normal" text-decoration="normal" x="553" y="418" text-anchor="start" dominant-baseline="alphabetic" fill-opacity="1">F</text><path fill="rgb(97,97,97)" stroke="none" paint-order="stroke fill markers" d=" M 601.4748502337083 474.83033238438964 C 601.4748502337083 477.0394713837128 599.6839892330314 478.83033238438964 597.4748502337083 478.83033238438964 C 595.2657112343851 478.83033238438964 593.4748502337083 477.0394713837128 593.4748502337083 474.83033238438964 C 593.4748502337083 472.6211933850665 595.2657112343851 470.83033238438964 597.4748502337083 470.83033238438964 C 599.6839892330314 470.83033238438964 601.4748502337083 472.6211933850665 601.4748502337083 474.83033238438964 Z" fill-opacity="1"/><path fill="none" stroke="rgb(0,0,0)" paint-order="fill stroke markers" d=" M 601.4748502337083 474.83033238438964 C 601.4748502337083 477.0394713837128 599.6839892330314 478.83033238438964 597.4748502337083 478.83033238438964 C 595.2657112343851 478.83033238438964 593.4748502337083 477.0394713837128 593.4748502337083 474.83033238438964 C 593.4748502337083 472.6211933850665 595.2657112343851 470.83033238438964 597.4748502337083 470.83033238438964 C 599.6839892330314 470.83033238438964 601.4748502337083 472.6211933850665 601.4748502337083 474.83033238438964 Z" stroke-opacity="1" stroke-linecap="round" stroke-linejoin="round" stroke-miterlimit="10"/><text fill="rgb(97,97,97)" stroke="none" font-family="geogebra-sans-serif, sans-serif" font-size="16px" font-style="normal" font-weight="normal" text-decoration="normal" x="601" y="467" text-anchor="start" dominant-baseline="alphabetic" fill-opacity="1">G</text><text fill="none" stroke="rgb(255,255,255)" font-family="geogebra-sans-serif, sans-serif" font-size="16px" font-style="normal" font-weight="normal" text-decoration="normal" x="601" y="467" text-anchor="start" dominant-baseline="alphabetic" stroke-opacity="1" stroke-linejoin="bevel" stroke-miterlimit="10" stroke-width="3">G</text><text fill="rgb(97,97,97)" stroke="none" font-family="geogebra-sans-serif, sans-serif" font-size="16px" font-style="normal" font-weight="normal" text-decoration="normal" x="601" y="467" text-anchor="start" dominant-baseline="alphabetic" fill-opacity="1">G</text><path fill="rgb(97,97,97)" stroke="none" paint-order="stroke fill markers" d=" M 650.4010558676235 524.0297800255566 C 650.4010558676235 526.2389190248798 648.6101948669467 528.0297800255566 646.4010558676235 528.0297800255566 C 644.1919168683004 528.0297800255566 642.4010558676235 526.2389190248798 642.4010558676235 524.0297800255566 C 642.4010558676235 521.8206410262335 644.1919168683004 520.0297800255566 646.4010558676235 520.0297800255566 C 648.6101948669467 520.0297800255566 650.4010558676235 521.8206410262335 650.4010558676235 524.0297800255566 Z" fill-opacity="1"/><path fill="none" stroke="rgb(0,0,0)" paint-order="fill stroke markers" d=" M 650.4010558676235 524.0297800255566 C 650.4010558676235 526.2389190248798 648.6101948669467 528.0297800255566 646.4010558676235 528.0297800255566 C 644.1919168683004 528.0297800255566 642.4010558676235 526.2389190248798 642.4010558676235 524.0297800255566 C 642.4010558676235 521.8206410262335 644.1919168683004 520.0297800255566 646.4010558676235 520.0297800255566 C 648.6101948669467 520.0297800255566 650.4010558676235 521.8206410262335 650.4010558676235 524.0297800255566 Z" stroke-opacity="1" stroke-linecap="round" stroke-linejoin="round" stroke-miterlimit="10"/><text fill="rgb(97,97,97)" stroke="none" font-family="geogebra-sans-serif, sans-serif" font-size="16px" font-style="normal" font-weight="normal" text-decoration="normal" x="650" y="516" text-anchor="start" dominant-baseline="alphabetic" fill-opacity="1">H</text><text fill="none" stroke="rgb(255,255,255)" font-family="geogebra-sans-serif, sans-serif" font-size="16px" font-style="normal" font-weight="normal" text-decoration="normal" x="650" y="516" text-anchor="start" dominant-baseline="alphabetic" stroke-opacity="1" stroke-linejoin="bevel" stroke-miterlimit="10" stroke-width="3">H</text><text fill="rgb(97,97,97)" stroke="none" font-family="geogebra-sans-serif, sans-serif" font-size="16px" font-style="normal" font-weight="normal" text-decoration="normal" x="650" y="516" text-anchor="start" dominant-baseline="alphabetic" fill-opacity="1">H</text></g></g></svg>