<svg version="1.1" xmlns="http://www.w3.org/2000/svg" xmlns:xlink="http://www.w3.org/1999/xlink" width="185" height="186"><defs><clipPath id="aQAAtbwicZAR"><path fill="none" stroke="none" d=" M 0 0 L 185 0 L 185 186 L 0 186 L 0 0 Z"/></clipPath></defs><g transform="scale(1,1)" clip-path="url(#aQAAtbwicZAR)"><g transform="translate(-482,-279)"><rect fill="rgb(255,255,255)" stroke="none" x="0" y="0" width="1204" height="932" fill-opacity="1"/><path fill="none" stroke="rgb(97,97,97)" paint-order="fill stroke markers" d=" M 596.2998907932866 394.1155682495186 C 596.2998907932866 421.57544437373383 574.0392628973777 443.83607226964284 546.5793867731625 443.83607226964284 C 519.1195106489472 443.83607226964284 496.8588827530383 421.57544437373383 496.8588827530383 394.1155682495186 C 496.8588827530383 366.65569212530335 519.1195106489472 344.3950642293944 546.5793867731625 344.3950642293944 C 574.0392628973777 344.3950642293944 596.2998907932866 366.65569212530335 596.2998907932866 394.1155682495186 Z" stroke-opacity="0.8" stroke-linecap="round" stroke-linejoin="round" stroke-miterlimit="10" stroke-width="2.5"/><path fill="none" stroke="rgb(97,97,97)" paint-order="fill stroke markers" d=" M 619.2207952249671 345.8831356175798 C 619.2207952249671 379.3340608213304 592.1034624531007 406.4513935931969 558.6525372493501 406.4513935931969 C 525.2016120455995 406.4513935931969 498.08427927373305 379.3340608213304 498.08427927373305 345.8831356175798 C 498.08427927373305 312.4322104138292 525.2016120455995 285.3148776419627 558.6525372493501 285.3148776419627 C 592.1034624531007 285.3148776419627 619.2207952249671 312.4322104138292 619.2207952249671 345.8831356175798 Z" stroke-opacity="0.8" stroke-linecap="round" stroke-linejoin="round" stroke-miterlimit="10" stroke-width="2.5"/><path fill="none" stroke="rgb(97,97,97)" paint-order="fill stroke markers" d=" M 656.862016785733 393.33471423846703 C 656.862016785733 426.78563944221764 629.7446840138665 453.9029722140841 596.2937588101158 453.9029722140841 C 562.8428336063653 453.9029722140841 535.7255008344988 426.78563944221764 535.7255008344988 393.33471423846703 C 535.7255008344988 359.8837890347164 562.8428336063653 332.76645626284994 596.2937588101158 332.76645626284994 C 629.7446840138665 332.76645626284994 656.862016785733 359.8837890347164 656.862016785733 393.33471423846703 Z" stroke-opacity="0.8" stroke-linecap="round" stroke-linejoin="round" stroke-miterlimit="10" stroke-width="2.5"/><path fill="none" stroke="rgb(97,97,97)" paint-order="fill stroke markers" d=" M -5 58.65697312635166 L 1209 734.3645981549598" stroke-opacity="0.8" stroke-linecap="round" stroke-linejoin="round" stroke-miterlimit="10" stroke-width="2.5"/><path fill="none" stroke="rgb(97,97,97)" paint-order="fill stroke markers" d=" M -5 753.1996055085365 L 1209 26.639631118669968" stroke-opacity="0.8" stroke-linecap="round" stroke-linejoin="round" stroke-miterlimit="10" stroke-width="2.5"/><path fill="none" stroke="rgb(97,97,97)" paint-order="fill stroke markers" d=" M 521.0459613444681 351.45208613785206 L 522.3984401649035 437.5599043722368" stroke-opacity="0.8" stroke-linecap="round" stroke-linejoin="round" stroke-miterlimit="10" stroke-width="2.5"/><path fill="rgb(21,101,192)" stroke="none" paint-order="stroke fill markers" d=" M 601.2937588101158 393.33471423846703 C 601.2937588101158 396.096137987621 599.0551825592698 398.33471423846703 596.2937588101158 398.33471423846703 C 593.5323350609618 398.33471423846703 591.2937588101158 396.096137987621 591.2937588101158 393.33471423846703 C 591.2937588101158 390.5732904893131 593.5323350609618 388.33471423846703 596.2937588101158 388.33471423846703 C 599.0551825592698 388.33471423846703 601.2937588101158 390.5732904893131 601.2937588101158 393.33471423846703 Z" fill-opacity="1"/><path fill="none" stroke="rgb(0,0,0)" paint-order="fill stroke markers" d=" M 601.2937588101158 393.33471423846703 C 601.2937588101158 396.096137987621 599.0551825592698 398.33471423846703 596.2937588101158 398.33471423846703 C 593.5323350609618 398.33471423846703 591.2937588101158 396.096137987621 591.2937588101158 393.33471423846703 C 591.2937588101158 390.5732904893131 593.5323350609618 388.33471423846703 596.2937588101158 388.33471423846703 C 599.0551825592698 388.33471423846703 601.2937588101158 390.5732904893131 601.2937588101158 393.33471423846703 Z" stroke-opacity="1" stroke-linecap="round" stroke-linejoin="round" stroke-miterlimit="10"/><text fill="rgb(21,101,192)" stroke="none" font-family="geogebra-sans-serif, sans-serif" font-size="16px" font-style="normal" font-weight="normal" text-decoration="normal" x="600" y="383" text-anchor="start" dominant-baseline="alphabetic" fill-opacity="1">A</text><text fill="none" stroke="rgb(255,255,255)" font-family="geogebra-sans-serif, sans-serif" font-size="16px" font-style="normal" font-weight="normal" text-decoration="normal" x="600" y="383" text-anchor="start" dominant-baseline="alphabetic" stroke-opacity="1" stroke-linejoin="bevel" stroke-miterlimit="10" stroke-width="3">A</text><text fill="rgb(21,101,192)" stroke="none" font-family="geogebra-sans-serif, sans-serif" font-size="16px" font-style="normal" font-weight="normal" text-decoration="normal" x="600" y="383" text-anchor="start" dominant-baseline="alphabetic" fill-opacity="1">A</text><path fill="rgb(21,101,192)" stroke="none" paint-order="stroke fill markers" d=" M 563.6525372493501 345.8831356175798 C 563.6525372493501 348.64455936673374 561.4139609985041 350.8831356175798 558.6525372493501 350.8831356175798 C 555.8911135001961 350.8831356175798 553.6525372493501 348.64455936673374 553.6525372493501 345.8831356175798 C 553.6525372493501 343.12171186842585 555.8911135001961 340.8831356175798 558.6525372493501 340.8831356175798 C 561.4139609985041 340.8831356175798 563.6525372493501 343.12171186842585 563.6525372493501 345.8831356175798 Z" fill-opacity="1"/><path fill="none" stroke="rgb(0,0,0)" paint-order="fill stroke markers" d=" M 563.6525372493501 345.8831356175798 C 563.6525372493501 348.64455936673374 561.4139609985041 350.8831356175798 558.6525372493501 350.8831356175798 C 555.8911135001961 350.8831356175798 553.6525372493501 348.64455936673374 553.6525372493501 345.8831356175798 C 553.6525372493501 343.12171186842585 555.8911135001961 340.8831356175798 558.6525372493501 340.8831356175798 C 561.4139609985041 340.8831356175798 563.6525372493501 343.12171186842585 563.6525372493501 345.8831356175798 Z" stroke-opacity="1" stroke-linecap="round" stroke-linejoin="round" stroke-miterlimit="10"/><text fill="rgb(21,101,192)" stroke="none" font-family="geogebra-sans-serif, sans-serif" font-size="16px" font-style="normal" font-weight="normal" text-decoration="normal" x="563" y="336" text-anchor="start" dominant-baseline="alphabetic" fill-opacity="1">B</text><text fill="none" stroke="rgb(255,255,255)" font-family="geogebra-sans-serif, sans-serif" font-size="16px" font-style="normal" font-weight="normal" text-decoration="normal" x="563" y="336" text-anchor="start" dominant-baseline="alphabetic" stroke-opacity="1" stroke-linejoin="bevel" stroke-miterlimit="10" stroke-width="3">B</text><text fill="rgb(21,101,192)" stroke="none" font-family="geogebra-sans-serif, sans-serif" font-size="16px" font-style="normal" font-weight="normal" text-decoration="normal" x="563" y="336" text-anchor="start" dominant-baseline="alphabetic" fill-opacity="1">B</text><path fill="rgb(97,97,97)" stroke="none" paint-order="stroke fill markers" d=" M 622.5674205650959 337.0106708269217 C 622.5674205650959 339.21980982624484 620.776559564419 341.0106708269217 618.5674205650959 341.0106708269217 C 616.3582815657727 341.0106708269217 614.5674205650959 339.21980982624484 614.5674205650959 337.0106708269217 C 614.5674205650959 334.8015318275985 616.3582815657727 333.0106708269217 618.5674205650959 333.0106708269217 C 620.776559564419 333.0106708269217 622.5674205650959 334.8015318275985 622.5674205650959 337.0106708269217 Z" fill-opacity="1"/><path fill="none" stroke="rgb(0,0,0)" paint-order="fill stroke markers" d=" M 622.5674205650959 337.0106708269217 C 622.5674205650959 339.21980982624484 620.776559564419 341.0106708269217 618.5674205650959 341.0106708269217 C 616.3582815657727 341.0106708269217 614.5674205650959 339.21980982624484 614.5674205650959 337.0106708269217 C 614.5674205650959 334.8015318275985 616.3582815657727 333.0106708269217 618.5674205650959 333.0106708269217 C 620.776559564419 333.0106708269217 622.5674205650959 334.8015318275985 622.5674205650959 337.0106708269217 Z" stroke-opacity="1" stroke-linecap="round" stroke-linejoin="round" stroke-miterlimit="10"/><text fill="rgb(97,97,97)" stroke="none" font-family="geogebra-sans-serif, sans-serif" font-size="16px" font-style="normal" font-weight="normal" text-decoration="normal" x="623" y="329" text-anchor="start" dominant-baseline="alphabetic" fill-opacity="1">C</text><text fill="none" stroke="rgb(255,255,255)" font-family="geogebra-sans-serif, sans-serif" font-size="16px" font-style="normal" font-weight="normal" text-decoration="normal" x="623" y="329" text-anchor="start" dominant-baseline="alphabetic" stroke-opacity="1" stroke-linejoin="bevel" stroke-miterlimit="10" stroke-width="3">C</text><text fill="rgb(97,97,97)" stroke="none" font-family="geogebra-sans-serif, sans-serif" font-size="16px" font-style="normal" font-weight="normal" text-decoration="normal" x="623" y="329" text-anchor="start" dominant-baseline="alphabetic" fill-opacity="1">C</text><path fill="rgb(97,97,97)" stroke="none" paint-order="stroke fill markers" d=" M 564.1613629848291 441.94504077641267 C 564.1613629848291 444.1541797757358 562.3705019841523 445.94504077641267 560.1613629848291 445.94504077641267 C 557.952223985506 445.94504077641267 556.1613629848291 444.1541797757358 556.1613629848291 441.94504077641267 C 556.1613629848291 439.7359017770895 557.952223985506 437.94504077641267 560.1613629848291 437.94504077641267 C 562.3705019841523 437.94504077641267 564.1613629848291 439.7359017770895 564.1613629848291 441.94504077641267 Z" fill-opacity="1"/><path fill="none" stroke="rgb(0,0,0)" paint-order="fill stroke markers" d=" M 564.1613629848291 441.94504077641267 C 564.1613629848291 444.1541797757358 562.3705019841523 445.94504077641267 560.1613629848291 445.94504077641267 C 557.952223985506 445.94504077641267 556.1613629848291 444.1541797757358 556.1613629848291 441.94504077641267 C 556.1613629848291 439.7359017770895 557.952223985506 437.94504077641267 560.1613629848291 437.94504077641267 C 562.3705019841523 437.94504077641267 564.1613629848291 439.7359017770895 564.1613629848291 441.94504077641267 Z" stroke-opacity="1" stroke-linecap="round" stroke-linejoin="round" stroke-miterlimit="10"/><text fill="rgb(97,97,97)" stroke="none" font-family="geogebra-sans-serif, sans-serif" font-size="16px" font-style="normal" font-weight="normal" text-decoration="normal" x="564" y="434" text-anchor="start" dominant-baseline="alphabetic" fill-opacity="1">D</text><text fill="none" stroke="rgb(255,255,255)" font-family="geogebra-sans-serif, sans-serif" font-size="16px" font-style="normal" font-weight="normal" text-decoration="normal" x="564" y="434" text-anchor="start" dominant-baseline="alphabetic" stroke-opacity="1" stroke-linejoin="bevel" stroke-miterlimit="10" stroke-width="3">D</text><text fill="rgb(97,97,97)" stroke="none" font-family="geogebra-sans-serif, sans-serif" font-size="16px" font-style="normal" font-weight="normal" text-decoration="normal" x="564" y="434" text-anchor="start" dominant-baseline="alphabetic" fill-opacity="1">D</text><path fill="rgb(97,97,97)" stroke="none" paint-order="stroke fill markers" d=" M 540.37887549437 402.20717902912514 C 540.37887549437 404.4163180284483 538.5880144936932 406.20717902912514 536.37887549437 406.20717902912514 C 534.1697364950469 406.20717902912514 532.37887549437 404.4163180284483 532.37887549437 402.20717902912514 C 532.37887549437 399.998040029802 534.1697364950469 398.20717902912514 536.37887549437 398.20717902912514 C 538.5880144936932 398.20717902912514 540.37887549437 399.998040029802 540.37887549437 402.20717902912514 Z" fill-opacity="1"/><path fill="none" stroke="rgb(0,0,0)" paint-order="fill stroke markers" d=" M 540.37887549437 402.20717902912514 C 540.37887549437 404.4163180284483 538.5880144936932 406.20717902912514 536.37887549437 406.20717902912514 C 534.1697364950469 406.20717902912514 532.37887549437 404.4163180284483 532.37887549437 402.20717902912514 C 532.37887549437 399.998040029802 534.1697364950469 398.20717902912514 536.37887549437 398.20717902912514 C 538.5880144936932 398.20717902912514 540.37887549437 399.998040029802 540.37887549437 402.20717902912514 Z" stroke-opacity="1" stroke-linecap="round" stroke-linejoin="round" stroke-miterlimit="10"/><text fill="rgb(97,97,97)" stroke="none" font-family="geogebra-sans-serif, sans-serif" font-size="16px" font-style="normal" font-weight="normal" text-decoration="normal" x="540" y="394" text-anchor="start" dominant-baseline="alphabetic" fill-opacity="1">E</text><text fill="none" stroke="rgb(255,255,255)" font-family="geogebra-sans-serif, sans-serif" font-size="16px" font-style="normal" font-weight="normal" text-decoration="normal" x="540" y="394" text-anchor="start" dominant-baseline="alphabetic" stroke-opacity="1" stroke-linejoin="bevel" stroke-miterlimit="10" stroke-width="3">E</text><text fill="rgb(97,97,97)" stroke="none" font-family="geogebra-sans-serif, sans-serif" font-size="16px" font-style="normal" font-weight="normal" text-decoration="normal" x="540" y="394" text-anchor="start" dominant-baseline="alphabetic" fill-opacity="1">E</text><path fill="rgb(97,97,97)" stroke="none" paint-order="stroke fill markers" d=" M 525.0459613444681 351.45208613785206 C 525.0459613444681 353.6612251371752 523.2551003437912 355.45208613785206 521.0459613444681 355.45208613785206 C 518.8368223451449 355.45208613785206 517.0459613444681 353.6612251371752 517.0459613444681 351.45208613785206 C 517.0459613444681 349.2429471385289 518.8368223451449 347.45208613785206 521.0459613444681 347.45208613785206 C 523.2551003437912 347.45208613785206 525.0459613444681 349.2429471385289 525.0459613444681 351.45208613785206 Z" fill-opacity="1"/><path fill="none" stroke="rgb(0,0,0)" paint-order="fill stroke markers" d=" M 525.0459613444681 351.45208613785206 C 525.0459613444681 353.6612251371752 523.2551003437912 355.45208613785206 521.0459613444681 355.45208613785206 C 518.8368223451449 355.45208613785206 517.0459613444681 353.6612251371752 517.0459613444681 351.45208613785206 C 517.0459613444681 349.2429471385289 518.8368223451449 347.45208613785206 521.0459613444681 347.45208613785206 C 523.2551003437912 347.45208613785206 525.0459613444681 349.2429471385289 525.0459613444681 351.45208613785206 Z" stroke-opacity="1" stroke-linecap="round" stroke-linejoin="round" stroke-miterlimit="10"/><text fill="rgb(97,97,97)" stroke="none" font-family="geogebra-sans-serif, sans-serif" font-size="16px" font-style="normal" font-weight="normal" text-decoration="normal" x="525" y="343" text-anchor="start" dominant-baseline="alphabetic" fill-opacity="1">F</text><text fill="none" stroke="rgb(255,255,255)" font-family="geogebra-sans-serif, sans-serif" font-size="16px" font-style="normal" font-weight="normal" text-decoration="normal" x="525" y="343" text-anchor="start" dominant-baseline="alphabetic" stroke-opacity="1" stroke-linejoin="bevel" stroke-miterlimit="10" stroke-width="3">F</text><text fill="rgb(97,97,97)" stroke="none" font-family="geogebra-sans-serif, sans-serif" font-size="16px" font-style="normal" font-weight="normal" text-decoration="normal" x="525" y="343" text-anchor="start" dominant-baseline="alphabetic" fill-opacity="1">F</text><path fill="rgb(97,97,97)" stroke="none" paint-order="stroke fill markers" d=" M 526.3984401649035 437.5599043722368 C 526.3984401649035 439.76904337156 524.6075791642266 441.5599043722368 522.3984401649035 441.5599043722368 C 520.1893011655803 441.5599043722368 518.3984401649035 439.76904337156 518.3984401649035 437.5599043722368 C 518.3984401649035 435.35076537291366 520.1893011655803 433.5599043722368 522.3984401649035 433.5599043722368 C 524.6075791642266 433.5599043722368 526.3984401649035 435.35076537291366 526.3984401649035 437.5599043722368 Z" fill-opacity="1"/><path fill="none" stroke="rgb(0,0,0)" paint-order="fill stroke markers" d=" M 526.3984401649035 437.5599043722368 C 526.3984401649035 439.76904337156 524.6075791642266 441.5599043722368 522.3984401649035 441.5599043722368 C 520.1893011655803 441.5599043722368 518.3984401649035 439.76904337156 518.3984401649035 437.5599043722368 C 518.3984401649035 435.35076537291366 520.1893011655803 433.5599043722368 522.3984401649035 433.5599043722368 C 524.6075791642266 433.5599043722368 526.3984401649035 435.35076537291366 526.3984401649035 437.5599043722368 Z" stroke-opacity="1" stroke-linecap="round" stroke-linejoin="round" stroke-miterlimit="10"/><text fill="rgb(97,97,97)" stroke="none" font-family="geogebra-sans-serif, sans-serif" font-size="16px" font-style="normal" font-weight="normal" text-decoration="normal" x="526" y="430" text-anchor="start" dominant-baseline="alphabetic" fill-opacity="1">G</text><text fill="none" stroke="rgb(255,255,255)" font-family="geogebra-sans-serif, sans-serif" font-size="16px" font-style="normal" font-weight="normal" text-decoration="normal" x="526" y="430" text-anchor="start" dominant-baseline="alphabetic" stroke-opacity="1" stroke-linejoin="bevel" stroke-miterlimit="10" stroke-width="3">G</text><text fill="rgb(97,97,97)" stroke="none" font-family="geogebra-sans-serif, sans-serif" font-size="16px" font-style="normal" font-weight="normal" text-decoration="normal" x="526" y="430" text-anchor="start" dominant-baseline="alphabetic" fill-opacity="1">G</text></g></g></svg>