<svg version="1.1" xmlns="http://www.w3.org/2000/svg" xmlns:xlink="http://www.w3.org/1999/xlink" width="616" height="680"><defs><clipPath id="mrHbaOcNtZQD"><path fill="none" stroke="none" d=" M 0 0 L 616 0 L 616 680 L 0 680 L 0 0 Z"/></clipPath></defs><g transform="scale(1,1)" clip-path="url(#mrHbaOcNtZQD)"><g transform="translate(-371,-241)"><rect fill="rgb(255,255,255)" stroke="none" x="0" y="0" width="1204" height="932" fill-opacity="1"/><path fill="none" stroke="rgb(97,97,97)" paint-order="fill stroke markers" d=" M 754.5913700402712 473.7257471473513 C 754.5913700402712 572.3087449492508 674.6740601076135 652.2260548819086 576.0910623057141 652.2260548819086 C 477.5080645038147 652.2260548819086 397.59075457115716 572.3087449492508 397.59075457115716 473.7257471473513 C 397.59075457115716 375.14274934545165 477.5080645038147 295.225439412794 576.0910623057141 295.225439412794 C 674.6740601076135 295.225439412794 754.5913700402712 375.14274934545165 754.5913700402712 473.7257471473513 Z" stroke-opacity="0.8" stroke-linecap="round" stroke-linejoin="round" stroke-miterlimit="10" stroke-width="2.5"/><path fill="none" stroke="rgb(97,97,97)" paint-order="fill stroke markers" d=" M 832.9743823976077 577.514034210989 C 832.9743823976077 639.1811251755203 782.983327843139 689.172179729989 721.3162368786079 689.172179729989 C 659.6491459140767 689.172179729989 609.6580913596081 639.1811251755203 609.6580913596081 577.514034210989 C 609.6580913596081 515.8469432464578 659.6491459140767 465.8558886919891 721.3162368786079 465.8558886919891 C 782.983327843139 465.8558886919891 832.9743823976077 515.8469432464578 832.9743823976077 577.514034210989 Z" stroke-opacity="0.8" stroke-linecap="round" stroke-linejoin="round" stroke-miterlimit="10" stroke-width="2.5"/><path fill="none" stroke="rgb(97,97,97)" paint-order="fill stroke markers" d=" M 966.6818144032297 470.9224231663219 C 966.6818144032297 588.0688993215633 871.715831919821 683.0348818049722 754.5693557645797 683.0348818049722 C 637.4228796093383 683.0348818049722 542.4568971259297 588.0688993215633 542.4568971259297 470.9224231663219 C 542.4568971259297 353.7759470110804 637.4228796093383 258.8099645276716 754.5693557645797 258.8099645276716 C 871.715831919821 258.8099645276716 966.6818144032297 353.7759470110804 966.6818144032297 470.9224231663219 Z" stroke-opacity="0.8" stroke-linecap="round" stroke-linejoin="round" stroke-miterlimit="10" stroke-width="2.5"/><path fill="none" stroke="rgb(97,97,97)" paint-order="fill stroke markers" d=" M 970.013012816966 683.0087221742057 C 970.013012816966 800.1551983294471 875.0470303335574 895.121180812856 757.900554178316 895.121180812856 C 640.7540780230747 895.121180812856 545.7880955396661 800.1551983294471 545.7880955396661 683.0087221742057 C 545.7880955396661 565.8622460189642 640.7540780230747 470.89626353555536 757.900554178316 470.89626353555536 C 875.0470303335574 470.89626353555536 970.013012816966 565.8622460189642 970.013012816966 683.0087221742057 Z" stroke-opacity="0.8" stroke-linecap="round" stroke-linejoin="round" stroke-miterlimit="10" stroke-width="2.5"/><path fill="none" stroke="rgb(97,97,97)" paint-order="fill stroke markers" d=" M 939.9070777068973 574.0806702189217 L 0 50.93208766133728" stroke-opacity="0.8" stroke-linecap="round" stroke-linejoin="round" stroke-miterlimit="10" stroke-width="2.5"/><path fill="none" stroke="rgb(97,97,97)" paint-order="fill stroke markers" d=" M 754.5693557645797 470.92242316632195 L 0 922.5203571034651" stroke-opacity="0.8" stroke-linecap="round" stroke-linejoin="round" stroke-miterlimit="10" stroke-width="2.5"/><path fill="none" stroke="rgb(97,97,97)" paint-order="fill stroke markers" d=" M 489.27966535889084 629.6941452973377 L 484.4241657936718 320.5606729783941" stroke-opacity="0.8" stroke-linecap="round" stroke-linejoin="round" stroke-miterlimit="10" stroke-width="2.5"/><path fill="rgb(21,101,192)" stroke="none" paint-order="stroke fill markers" d=" M 759.5693557645797 470.92242316632195 C 759.5693557645797 473.6838469154759 757.3307795137337 475.92242316632195 754.5693557645797 475.92242316632195 C 751.8079320154256 475.92242316632195 749.5693557645797 473.6838469154759 749.5693557645797 470.92242316632195 C 749.5693557645797 468.160999417168 751.8079320154256 465.92242316632195 754.5693557645797 465.92242316632195 C 757.3307795137337 465.92242316632195 759.5693557645797 468.160999417168 759.5693557645797 470.92242316632195 Z" fill-opacity="1"/><path fill="none" stroke="rgb(0,0,0)" paint-order="fill stroke markers" d=" M 759.5693557645797 470.92242316632195 C 759.5693557645797 473.6838469154759 757.3307795137337 475.92242316632195 754.5693557645797 475.92242316632195 C 751.8079320154256 475.92242316632195 749.5693557645797 473.6838469154759 749.5693557645797 470.92242316632195 C 749.5693557645797 468.160999417168 751.8079320154256 465.92242316632195 754.5693557645797 465.92242316632195 C 757.3307795137337 465.92242316632195 759.5693557645797 468.160999417168 759.5693557645797 470.92242316632195 Z" stroke-opacity="1" stroke-linecap="round" stroke-linejoin="round" stroke-miterlimit="10"/><text fill="rgb(21,101,192)" stroke="none" font-family="geogebra-sans-serif, sans-serif" font-size="16px" font-style="normal" font-weight="normal" text-decoration="normal" x="759" y="461" text-anchor="start" dominant-baseline="alphabetic" fill-opacity="1">A</text><text fill="none" stroke="rgb(255,255,255)" font-family="geogebra-sans-serif, sans-serif" font-size="16px" font-style="normal" font-weight="normal" text-decoration="normal" x="759" y="461" text-anchor="start" dominant-baseline="alphabetic" stroke-opacity="1" stroke-linejoin="bevel" stroke-miterlimit="10" stroke-width="3">A</text><text fill="rgb(21,101,192)" stroke="none" font-family="geogebra-sans-serif, sans-serif" font-size="16px" font-style="normal" font-weight="normal" text-decoration="normal" x="759" y="461" text-anchor="start" dominant-baseline="alphabetic" fill-opacity="1">A</text><path fill="rgb(21,101,192)" stroke="none" paint-order="stroke fill markers" d=" M 726.3162368786079 577.514034210989 C 726.3162368786079 580.2754579601431 724.0776606277619 582.514034210989 721.3162368786079 582.514034210989 C 718.5548131294539 582.514034210989 716.3162368786079 580.2754579601431 716.3162368786079 577.514034210989 C 716.3162368786079 574.752610461835 718.5548131294539 572.514034210989 721.3162368786079 572.514034210989 C 724.0776606277619 572.514034210989 726.3162368786079 574.752610461835 726.3162368786079 577.514034210989 Z" fill-opacity="1"/><path fill="none" stroke="rgb(0,0,0)" paint-order="fill stroke markers" d=" M 726.3162368786079 577.514034210989 C 726.3162368786079 580.2754579601431 724.0776606277619 582.514034210989 721.3162368786079 582.514034210989 C 718.5548131294539 582.514034210989 716.3162368786079 580.2754579601431 716.3162368786079 577.514034210989 C 716.3162368786079 574.752610461835 718.5548131294539 572.514034210989 721.3162368786079 572.514034210989 C 724.0776606277619 572.514034210989 726.3162368786079 574.752610461835 726.3162368786079 577.514034210989 Z" stroke-opacity="1" stroke-linecap="round" stroke-linejoin="round" stroke-miterlimit="10"/><text fill="rgb(21,101,192)" stroke="none" font-family="geogebra-sans-serif, sans-serif" font-size="16px" font-style="normal" font-weight="normal" text-decoration="normal" x="725" y="568" text-anchor="start" dominant-baseline="alphabetic" fill-opacity="1">B</text><text fill="none" stroke="rgb(255,255,255)" font-family="geogebra-sans-serif, sans-serif" font-size="16px" font-style="normal" font-weight="normal" text-decoration="normal" x="725" y="568" text-anchor="start" dominant-baseline="alphabetic" stroke-opacity="1" stroke-linejoin="bevel" stroke-miterlimit="10" stroke-width="3">B</text><text fill="rgb(21,101,192)" stroke="none" font-family="geogebra-sans-serif, sans-serif" font-size="16px" font-style="normal" font-weight="normal" text-decoration="normal" x="725" y="568" text-anchor="start" dominant-baseline="alphabetic" fill-opacity="1">B</text><path fill="rgb(97,97,97)" stroke="none" paint-order="stroke fill markers" d=" M 635.237418546299 643.493939853518 C 635.237418546299 645.7030788528411 633.4465575456221 647.493939853518 631.237418546299 647.493939853518 C 629.0282795469758 647.493939853518 627.237418546299 645.7030788528411 627.237418546299 643.493939853518 C 627.237418546299 641.2848008541948 629.0282795469758 639.493939853518 631.237418546299 639.493939853518 C 633.4465575456221 639.493939853518 635.237418546299 641.2848008541948 635.237418546299 643.493939853518 Z" fill-opacity="1"/><path fill="none" stroke="rgb(0,0,0)" paint-order="fill stroke markers" d=" M 635.237418546299 643.493939853518 C 635.237418546299 645.7030788528411 633.4465575456221 647.493939853518 631.237418546299 647.493939853518 C 629.0282795469758 647.493939853518 627.237418546299 645.7030788528411 627.237418546299 643.493939853518 C 627.237418546299 641.2848008541948 629.0282795469758 639.493939853518 631.237418546299 639.493939853518 C 633.4465575456221 639.493939853518 635.237418546299 641.2848008541948 635.237418546299 643.493939853518 Z" stroke-opacity="1" stroke-linecap="round" stroke-linejoin="round" stroke-miterlimit="10"/><text fill="rgb(97,97,97)" stroke="none" font-family="geogebra-sans-serif, sans-serif" font-size="16px" font-style="normal" font-weight="normal" text-decoration="normal" x="635" y="635" text-anchor="start" dominant-baseline="alphabetic" fill-opacity="1">C</text><text fill="none" stroke="rgb(255,255,255)" font-family="geogebra-sans-serif, sans-serif" font-size="16px" font-style="normal" font-weight="normal" text-decoration="normal" x="635" y="635" text-anchor="start" dominant-baseline="alphabetic" stroke-opacity="1" stroke-linejoin="bevel" stroke-miterlimit="10" stroke-width="3">C</text><text fill="rgb(97,97,97)" stroke="none" font-family="geogebra-sans-serif, sans-serif" font-size="16px" font-style="normal" font-weight="normal" text-decoration="normal" x="635" y="635" text-anchor="start" dominant-baseline="alphabetic" fill-opacity="1">C</text><path fill="rgb(97,97,97)" stroke="none" paint-order="stroke fill markers" d=" M 761.900554178316 683.0087221742057 C 761.900554178316 685.2178611735288 760.1096931776392 687.0087221742057 757.900554178316 687.0087221742057 C 755.6914151789929 687.0087221742057 753.900554178316 685.2178611735288 753.900554178316 683.0087221742057 C 753.900554178316 680.7995831748825 755.6914151789929 679.0087221742057 757.900554178316 679.0087221742057 C 760.1096931776392 679.0087221742057 761.900554178316 680.7995831748825 761.900554178316 683.0087221742057 Z" fill-opacity="1"/><path fill="none" stroke="rgb(0,0,0)" paint-order="fill stroke markers" d=" M 761.900554178316 683.0087221742057 C 761.900554178316 685.2178611735288 760.1096931776392 687.0087221742057 757.900554178316 687.0087221742057 C 755.6914151789929 687.0087221742057 753.900554178316 685.2178611735288 753.900554178316 683.0087221742057 C 753.900554178316 680.7995831748825 755.6914151789929 679.0087221742057 757.900554178316 679.0087221742057 C 760.1096931776392 679.0087221742057 761.900554178316 680.7995831748825 761.900554178316 683.0087221742057 Z" stroke-opacity="1" stroke-linecap="round" stroke-linejoin="round" stroke-miterlimit="10"/><text fill="rgb(97,97,97)" stroke="none" font-family="geogebra-sans-serif, sans-serif" font-size="16px" font-style="normal" font-weight="normal" text-decoration="normal" x="762" y="675" text-anchor="start" dominant-baseline="alphabetic" fill-opacity="1">D</text><text fill="none" stroke="rgb(255,255,255)" font-family="geogebra-sans-serif, sans-serif" font-size="16px" font-style="normal" font-weight="normal" text-decoration="normal" x="762" y="675" text-anchor="start" dominant-baseline="alphabetic" stroke-opacity="1" stroke-linejoin="bevel" stroke-miterlimit="10" stroke-width="3">D</text><text fill="rgb(97,97,97)" stroke="none" font-family="geogebra-sans-serif, sans-serif" font-size="16px" font-style="normal" font-weight="normal" text-decoration="normal" x="762" y="675" text-anchor="start" dominant-baseline="alphabetic" fill-opacity="1">D</text><path fill="rgb(97,97,97)" stroke="none" paint-order="stroke fill markers" d=" M 943.9070777068973 574.0806702189217 C 943.9070777068973 576.2898092182448 942.1162167062205 578.0806702189217 939.9070777068973 578.0806702189217 C 937.6979387075742 578.0806702189217 935.9070777068973 576.2898092182448 935.9070777068973 574.0806702189217 C 935.9070777068973 571.8715312195985 937.6979387075742 570.0806702189217 939.9070777068973 570.0806702189217 C 942.1162167062205 570.0806702189217 943.9070777068973 571.8715312195985 943.9070777068973 574.0806702189217 Z" fill-opacity="1"/><path fill="none" stroke="rgb(0,0,0)" paint-order="fill stroke markers" d=" M 943.9070777068973 574.0806702189217 C 943.9070777068973 576.2898092182448 942.1162167062205 578.0806702189217 939.9070777068973 578.0806702189217 C 937.6979387075742 578.0806702189217 935.9070777068973 576.2898092182448 935.9070777068973 574.0806702189217 C 935.9070777068973 571.8715312195985 937.6979387075742 570.0806702189217 939.9070777068973 570.0806702189217 C 942.1162167062205 570.0806702189217 943.9070777068973 571.8715312195985 943.9070777068973 574.0806702189217 Z" stroke-opacity="1" stroke-linecap="round" stroke-linejoin="round" stroke-miterlimit="10"/><text fill="rgb(97,97,97)" stroke="none" font-family="geogebra-sans-serif, sans-serif" font-size="16px" font-style="normal" font-weight="normal" text-decoration="normal" x="944" y="566" text-anchor="start" dominant-baseline="alphabetic" fill-opacity="1">E</text><text fill="none" stroke="rgb(255,255,255)" font-family="geogebra-sans-serif, sans-serif" font-size="16px" font-style="normal" font-weight="normal" text-decoration="normal" x="944" y="566" text-anchor="start" dominant-baseline="alphabetic" stroke-opacity="1" stroke-linejoin="bevel" stroke-miterlimit="10" stroke-width="3">E</text><text fill="rgb(97,97,97)" stroke="none" font-family="geogebra-sans-serif, sans-serif" font-size="16px" font-style="normal" font-weight="normal" text-decoration="normal" x="944" y="566" text-anchor="start" dominant-baseline="alphabetic" fill-opacity="1">E</text><path fill="rgb(97,97,97)" stroke="none" paint-order="stroke fill markers" d=" M 576.5628322359984 579.850475121606 C 576.5628322359984 582.0596141209292 574.7719712353215 583.850475121606 572.5628322359984 583.850475121606 C 570.3536932366752 583.850475121606 568.5628322359984 582.0596141209292 568.5628322359984 579.850475121606 C 568.5628322359984 577.6413361222828 570.3536932366752 575.850475121606 572.5628322359984 575.850475121606 C 574.7719712353215 575.850475121606 576.5628322359984 577.6413361222828 576.5628322359984 579.850475121606 Z" fill-opacity="1"/><path fill="none" stroke="rgb(0,0,0)" paint-order="fill stroke markers" d=" M 576.5628322359984 579.850475121606 C 576.5628322359984 582.0596141209292 574.7719712353215 583.850475121606 572.5628322359984 583.850475121606 C 570.3536932366752 583.850475121606 568.5628322359984 582.0596141209292 568.5628322359984 579.850475121606 C 568.5628322359984 577.6413361222828 570.3536932366752 575.850475121606 572.5628322359984 575.850475121606 C 574.7719712353215 575.850475121606 576.5628322359984 577.6413361222828 576.5628322359984 579.850475121606 Z" stroke-opacity="1" stroke-linecap="round" stroke-linejoin="round" stroke-miterlimit="10"/><text fill="rgb(97,97,97)" stroke="none" font-family="geogebra-sans-serif, sans-serif" font-size="16px" font-style="normal" font-weight="normal" text-decoration="normal" x="577" y="572" text-anchor="start" dominant-baseline="alphabetic" fill-opacity="1">F</text><text fill="none" stroke="rgb(255,255,255)" font-family="geogebra-sans-serif, sans-serif" font-size="16px" font-style="normal" font-weight="normal" text-decoration="normal" x="577" y="572" text-anchor="start" dominant-baseline="alphabetic" stroke-opacity="1" stroke-linejoin="bevel" stroke-miterlimit="10" stroke-width="3">F</text><text fill="rgb(97,97,97)" stroke="none" font-family="geogebra-sans-serif, sans-serif" font-size="16px" font-style="normal" font-weight="normal" text-decoration="normal" x="577" y="572" text-anchor="start" dominant-baseline="alphabetic" fill-opacity="1">F</text><path fill="rgb(97,97,97)" stroke="none" paint-order="stroke fill markers" d=" M 493.27966535889084 629.6941452973377 C 493.27966535889084 631.9032842966609 491.488804358214 633.6941452973377 489.27966535889084 633.6941452973377 C 487.0705263595677 633.6941452973377 485.27966535889084 631.9032842966609 485.27966535889084 629.6941452973377 C 485.27966535889084 627.4850062980146 487.0705263595677 625.6941452973377 489.27966535889084 625.6941452973377 C 491.488804358214 625.6941452973377 493.27966535889084 627.4850062980146 493.27966535889084 629.6941452973377 Z" fill-opacity="1"/><path fill="none" stroke="rgb(0,0,0)" paint-order="fill stroke markers" d=" M 493.27966535889084 629.6941452973377 C 493.27966535889084 631.9032842966609 491.488804358214 633.6941452973377 489.27966535889084 633.6941452973377 C 487.0705263595677 633.6941452973377 485.27966535889084 631.9032842966609 485.27966535889084 629.6941452973377 C 485.27966535889084 627.4850062980146 487.0705263595677 625.6941452973377 489.27966535889084 625.6941452973377 C 491.488804358214 625.6941452973377 493.27966535889084 627.4850062980146 493.27966535889084 629.6941452973377 Z" stroke-opacity="1" stroke-linecap="round" stroke-linejoin="round" stroke-miterlimit="10"/><text fill="rgb(97,97,97)" stroke="none" font-family="geogebra-sans-serif, sans-serif" font-size="16px" font-style="normal" font-weight="normal" text-decoration="normal" x="493" y="622" text-anchor="start" dominant-baseline="alphabetic" fill-opacity="1">G</text><text fill="none" stroke="rgb(255,255,255)" font-family="geogebra-sans-serif, sans-serif" font-size="16px" font-style="normal" font-weight="normal" text-decoration="normal" x="493" y="622" text-anchor="start" dominant-baseline="alphabetic" stroke-opacity="1" stroke-linejoin="bevel" stroke-miterlimit="10" stroke-width="3">G</text><text fill="rgb(97,97,97)" stroke="none" font-family="geogebra-sans-serif, sans-serif" font-size="16px" font-style="normal" font-weight="normal" text-decoration="normal" x="493" y="622" text-anchor="start" dominant-baseline="alphabetic" fill-opacity="1">G</text><path fill="rgb(97,97,97)" stroke="none" paint-order="stroke fill markers" d=" M 488.4241657936718 320.5606729783941 C 488.4241657936718 322.76981197771727 486.633304792995 324.5606729783941 484.4241657936718 324.5606729783941 C 482.21502679434866 324.5606729783941 480.4241657936718 322.76981197771727 480.4241657936718 320.5606729783941 C 480.4241657936718 318.35153397907095 482.21502679434866 316.5606729783941 484.4241657936718 316.5606729783941 C 486.633304792995 316.5606729783941 488.4241657936718 318.35153397907095 488.4241657936718 320.5606729783941 Z" fill-opacity="1"/><path fill="none" stroke="rgb(0,0,0)" paint-order="fill stroke markers" d=" M 488.4241657936718 320.5606729783941 C 488.4241657936718 322.76981197771727 486.633304792995 324.5606729783941 484.4241657936718 324.5606729783941 C 482.21502679434866 324.5606729783941 480.4241657936718 322.76981197771727 480.4241657936718 320.5606729783941 C 480.4241657936718 318.35153397907095 482.21502679434866 316.5606729783941 484.4241657936718 316.5606729783941 C 486.633304792995 316.5606729783941 488.4241657936718 318.35153397907095 488.4241657936718 320.5606729783941 Z" stroke-opacity="1" stroke-linecap="round" stroke-linejoin="round" stroke-miterlimit="10"/><text fill="rgb(97,97,97)" stroke="none" font-family="geogebra-sans-serif, sans-serif" font-size="16px" font-style="normal" font-weight="normal" text-decoration="normal" x="488" y="313" text-anchor="start" dominant-baseline="alphabetic" fill-opacity="1">H</text><text fill="none" stroke="rgb(255,255,255)" font-family="geogebra-sans-serif, sans-serif" font-size="16px" font-style="normal" font-weight="normal" text-decoration="normal" x="488" y="313" text-anchor="start" dominant-baseline="alphabetic" stroke-opacity="1" stroke-linejoin="bevel" stroke-miterlimit="10" stroke-width="3">H</text><text fill="rgb(97,97,97)" stroke="none" font-family="geogebra-sans-serif, sans-serif" font-size="16px" font-style="normal" font-weight="normal" text-decoration="normal" x="488" y="313" text-anchor="start" dominant-baseline="alphabetic" fill-opacity="1">H</text></g></g></svg>