<svg version="1.1" xmlns="http://www.w3.org/2000/svg" xmlns:xlink="http://www.w3.org/1999/xlink" width="254" height="202"><defs><clipPath id="pprCmZhipkst"><path fill="none" stroke="none" d=" M 0 0 L 254 0 L 254 202 L 0 202 L 0 0 Z"/></clipPath></defs><g transform="scale(1,1)" clip-path="url(#pprCmZhipkst)"><g transform="translate(-188,-333)"><rect fill="rgb(255,255,255)" stroke="none" x="0" y="0" width="1144" height="932" fill-opacity="1"/><path fill="rgb(21,101,192)" stroke="none" paint-order="stroke fill markers" fill-rule="evenodd" d=" M 204.33549593745576 388.9243892749454 L 215.27566274681095 430.55604078147576 L 315.7833604378666 404.14414169570637 L 304.8431936285114 362.512490189176 Z" fill-opacity="0.09803921568627451"/><path fill="rgb(21,101,192)" stroke="none" paint-order="stroke fill markers" fill-rule="evenodd" d=" M 262.7597068429575 457.658755046124 L 263.4598647952151 523.6648138418705 L 422.8125871387017 521.9744830177268 L 422.11242918644416 455.96842422198034 Z" fill-opacity="0.09803921568627451"/><path fill="none" stroke="rgb(97,97,97)" paint-order="fill stroke markers" d=" M 739.3671980072533 937 L -5 97.65419809271052" stroke-opacity="0.8" stroke-linecap="round" stroke-linejoin="round" stroke-miterlimit="10" stroke-width="2.5"/><path fill="none" stroke="rgb(97,97,97)" paint-order="fill stroke markers" d=" M 204.33549593745576 388.9243892749454 L 315.7833604378666 404.14414169570637" stroke-opacity="0.8" stroke-linecap="round" stroke-linejoin="round" stroke-miterlimit="10" stroke-width="2.5"/><path fill="none" stroke="rgb(97,97,97)" paint-order="fill stroke markers" d=" M 215.27566274681095 430.55604078147576 L 304.8431936285114 362.512490189176" stroke-opacity="0.8" stroke-linecap="round" stroke-linejoin="round" stroke-miterlimit="10" stroke-width="2.5"/><path fill="none" stroke="rgb(21,101,192)" paint-order="fill stroke markers" d=" M 204.33549593745576 388.9243892749454 L 215.27566274681095 430.55604078147576" stroke-opacity="0.8" stroke-linecap="round" stroke-linejoin="round" stroke-miterlimit="10" stroke-width="2.5"/><path fill="none" stroke="rgb(21,101,192)" paint-order="fill stroke markers" d=" M 215.27566274681095 430.55604078147576 L 315.7833604378666 404.14414169570637" stroke-opacity="0.8" stroke-linecap="round" stroke-linejoin="round" stroke-miterlimit="10" stroke-width="2.5"/><path fill="none" stroke="rgb(21,101,192)" paint-order="fill stroke markers" d=" M 315.7833604378666 404.14414169570637 L 304.8431936285114 362.512490189176" stroke-opacity="0.8" stroke-linecap="round" stroke-linejoin="round" stroke-miterlimit="10" stroke-width="2.5"/><path fill="none" stroke="rgb(21,101,192)" paint-order="fill stroke markers" d=" M 304.8431936285114 362.512490189176 L 204.33549593745576 388.9243892749454" stroke-opacity="0.8" stroke-linecap="round" stroke-linejoin="round" stroke-miterlimit="10" stroke-width="2.5"/><path fill="none" stroke="rgb(97,97,97)" paint-order="fill stroke markers" d=" M 262.7597068429575 457.658755046124 L 422.8125871387017 521.9744830177268" stroke-opacity="0.8" stroke-linecap="round" stroke-linejoin="round" stroke-miterlimit="10" stroke-width="2.5"/><path fill="none" stroke="rgb(97,97,97)" paint-order="fill stroke markers" d=" M 263.4598647952151 523.6648138418705 L 422.11242918644416 455.96842422198034" stroke-opacity="0.8" stroke-linecap="round" stroke-linejoin="round" stroke-miterlimit="10" stroke-width="2.5"/><path fill="none" stroke="rgb(21,101,192)" paint-order="fill stroke markers" d=" M 262.7597068429575 457.658755046124 L 263.4598647952151 523.6648138418705" stroke-opacity="0.8" stroke-linecap="round" stroke-linejoin="round" stroke-miterlimit="10" stroke-width="2.5"/><path fill="none" stroke="rgb(21,101,192)" paint-order="fill stroke markers" d=" M 263.4598647952151 523.6648138418705 L 422.8125871387017 521.9744830177268" stroke-opacity="0.8" stroke-linecap="round" stroke-linejoin="round" stroke-miterlimit="10" stroke-width="2.5"/><path fill="none" stroke="rgb(21,101,192)" paint-order="fill stroke markers" d=" M 422.8125871387017 521.9744830177268 L 422.11242918644416 455.96842422198034" stroke-opacity="0.8" stroke-linecap="round" stroke-linejoin="round" stroke-miterlimit="10" stroke-width="2.5"/><path fill="none" stroke="rgb(21,101,192)" paint-order="fill stroke markers" d=" M 422.11242918644416 455.96842422198034 L 262.7597068429575 457.658755046124" stroke-opacity="0.8" stroke-linecap="round" stroke-linejoin="round" stroke-miterlimit="10" stroke-width="2.5"/><path fill="rgb(21,101,192)" stroke="none" paint-order="stroke fill markers" d=" M 209.33549593745576 388.9243892749454 C 209.33549593745576 391.68581302409933 207.09691968660974 393.9243892749454 204.33549593745576 393.9243892749454 C 201.57407218830178 393.9243892749454 199.33549593745576 391.68581302409933 199.33549593745576 388.9243892749454 C 199.33549593745576 386.16296552579144 201.57407218830178 383.9243892749454 204.33549593745576 383.9243892749454 C 207.09691968660974 383.9243892749454 209.33549593745576 386.16296552579144 209.33549593745576 388.9243892749454 Z" fill-opacity="1"/><path fill="none" stroke="rgb(0,0,0)" paint-order="fill stroke markers" d=" M 209.33549593745576 388.9243892749454 C 209.33549593745576 391.68581302409933 207.09691968660974 393.9243892749454 204.33549593745576 393.9243892749454 C 201.57407218830178 393.9243892749454 199.33549593745576 391.68581302409933 199.33549593745576 388.9243892749454 C 199.33549593745576 386.16296552579144 201.57407218830178 383.9243892749454 204.33549593745576 383.9243892749454 C 207.09691968660974 383.9243892749454 209.33549593745576 386.16296552579144 209.33549593745576 388.9243892749454 Z" stroke-opacity="1" stroke-linecap="round" stroke-linejoin="round" stroke-miterlimit="10"/><text fill="rgb(21,101,192)" stroke="none" font-family="geogebra-sans-serif, sans-serif" font-size="16px" font-style="normal" font-weight="normal" text-decoration="normal" x="208" y="379" text-anchor="start" dominant-baseline="alphabetic" fill-opacity="1">A</text><text fill="none" stroke="rgb(255,255,255)" font-family="geogebra-sans-serif, sans-serif" font-size="16px" font-style="normal" font-weight="normal" text-decoration="normal" x="208" y="379" text-anchor="start" dominant-baseline="alphabetic" stroke-opacity="1" stroke-linejoin="bevel" stroke-miterlimit="10" stroke-width="3">A</text><text fill="rgb(21,101,192)" stroke="none" font-family="geogebra-sans-serif, sans-serif" font-size="16px" font-style="normal" font-weight="normal" text-decoration="normal" x="208" y="379" text-anchor="start" dominant-baseline="alphabetic" fill-opacity="1">A</text><path fill="rgb(21,101,192)" stroke="none" paint-order="stroke fill markers" d=" M 320.7833604378666 404.14414169570637 C 320.7833604378666 406.9055654448603 318.5447841870205 409.14414169570637 315.7833604378666 409.14414169570637 C 313.02193668871263 409.14414169570637 310.7833604378666 406.9055654448603 310.7833604378666 404.14414169570637 C 310.7833604378666 401.3827179465524 313.02193668871263 399.14414169570637 315.7833604378666 399.14414169570637 C 318.5447841870205 399.14414169570637 320.7833604378666 401.3827179465524 320.7833604378666 404.14414169570637 Z" fill-opacity="1"/><path fill="none" stroke="rgb(0,0,0)" paint-order="fill stroke markers" d=" M 320.7833604378666 404.14414169570637 C 320.7833604378666 406.9055654448603 318.5447841870205 409.14414169570637 315.7833604378666 409.14414169570637 C 313.02193668871263 409.14414169570637 310.7833604378666 406.9055654448603 310.7833604378666 404.14414169570637 C 310.7833604378666 401.3827179465524 313.02193668871263 399.14414169570637 315.7833604378666 399.14414169570637 C 318.5447841870205 399.14414169570637 320.7833604378666 401.3827179465524 320.7833604378666 404.14414169570637 Z" stroke-opacity="1" stroke-linecap="round" stroke-linejoin="round" stroke-miterlimit="10"/><text fill="rgb(21,101,192)" stroke="none" font-family="geogebra-sans-serif, sans-serif" font-size="16px" font-style="normal" font-weight="normal" text-decoration="normal" x="320" y="394" text-anchor="start" dominant-baseline="alphabetic" fill-opacity="1">C</text><text fill="none" stroke="rgb(255,255,255)" font-family="geogebra-sans-serif, sans-serif" font-size="16px" font-style="normal" font-weight="normal" text-decoration="normal" x="320" y="394" text-anchor="start" dominant-baseline="alphabetic" stroke-opacity="1" stroke-linejoin="bevel" stroke-miterlimit="10" stroke-width="3">C</text><text fill="rgb(21,101,192)" stroke="none" font-family="geogebra-sans-serif, sans-serif" font-size="16px" font-style="normal" font-weight="normal" text-decoration="normal" x="320" y="394" text-anchor="start" dominant-baseline="alphabetic" fill-opacity="1">C</text><path fill="rgb(97,97,97)" stroke="none" paint-order="stroke fill markers" d=" M 264.0594281876612 396.5342654853258 C 264.0594281876612 398.743404484649 262.26856718698434 400.5342654853258 260.0594281876612 400.5342654853258 C 257.850289188338 400.5342654853258 256.0594281876612 398.743404484649 256.0594281876612 396.5342654853258 C 256.0594281876612 394.32512648600266 257.850289188338 392.5342654853258 260.0594281876612 392.5342654853258 C 262.26856718698434 392.5342654853258 264.0594281876612 394.32512648600266 264.0594281876612 396.5342654853258 Z" fill-opacity="1"/><path fill="none" stroke="rgb(0,0,0)" paint-order="fill stroke markers" d=" M 264.0594281876612 396.5342654853258 C 264.0594281876612 398.743404484649 262.26856718698434 400.5342654853258 260.0594281876612 400.5342654853258 C 257.850289188338 400.5342654853258 256.0594281876612 398.743404484649 256.0594281876612 396.5342654853258 C 256.0594281876612 394.32512648600266 257.850289188338 392.5342654853258 260.0594281876612 392.5342654853258 C 262.26856718698434 392.5342654853258 264.0594281876612 394.32512648600266 264.0594281876612 396.5342654853258 Z" stroke-opacity="1" stroke-linecap="round" stroke-linejoin="round" stroke-miterlimit="10"/><text fill="rgb(97,97,97)" stroke="none" font-family="geogebra-sans-serif, sans-serif" font-size="16px" font-style="normal" font-weight="normal" text-decoration="normal" x="264" y="389" text-anchor="start" dominant-baseline="alphabetic" fill-opacity="1">I</text><text fill="none" stroke="rgb(255,255,255)" font-family="geogebra-sans-serif, sans-serif" font-size="16px" font-style="normal" font-weight="normal" text-decoration="normal" x="264" y="389" text-anchor="start" dominant-baseline="alphabetic" stroke-opacity="1" stroke-linejoin="bevel" stroke-miterlimit="10" stroke-width="3">I</text><text fill="rgb(97,97,97)" stroke="none" font-family="geogebra-sans-serif, sans-serif" font-size="16px" font-style="normal" font-weight="normal" text-decoration="normal" x="264" y="389" text-anchor="start" dominant-baseline="alphabetic" fill-opacity="1">I</text><path fill="rgb(21,101,192)" stroke="none" paint-order="stroke fill markers" d=" M 220.27566274681095 430.55604078147576 C 220.27566274681095 433.3174645306297 218.03708649596493 435.55604078147576 215.27566274681095 435.55604078147576 C 212.51423899765697 435.55604078147576 210.27566274681095 433.3174645306297 210.27566274681095 430.55604078147576 C 210.27566274681095 427.7946170323218 212.51423899765697 425.55604078147576 215.27566274681095 425.55604078147576 C 218.03708649596493 425.55604078147576 220.27566274681095 427.7946170323218 220.27566274681095 430.55604078147576 Z" fill-opacity="1"/><path fill="none" stroke="rgb(0,0,0)" paint-order="fill stroke markers" d=" M 220.27566274681095 430.55604078147576 C 220.27566274681095 433.3174645306297 218.03708649596493 435.55604078147576 215.27566274681095 435.55604078147576 C 212.51423899765697 435.55604078147576 210.27566274681095 433.3174645306297 210.27566274681095 430.55604078147576 C 210.27566274681095 427.7946170323218 212.51423899765697 425.55604078147576 215.27566274681095 425.55604078147576 C 218.03708649596493 425.55604078147576 220.27566274681095 427.7946170323218 220.27566274681095 430.55604078147576 Z" stroke-opacity="1" stroke-linecap="round" stroke-linejoin="round" stroke-miterlimit="10"/><text fill="rgb(21,101,192)" stroke="none" font-family="geogebra-sans-serif, sans-serif" font-size="16px" font-style="normal" font-weight="normal" text-decoration="normal" x="219" y="421" text-anchor="start" dominant-baseline="alphabetic" fill-opacity="1">B</text><text fill="none" stroke="rgb(255,255,255)" font-family="geogebra-sans-serif, sans-serif" font-size="16px" font-style="normal" font-weight="normal" text-decoration="normal" x="219" y="421" text-anchor="start" dominant-baseline="alphabetic" stroke-opacity="1" stroke-linejoin="bevel" stroke-miterlimit="10" stroke-width="3">B</text><text fill="rgb(21,101,192)" stroke="none" font-family="geogebra-sans-serif, sans-serif" font-size="16px" font-style="normal" font-weight="normal" text-decoration="normal" x="219" y="421" text-anchor="start" dominant-baseline="alphabetic" fill-opacity="1">B</text><path fill="rgb(21,101,192)" stroke="none" paint-order="stroke fill markers" d=" M 309.8431936285114 362.512490189176 C 309.8431936285114 365.27391393832994 307.60461737766536 367.512490189176 304.8431936285114 367.512490189176 C 302.08176987935747 367.512490189176 299.8431936285114 365.27391393832994 299.8431936285114 362.512490189176 C 299.8431936285114 359.75106644002204 302.08176987935747 357.512490189176 304.8431936285114 357.512490189176 C 307.60461737766536 357.512490189176 309.8431936285114 359.75106644002204 309.8431936285114 362.512490189176 Z" fill-opacity="1"/><path fill="none" stroke="rgb(0,0,0)" paint-order="fill stroke markers" d=" M 309.8431936285114 362.512490189176 C 309.8431936285114 365.27391393832994 307.60461737766536 367.512490189176 304.8431936285114 367.512490189176 C 302.08176987935747 367.512490189176 299.8431936285114 365.27391393832994 299.8431936285114 362.512490189176 C 299.8431936285114 359.75106644002204 302.08176987935747 357.512490189176 304.8431936285114 357.512490189176 C 307.60461737766536 357.512490189176 309.8431936285114 359.75106644002204 309.8431936285114 362.512490189176 Z" stroke-opacity="1" stroke-linecap="round" stroke-linejoin="round" stroke-miterlimit="10"/><text fill="rgb(21,101,192)" stroke="none" font-family="geogebra-sans-serif, sans-serif" font-size="16px" font-style="normal" font-weight="normal" text-decoration="normal" x="309" y="353" text-anchor="start" dominant-baseline="alphabetic" fill-opacity="1">D</text><text fill="none" stroke="rgb(255,255,255)" font-family="geogebra-sans-serif, sans-serif" font-size="16px" font-style="normal" font-weight="normal" text-decoration="normal" x="309" y="353" text-anchor="start" dominant-baseline="alphabetic" stroke-opacity="1" stroke-linejoin="bevel" stroke-miterlimit="10" stroke-width="3">D</text><text fill="rgb(21,101,192)" stroke="none" font-family="geogebra-sans-serif, sans-serif" font-size="16px" font-style="normal" font-weight="normal" text-decoration="normal" x="309" y="353" text-anchor="start" dominant-baseline="alphabetic" fill-opacity="1">D</text><path fill="rgb(21,101,192)" stroke="none" paint-order="stroke fill markers" d=" M 267.7597068429575 457.658755046124 C 267.7597068429575 460.42017879527793 265.52113059211143 462.658755046124 262.7597068429575 462.658755046124 C 259.99828309380354 462.658755046124 257.7597068429575 460.42017879527793 257.7597068429575 457.658755046124 C 257.7597068429575 454.89733129697004 259.99828309380354 452.658755046124 262.7597068429575 452.658755046124 C 265.52113059211143 452.658755046124 267.7597068429575 454.89733129697004 267.7597068429575 457.658755046124 Z" fill-opacity="1"/><path fill="none" stroke="rgb(0,0,0)" paint-order="fill stroke markers" d=" M 267.7597068429575 457.658755046124 C 267.7597068429575 460.42017879527793 265.52113059211143 462.658755046124 262.7597068429575 462.658755046124 C 259.99828309380354 462.658755046124 257.7597068429575 460.42017879527793 257.7597068429575 457.658755046124 C 257.7597068429575 454.89733129697004 259.99828309380354 452.658755046124 262.7597068429575 452.658755046124 C 265.52113059211143 452.658755046124 267.7597068429575 454.89733129697004 267.7597068429575 457.658755046124 Z" stroke-opacity="1" stroke-linecap="round" stroke-linejoin="round" stroke-miterlimit="10"/><text fill="rgb(21,101,192)" stroke="none" font-family="geogebra-sans-serif, sans-serif" font-size="16px" font-style="normal" font-weight="normal" text-decoration="normal" x="267" y="448" text-anchor="start" dominant-baseline="alphabetic" fill-opacity="1">E</text><text fill="none" stroke="rgb(255,255,255)" font-family="geogebra-sans-serif, sans-serif" font-size="16px" font-style="normal" font-weight="normal" text-decoration="normal" x="267" y="448" text-anchor="start" dominant-baseline="alphabetic" stroke-opacity="1" stroke-linejoin="bevel" stroke-miterlimit="10" stroke-width="3">E</text><text fill="rgb(21,101,192)" stroke="none" font-family="geogebra-sans-serif, sans-serif" font-size="16px" font-style="normal" font-weight="normal" text-decoration="normal" x="267" y="448" text-anchor="start" dominant-baseline="alphabetic" fill-opacity="1">E</text><path fill="rgb(21,101,192)" stroke="none" paint-order="stroke fill markers" d=" M 427.8125871387017 521.9744830177268 C 427.8125871387017 524.7359067668808 425.57401088785565 526.9744830177268 422.8125871387017 526.9744830177268 C 420.05116338954775 526.9744830177268 417.8125871387017 524.7359067668808 417.8125871387017 521.9744830177268 C 417.8125871387017 519.2130592685728 420.05116338954775 516.9744830177268 422.8125871387017 516.9744830177268 C 425.57401088785565 516.9744830177268 427.8125871387017 519.2130592685728 427.8125871387017 521.9744830177268 Z" fill-opacity="1"/><path fill="none" stroke="rgb(0,0,0)" paint-order="fill stroke markers" d=" M 427.8125871387017 521.9744830177268 C 427.8125871387017 524.7359067668808 425.57401088785565 526.9744830177268 422.8125871387017 526.9744830177268 C 420.05116338954775 526.9744830177268 417.8125871387017 524.7359067668808 417.8125871387017 521.9744830177268 C 417.8125871387017 519.2130592685728 420.05116338954775 516.9744830177268 422.8125871387017 516.9744830177268 C 425.57401088785565 516.9744830177268 427.8125871387017 519.2130592685728 427.8125871387017 521.9744830177268 Z" stroke-opacity="1" stroke-linecap="round" stroke-linejoin="round" stroke-miterlimit="10"/><text fill="rgb(21,101,192)" stroke="none" font-family="geogebra-sans-serif, sans-serif" font-size="16px" font-style="normal" font-weight="normal" text-decoration="normal" x="427" y="512" text-anchor="start" dominant-baseline="alphabetic" fill-opacity="1">G</text><text fill="none" stroke="rgb(255,255,255)" font-family="geogebra-sans-serif, sans-serif" font-size="16px" font-style="normal" font-weight="normal" text-decoration="normal" x="427" y="512" text-anchor="start" dominant-baseline="alphabetic" stroke-opacity="1" stroke-linejoin="bevel" stroke-miterlimit="10" stroke-width="3">G</text><text fill="rgb(21,101,192)" stroke="none" font-family="geogebra-sans-serif, sans-serif" font-size="16px" font-style="normal" font-weight="normal" text-decoration="normal" x="427" y="512" text-anchor="start" dominant-baseline="alphabetic" fill-opacity="1">G</text><path fill="rgb(97,97,97)" stroke="none" paint-order="stroke fill markers" d=" M 346.7861469908296 489.81661903192537 C 346.7861469908296 492.02575803124853 344.99528599015275 493.81661903192537 342.7861469908296 493.81661903192537 C 340.57700799150643 493.81661903192537 338.7861469908296 492.02575803124853 338.7861469908296 489.81661903192537 C 338.7861469908296 487.6074800326022 340.57700799150643 485.81661903192537 342.7861469908296 485.81661903192537 C 344.99528599015275 485.81661903192537 346.7861469908296 487.6074800326022 346.7861469908296 489.81661903192537 Z" fill-opacity="1"/><path fill="none" stroke="rgb(0,0,0)" paint-order="fill stroke markers" d=" M 346.7861469908296 489.81661903192537 C 346.7861469908296 492.02575803124853 344.99528599015275 493.81661903192537 342.7861469908296 493.81661903192537 C 340.57700799150643 493.81661903192537 338.7861469908296 492.02575803124853 338.7861469908296 489.81661903192537 C 338.7861469908296 487.6074800326022 340.57700799150643 485.81661903192537 342.7861469908296 485.81661903192537 C 344.99528599015275 485.81661903192537 346.7861469908296 487.6074800326022 346.7861469908296 489.81661903192537 Z" stroke-opacity="1" stroke-linecap="round" stroke-linejoin="round" stroke-miterlimit="10"/><text fill="rgb(97,97,97)" stroke="none" font-family="geogebra-sans-serif, sans-serif" font-size="16px" font-style="normal" font-weight="normal" text-decoration="normal" x="347" y="482" text-anchor="start" dominant-baseline="alphabetic" fill-opacity="1">J</text><text fill="none" stroke="rgb(255,255,255)" font-family="geogebra-sans-serif, sans-serif" font-size="16px" font-style="normal" font-weight="normal" text-decoration="normal" x="347" y="482" text-anchor="start" dominant-baseline="alphabetic" stroke-opacity="1" stroke-linejoin="bevel" stroke-miterlimit="10" stroke-width="3">J</text><text fill="rgb(97,97,97)" stroke="none" font-family="geogebra-sans-serif, sans-serif" font-size="16px" font-style="normal" font-weight="normal" text-decoration="normal" x="347" y="482" text-anchor="start" dominant-baseline="alphabetic" fill-opacity="1">J</text><path fill="rgb(21,101,192)" stroke="none" paint-order="stroke fill markers" d=" M 268.4598647952151 523.6648138418705 C 268.4598647952151 526.4262375910245 266.22128854436903 528.6648138418705 263.4598647952151 528.6648138418705 C 260.69844104606113 528.6648138418705 258.4598647952151 526.4262375910245 258.4598647952151 523.6648138418705 C 258.4598647952151 520.9033900927164 260.69844104606113 518.6648138418705 263.4598647952151 518.6648138418705 C 266.22128854436903 518.6648138418705 268.4598647952151 520.9033900927164 268.4598647952151 523.6648138418705 Z" fill-opacity="1"/><path fill="none" stroke="rgb(0,0,0)" paint-order="fill stroke markers" d=" M 268.4598647952151 523.6648138418705 C 268.4598647952151 526.4262375910245 266.22128854436903 528.6648138418705 263.4598647952151 528.6648138418705 C 260.69844104606113 528.6648138418705 258.4598647952151 526.4262375910245 258.4598647952151 523.6648138418705 C 258.4598647952151 520.9033900927164 260.69844104606113 518.6648138418705 263.4598647952151 518.6648138418705 C 266.22128854436903 518.6648138418705 268.4598647952151 520.9033900927164 268.4598647952151 523.6648138418705 Z" stroke-opacity="1" stroke-linecap="round" stroke-linejoin="round" stroke-miterlimit="10"/><text fill="rgb(21,101,192)" stroke="none" font-family="geogebra-sans-serif, sans-serif" font-size="16px" font-style="normal" font-weight="normal" text-decoration="normal" x="267" y="514" text-anchor="start" dominant-baseline="alphabetic" fill-opacity="1">F</text><text fill="none" stroke="rgb(255,255,255)" font-family="geogebra-sans-serif, sans-serif" font-size="16px" font-style="normal" font-weight="normal" text-decoration="normal" x="267" y="514" text-anchor="start" dominant-baseline="alphabetic" stroke-opacity="1" stroke-linejoin="bevel" stroke-miterlimit="10" stroke-width="3">F</text><text fill="rgb(21,101,192)" stroke="none" font-family="geogebra-sans-serif, sans-serif" font-size="16px" font-style="normal" font-weight="normal" text-decoration="normal" x="267" y="514" text-anchor="start" dominant-baseline="alphabetic" fill-opacity="1">F</text><path fill="rgb(21,101,192)" stroke="none" paint-order="stroke fill markers" d=" M 427.11242918644416 455.96842422198034 C 427.11242918644416 458.7298479711343 424.8738529355981 460.96842422198034 422.11242918644416 460.96842422198034 C 419.3510054372902 460.96842422198034 417.11242918644416 458.7298479711343 417.11242918644416 455.96842422198034 C 417.11242918644416 453.2070004728264 419.3510054372902 450.96842422198034 422.11242918644416 450.96842422198034 C 424.8738529355981 450.96842422198034 427.11242918644416 453.2070004728264 427.11242918644416 455.96842422198034 Z" fill-opacity="1"/><path fill="none" stroke="rgb(0,0,0)" paint-order="fill stroke markers" d=" M 427.11242918644416 455.96842422198034 C 427.11242918644416 458.7298479711343 424.8738529355981 460.96842422198034 422.11242918644416 460.96842422198034 C 419.3510054372902 460.96842422198034 417.11242918644416 458.7298479711343 417.11242918644416 455.96842422198034 C 417.11242918644416 453.2070004728264 419.3510054372902 450.96842422198034 422.11242918644416 450.96842422198034 C 424.8738529355981 450.96842422198034 427.11242918644416 453.2070004728264 427.11242918644416 455.96842422198034 Z" stroke-opacity="1" stroke-linecap="round" stroke-linejoin="round" stroke-miterlimit="10"/><text fill="rgb(21,101,192)" stroke="none" font-family="geogebra-sans-serif, sans-serif" font-size="16px" font-style="normal" font-weight="normal" text-decoration="normal" x="426" y="446" text-anchor="start" dominant-baseline="alphabetic" fill-opacity="1">H</text><text fill="none" stroke="rgb(255,255,255)" font-family="geogebra-sans-serif, sans-serif" font-size="16px" font-style="normal" font-weight="normal" text-decoration="normal" x="426" y="446" text-anchor="start" dominant-baseline="alphabetic" stroke-opacity="1" stroke-linejoin="bevel" stroke-miterlimit="10" stroke-width="3">H</text><text fill="rgb(21,101,192)" stroke="none" font-family="geogebra-sans-serif, sans-serif" font-size="16px" font-style="normal" font-weight="normal" text-decoration="normal" x="426" y="446" text-anchor="start" dominant-baseline="alphabetic" fill-opacity="1">H</text></g></g></svg>