<svg version="1.1" xmlns="http://www.w3.org/2000/svg" xmlns:xlink="http://www.w3.org/1999/xlink" width="178" height="148"><defs><clipPath id="IlynUFOukVaW"><path fill="none" stroke="none" d=" M 0 0 L 178 0 L 178 148 L 0 148 L 0 0 Z"/></clipPath></defs><g transform="scale(1,1)" clip-path="url(#IlynUFOukVaW)"><g transform="translate(-92,-367)"><rect fill="rgb(255,255,255)" stroke="none" x="0" y="0" width="1144" height="932" fill-opacity="1"/><path fill="none" stroke="rgb(97,97,97)" paint-order="fill stroke markers" d=" M 260.7684918009893 441.31119712493347 C 260.7684918009893 467.68000465689164 239.39234975750298 489.0561467003779 213.02354222554484 489.0561467003779 C 186.65473469358668 489.0561467003779 165.27859265010042 467.68000465689164 165.27859265010042 441.31119712493347 C 165.27859265010042 414.9423895929753 186.65473469358668 393.56624754948905 213.02354222554484 393.56624754948905 C 239.39234975750298 393.56624754948905 260.7684918009893 414.9423895929753 260.7684918009893 441.31119712493347 Z" stroke-opacity="0.8" stroke-linecap="round" stroke-linejoin="round" stroke-miterlimit="10" stroke-width="2.5"/><path fill="none" stroke="rgb(97,97,97)" paint-order="fill stroke markers" d=" M 232.80014787451347 441.31119712493347 C 232.80014787451347 478.60232236023455 202.56971788540147 508.8327523493465 165.27859265010042 508.8327523493465 C 127.98746741479937 508.8327523493465 97.75703742568739 478.60232236023455 97.75703742568739 441.31119712493347 C 97.75703742568739 404.02007188963245 127.98746741479937 373.78964190052045 165.27859265010042 373.78964190052045 C 202.56971788540147 373.78964190052045 232.80014787451347 404.02007188963245 232.80014787451347 441.31119712493347 Z" stroke-opacity="0.8" stroke-linecap="round" stroke-linejoin="round" stroke-miterlimit="10" stroke-width="2.5"/><path fill="none" stroke="rgb(97,97,97)" paint-order="fill stroke markers" d=" M 213.02354222554484 937 L 213.02354222554484 -5" stroke-opacity="0.8" stroke-linecap="round" stroke-linejoin="round" stroke-miterlimit="10" stroke-width="2.5"/><path fill="none" stroke="rgb(97,97,97)" paint-order="fill stroke markers" d=" M 165.27859265010042 441.31119712493347 L 1144 441.31119712493347" stroke-opacity="0.8" stroke-linecap="round" stroke-linejoin="round" stroke-miterlimit="10" stroke-width="2.5"/><path fill="rgb(21,101,192)" stroke="none" paint-order="stroke fill markers" d=" M 170.27859265010042 441.31119712493347 C 170.27859265010042 444.0726208740874 168.0400163992544 446.31119712493347 165.27859265010042 446.31119712493347 C 162.51716890094644 446.31119712493347 160.27859265010042 444.0726208740874 160.27859265010042 441.31119712493347 C 160.27859265010042 438.5497733757795 162.51716890094644 436.31119712493347 165.27859265010042 436.31119712493347 C 168.0400163992544 436.31119712493347 170.27859265010042 438.5497733757795 170.27859265010042 441.31119712493347 Z" fill-opacity="1"/><path fill="none" stroke="rgb(0,0,0)" paint-order="fill stroke markers" d=" M 170.27859265010042 441.31119712493347 C 170.27859265010042 444.0726208740874 168.0400163992544 446.31119712493347 165.27859265010042 446.31119712493347 C 162.51716890094644 446.31119712493347 160.27859265010042 444.0726208740874 160.27859265010042 441.31119712493347 C 160.27859265010042 438.5497733757795 162.51716890094644 436.31119712493347 165.27859265010042 436.31119712493347 C 168.0400163992544 436.31119712493347 170.27859265010042 438.5497733757795 170.27859265010042 441.31119712493347 Z" stroke-opacity="1" stroke-linecap="round" stroke-linejoin="round" stroke-miterlimit="10"/><text fill="rgb(21,101,192)" stroke="none" font-family="geogebra-sans-serif, sans-serif" font-size="16px" font-style="normal" font-weight="normal" text-decoration="normal" x="169" y="431" text-anchor="start" dominant-baseline="alphabetic" fill-opacity="1">A</text><text fill="none" stroke="rgb(255,255,255)" font-family="geogebra-sans-serif, sans-serif" font-size="16px" font-style="normal" font-weight="normal" text-decoration="normal" x="169" y="431" text-anchor="start" dominant-baseline="alphabetic" stroke-opacity="1" stroke-linejoin="bevel" stroke-miterlimit="10" stroke-width="3">A</text><text fill="rgb(21,101,192)" stroke="none" font-family="geogebra-sans-serif, sans-serif" font-size="16px" font-style="normal" font-weight="normal" text-decoration="normal" x="169" y="431" text-anchor="start" dominant-baseline="alphabetic" fill-opacity="1">A</text><path fill="rgb(21,101,192)" stroke="none" paint-order="stroke fill markers" d=" M 218.02354222554484 441.31119712493347 C 218.02354222554484 444.0726208740874 215.78496597469882 446.31119712493347 213.02354222554484 446.31119712493347 C 210.26211847639087 446.31119712493347 208.02354222554484 444.0726208740874 208.02354222554484 441.31119712493347 C 208.02354222554484 438.5497733757795 210.26211847639087 436.31119712493347 213.02354222554484 436.31119712493347 C 215.78496597469882 436.31119712493347 218.02354222554484 438.5497733757795 218.02354222554484 441.31119712493347 Z" fill-opacity="1"/><path fill="none" stroke="rgb(0,0,0)" paint-order="fill stroke markers" d=" M 218.02354222554484 441.31119712493347 C 218.02354222554484 444.0726208740874 215.78496597469882 446.31119712493347 213.02354222554484 446.31119712493347 C 210.26211847639087 446.31119712493347 208.02354222554484 444.0726208740874 208.02354222554484 441.31119712493347 C 208.02354222554484 438.5497733757795 210.26211847639087 436.31119712493347 213.02354222554484 436.31119712493347 C 215.78496597469882 436.31119712493347 218.02354222554484 438.5497733757795 218.02354222554484 441.31119712493347 Z" stroke-opacity="1" stroke-linecap="round" stroke-linejoin="round" stroke-miterlimit="10"/><text fill="rgb(21,101,192)" stroke="none" font-family="geogebra-sans-serif, sans-serif" font-size="16px" font-style="normal" font-weight="normal" text-decoration="normal" x="217" y="431" text-anchor="start" dominant-baseline="alphabetic" fill-opacity="1">B</text><text fill="none" stroke="rgb(255,255,255)" font-family="geogebra-sans-serif, sans-serif" font-size="16px" font-style="normal" font-weight="normal" text-decoration="normal" x="217" y="431" text-anchor="start" dominant-baseline="alphabetic" stroke-opacity="1" stroke-linejoin="bevel" stroke-miterlimit="10" stroke-width="3">B</text><text fill="rgb(21,101,192)" stroke="none" font-family="geogebra-sans-serif, sans-serif" font-size="16px" font-style="normal" font-weight="normal" text-decoration="normal" x="217" y="431" text-anchor="start" dominant-baseline="alphabetic" fill-opacity="1">B</text><path fill="rgb(97,97,97)" stroke="none" paint-order="stroke fill markers" d=" M 217.02354222554484 393.5662475494891 C 217.02354222554484 395.77538654881226 215.23268122486803 397.5662475494891 213.02354222554484 397.5662475494891 C 210.81440322622166 397.5662475494891 209.02354222554484 395.77538654881226 209.02354222554484 393.5662475494891 C 209.02354222554484 391.35710855016595 210.81440322622166 389.5662475494891 213.02354222554484 389.5662475494891 C 215.23268122486803 389.5662475494891 217.02354222554484 391.35710855016595 217.02354222554484 393.5662475494891 Z" fill-opacity="1"/><path fill="none" stroke="rgb(0,0,0)" paint-order="fill stroke markers" d=" M 217.02354222554484 393.5662475494891 C 217.02354222554484 395.77538654881226 215.23268122486803 397.5662475494891 213.02354222554484 397.5662475494891 C 210.81440322622166 397.5662475494891 209.02354222554484 395.77538654881226 209.02354222554484 393.5662475494891 C 209.02354222554484 391.35710855016595 210.81440322622166 389.5662475494891 213.02354222554484 389.5662475494891 C 215.23268122486803 389.5662475494891 217.02354222554484 391.35710855016595 217.02354222554484 393.5662475494891 Z" stroke-opacity="1" stroke-linecap="round" stroke-linejoin="round" stroke-miterlimit="10"/><text fill="rgb(97,97,97)" stroke="none" font-family="geogebra-sans-serif, sans-serif" font-size="16px" font-style="normal" font-weight="normal" text-decoration="normal" x="217" y="386" text-anchor="start" dominant-baseline="alphabetic" fill-opacity="1">C</text><text fill="none" stroke="rgb(255,255,255)" font-family="geogebra-sans-serif, sans-serif" font-size="16px" font-style="normal" font-weight="normal" text-decoration="normal" x="217" y="386" text-anchor="start" dominant-baseline="alphabetic" stroke-opacity="1" stroke-linejoin="bevel" stroke-miterlimit="10" stroke-width="3">C</text><text fill="rgb(97,97,97)" stroke="none" font-family="geogebra-sans-serif, sans-serif" font-size="16px" font-style="normal" font-weight="normal" text-decoration="normal" x="217" y="386" text-anchor="start" dominant-baseline="alphabetic" fill-opacity="1">C</text><path fill="rgb(97,97,97)" stroke="none" paint-order="stroke fill markers" d=" M 236.80014787451347 441.31119712493347 C 236.80014787451347 443.52033612425663 235.00928687383663 445.31119712493347 232.80014787451347 445.31119712493347 C 230.59100887519028 445.31119712493347 228.80014787451347 443.52033612425663 228.80014787451347 441.31119712493347 C 228.80014787451347 439.1020581256103 230.59100887519028 437.31119712493347 232.80014787451347 437.31119712493347 C 235.00928687383663 437.31119712493347 236.80014787451347 439.1020581256103 236.80014787451347 441.31119712493347 Z" fill-opacity="1"/><path fill="none" stroke="rgb(0,0,0)" paint-order="fill stroke markers" d=" M 236.80014787451347 441.31119712493347 C 236.80014787451347 443.52033612425663 235.00928687383663 445.31119712493347 232.80014787451347 445.31119712493347 C 230.59100887519028 445.31119712493347 228.80014787451347 443.52033612425663 228.80014787451347 441.31119712493347 C 228.80014787451347 439.1020581256103 230.59100887519028 437.31119712493347 232.80014787451347 437.31119712493347 C 235.00928687383663 437.31119712493347 236.80014787451347 439.1020581256103 236.80014787451347 441.31119712493347 Z" stroke-opacity="1" stroke-linecap="round" stroke-linejoin="round" stroke-miterlimit="10"/><text fill="rgb(97,97,97)" stroke="none" font-family="geogebra-sans-serif, sans-serif" font-size="16px" font-style="normal" font-weight="normal" text-decoration="normal" x="237" y="433" text-anchor="start" dominant-baseline="alphabetic" fill-opacity="1">D</text><text fill="none" stroke="rgb(255,255,255)" font-family="geogebra-sans-serif, sans-serif" font-size="16px" font-style="normal" font-weight="normal" text-decoration="normal" x="237" y="433" text-anchor="start" dominant-baseline="alphabetic" stroke-opacity="1" stroke-linejoin="bevel" stroke-miterlimit="10" stroke-width="3">D</text><text fill="rgb(97,97,97)" stroke="none" font-family="geogebra-sans-serif, sans-serif" font-size="16px" font-style="normal" font-weight="normal" text-decoration="normal" x="237" y="433" text-anchor="start" dominant-baseline="alphabetic" fill-opacity="1">D</text></g></g></svg>