<svg version="1.1" xmlns="http://www.w3.org/2000/svg" xmlns:xlink="http://www.w3.org/1999/xlink" width="510" height="380"><defs><clipPath id="vgeFBwTocyiS"><path fill="none" stroke="none" d=" M 0 0 L 510 0 L 510 380 L 0 380 L 0 0 Z"/></clipPath></defs><g transform="scale(1,1)" clip-path="url(#vgeFBwTocyiS)"><g transform="translate(-348,-259)"><rect fill="rgb(255,255,255)" stroke="none" x="0" y="0" width="1144" height="932" fill-opacity="1"/><path fill="none" stroke="rgb(97,97,97)" paint-order="fill stroke markers" d=" M 740.2023089227139 441.6036480611705 C 740.2023089227139 497.1932566356958 695.138027286516 542.2575382718936 639.5484187119907 542.2575382718936 C 583.9588101374653 542.2575382718936 538.8945285012676 497.1932566356958 538.8945285012676 441.6036480611705 C 538.8945285012676 386.0140394866451 583.9588101374653 340.9497578504473 639.5484187119907 340.9497578504473 C 695.138027286516 340.9497578504473 740.2023089227139 386.0140394866451 740.2023089227139 441.6036480611705 Z" stroke-opacity="0.8" stroke-linecap="round" stroke-linejoin="round" stroke-miterlimit="10" stroke-width="2.5"/><path fill="none" stroke="rgb(97,97,97)" paint-order="fill stroke markers" d=" M 840.856199133437 441.6036480611705 C 840.856199133437 497.1932566356958 795.7919174972392 542.2575382718935 740.2023089227139 542.2575382718935 C 684.6127003481885 542.2575382718935 639.5484187119907 497.1932566356958 639.5484187119907 441.6036480611705 C 639.5484187119907 386.01403948664506 684.6127003481885 340.9497578504473 740.2023089227139 340.9497578504473 C 795.7919174972392 340.9497578504473 840.856199133437 386.01403948664506 840.856199133437 441.6036480611705 Z" stroke-opacity="0.8" stroke-linecap="round" stroke-linejoin="round" stroke-miterlimit="10" stroke-width="2.5"/><path fill="none" stroke="rgb(97,97,97)" paint-order="fill stroke markers" d=" M 713.2321803256998 441.6036480611705 C 713.2321803256998 537.887674485115 635.1785549252122 615.9412998856026 538.8945285012677 615.9412998856026 C 442.6105020773233 615.9412998856026 364.5568766768356 537.887674485115 364.5568766768356 441.6036480611705 C 364.5568766768356 345.3196216372261 442.6105020773233 267.2659962367384 538.8945285012677 267.2659962367384 C 635.1785549252122 267.2659962367384 713.2321803256998 345.3196216372261 713.2321803256998 441.6036480611705 Z" stroke-opacity="0.8" stroke-linecap="round" stroke-linejoin="round" stroke-miterlimit="10" stroke-width="2.5"/><path fill="none" stroke="rgb(97,97,97)" paint-order="fill stroke markers" d=" M 538.8945285012677 441.6036480611705 L 1144 441.6036480611705" stroke-opacity="0.8" stroke-linecap="round" stroke-linejoin="round" stroke-miterlimit="10" stroke-width="2.5"/><path fill="rgb(21,101,192)" stroke="none" paint-order="stroke fill markers" d=" M 543.8945285012677 441.6036480611705 C 543.8945285012677 444.3650718103244 541.6559522504217 446.6036480611705 538.8945285012677 446.6036480611705 C 536.1331047521137 446.6036480611705 533.8945285012677 444.3650718103244 533.8945285012677 441.6036480611705 C 533.8945285012677 438.8422243120165 536.1331047521137 436.6036480611705 538.8945285012677 436.6036480611705 C 541.6559522504217 436.6036480611705 543.8945285012677 438.8422243120165 543.8945285012677 441.6036480611705 Z" fill-opacity="1"/><path fill="none" stroke="rgb(0,0,0)" paint-order="fill stroke markers" d=" M 543.8945285012677 441.6036480611705 C 543.8945285012677 444.3650718103244 541.6559522504217 446.6036480611705 538.8945285012677 446.6036480611705 C 536.1331047521137 446.6036480611705 533.8945285012677 444.3650718103244 533.8945285012677 441.6036480611705 C 533.8945285012677 438.8422243120165 536.1331047521137 436.6036480611705 538.8945285012677 436.6036480611705 C 541.6559522504217 436.6036480611705 543.8945285012677 438.8422243120165 543.8945285012677 441.6036480611705 Z" stroke-opacity="1" stroke-linecap="round" stroke-linejoin="round" stroke-miterlimit="10"/><text fill="rgb(21,101,192)" stroke="none" font-family="geogebra-sans-serif, sans-serif" font-size="16px" font-style="normal" font-weight="normal" text-decoration="normal" x="543" y="432" text-anchor="start" dominant-baseline="alphabetic" fill-opacity="1">A</text><text fill="none" stroke="rgb(255,255,255)" font-family="geogebra-sans-serif, sans-serif" font-size="16px" font-style="normal" font-weight="normal" text-decoration="normal" x="543" y="432" text-anchor="start" dominant-baseline="alphabetic" stroke-opacity="1" stroke-linejoin="bevel" stroke-miterlimit="10" stroke-width="3">A</text><text fill="rgb(21,101,192)" stroke="none" font-family="geogebra-sans-serif, sans-serif" font-size="16px" font-style="normal" font-weight="normal" text-decoration="normal" x="543" y="432" text-anchor="start" dominant-baseline="alphabetic" fill-opacity="1">A</text><path fill="rgb(21,101,192)" stroke="none" paint-order="stroke fill markers" d=" M 644.5484187119907 441.6036480611705 C 644.5484187119907 444.3650718103244 642.3098424611447 446.6036480611705 639.5484187119907 446.6036480611705 C 636.7869949628367 446.6036480611705 634.5484187119907 444.3650718103244 634.5484187119907 441.6036480611705 C 634.5484187119907 438.8422243120165 636.7869949628367 436.6036480611705 639.5484187119907 436.6036480611705 C 642.3098424611447 436.6036480611705 644.5484187119907 438.8422243120165 644.5484187119907 441.6036480611705 Z" fill-opacity="1"/><path fill="none" stroke="rgb(0,0,0)" paint-order="fill stroke markers" d=" M 644.5484187119907 441.6036480611705 C 644.5484187119907 444.3650718103244 642.3098424611447 446.6036480611705 639.5484187119907 446.6036480611705 C 636.7869949628367 446.6036480611705 634.5484187119907 444.3650718103244 634.5484187119907 441.6036480611705 C 634.5484187119907 438.8422243120165 636.7869949628367 436.6036480611705 639.5484187119907 436.6036480611705 C 642.3098424611447 436.6036480611705 644.5484187119907 438.8422243120165 644.5484187119907 441.6036480611705 Z" stroke-opacity="1" stroke-linecap="round" stroke-linejoin="round" stroke-miterlimit="10"/><text fill="rgb(21,101,192)" stroke="none" font-family="geogebra-sans-serif, sans-serif" font-size="16px" font-style="normal" font-weight="normal" text-decoration="normal" x="644" y="432" text-anchor="start" dominant-baseline="alphabetic" fill-opacity="1">B</text><text fill="none" stroke="rgb(255,255,255)" font-family="geogebra-sans-serif, sans-serif" font-size="16px" font-style="normal" font-weight="normal" text-decoration="normal" x="644" y="432" text-anchor="start" dominant-baseline="alphabetic" stroke-opacity="1" stroke-linejoin="bevel" stroke-miterlimit="10" stroke-width="3">B</text><text fill="rgb(21,101,192)" stroke="none" font-family="geogebra-sans-serif, sans-serif" font-size="16px" font-style="normal" font-weight="normal" text-decoration="normal" x="644" y="432" text-anchor="start" dominant-baseline="alphabetic" fill-opacity="1">B</text><path fill="rgb(97,97,97)" stroke="none" paint-order="stroke fill markers" d=" M 744.2023089227139 441.6036480611705 C 744.2023089227139 443.81278706049363 742.411447922037 445.6036480611705 740.2023089227139 445.6036480611705 C 737.9931699233907 445.6036480611705 736.2023089227139 443.81278706049363 736.2023089227139 441.6036480611705 C 736.2023089227139 439.3945090618473 737.9931699233907 437.6036480611705 740.2023089227139 437.6036480611705 C 742.411447922037 437.6036480611705 744.2023089227139 439.3945090618473 744.2023089227139 441.6036480611705 Z" fill-opacity="1"/><path fill="none" stroke="rgb(0,0,0)" paint-order="fill stroke markers" d=" M 744.2023089227139 441.6036480611705 C 744.2023089227139 443.81278706049363 742.411447922037 445.6036480611705 740.2023089227139 445.6036480611705 C 737.9931699233907 445.6036480611705 736.2023089227139 443.81278706049363 736.2023089227139 441.6036480611705 C 736.2023089227139 439.3945090618473 737.9931699233907 437.6036480611705 740.2023089227139 437.6036480611705 C 742.411447922037 437.6036480611705 744.2023089227139 439.3945090618473 744.2023089227139 441.6036480611705 Z" stroke-opacity="1" stroke-linecap="round" stroke-linejoin="round" stroke-miterlimit="10"/><text fill="rgb(97,97,97)" stroke="none" font-family="geogebra-sans-serif, sans-serif" font-size="16px" font-style="normal" font-weight="normal" text-decoration="normal" x="744" y="434" text-anchor="start" dominant-baseline="alphabetic" fill-opacity="1">C</text><text fill="none" stroke="rgb(255,255,255)" font-family="geogebra-sans-serif, sans-serif" font-size="16px" font-style="normal" font-weight="normal" text-decoration="normal" x="744" y="434" text-anchor="start" dominant-baseline="alphabetic" stroke-opacity="1" stroke-linejoin="bevel" stroke-miterlimit="10" stroke-width="3">C</text><text fill="rgb(97,97,97)" stroke="none" font-family="geogebra-sans-serif, sans-serif" font-size="16px" font-style="normal" font-weight="normal" text-decoration="normal" x="744" y="434" text-anchor="start" dominant-baseline="alphabetic" fill-opacity="1">C</text><path fill="rgb(97,97,97)" stroke="none" paint-order="stroke fill markers" d=" M 693.8753638173524 354.4348221489544 C 693.8753638173524 356.6439611482776 692.0845028166756 358.4348221489544 689.8753638173524 358.4348221489544 C 687.6662248180293 358.4348221489544 685.8753638173524 356.6439611482776 685.8753638173524 354.4348221489544 C 685.8753638173524 352.22568314963127 687.6662248180293 350.4348221489544 689.8753638173524 350.4348221489544 C 692.0845028166756 350.4348221489544 693.8753638173524 352.22568314963127 693.8753638173524 354.4348221489544 Z" fill-opacity="1"/><path fill="none" stroke="rgb(0,0,0)" paint-order="fill stroke markers" d=" M 693.8753638173524 354.4348221489544 C 693.8753638173524 356.6439611482776 692.0845028166756 358.4348221489544 689.8753638173524 358.4348221489544 C 687.6662248180293 358.4348221489544 685.8753638173524 356.6439611482776 685.8753638173524 354.4348221489544 C 685.8753638173524 352.22568314963127 687.6662248180293 350.4348221489544 689.8753638173524 350.4348221489544 C 692.0845028166756 350.4348221489544 693.8753638173524 352.22568314963127 693.8753638173524 354.4348221489544 Z" stroke-opacity="1" stroke-linecap="round" stroke-linejoin="round" stroke-miterlimit="10"/><text fill="rgb(97,97,97)" stroke="none" font-family="geogebra-sans-serif, sans-serif" font-size="16px" font-style="normal" font-weight="normal" text-decoration="normal" x="694" y="346" text-anchor="start" dominant-baseline="alphabetic" fill-opacity="1">D</text><text fill="none" stroke="rgb(255,255,255)" font-family="geogebra-sans-serif, sans-serif" font-size="16px" font-style="normal" font-weight="normal" text-decoration="normal" x="694" y="346" text-anchor="start" dominant-baseline="alphabetic" stroke-opacity="1" stroke-linejoin="bevel" stroke-miterlimit="10" stroke-width="3">D</text><text fill="rgb(97,97,97)" stroke="none" font-family="geogebra-sans-serif, sans-serif" font-size="16px" font-style="normal" font-weight="normal" text-decoration="normal" x="694" y="346" text-anchor="start" dominant-baseline="alphabetic" fill-opacity="1">D</text><path fill="rgb(97,97,97)" stroke="none" paint-order="stroke fill markers" d=" M 717.2321803256998 441.6036480611705 C 717.2321803256998 443.81278706049363 715.441319325023 445.6036480611705 713.2321803256998 445.6036480611705 C 711.0230413263766 445.6036480611705 709.2321803256998 443.81278706049363 709.2321803256998 441.6036480611705 C 709.2321803256998 439.3945090618473 711.0230413263766 437.6036480611705 713.2321803256998 437.6036480611705 C 715.441319325023 437.6036480611705 717.2321803256998 439.3945090618473 717.2321803256998 441.6036480611705 Z" fill-opacity="1"/><path fill="none" stroke="rgb(0,0,0)" paint-order="fill stroke markers" d=" M 717.2321803256998 441.6036480611705 C 717.2321803256998 443.81278706049363 715.441319325023 445.6036480611705 713.2321803256998 445.6036480611705 C 711.0230413263766 445.6036480611705 709.2321803256998 443.81278706049363 709.2321803256998 441.6036480611705 C 709.2321803256998 439.3945090618473 711.0230413263766 437.6036480611705 713.2321803256998 437.6036480611705 C 715.441319325023 437.6036480611705 717.2321803256998 439.3945090618473 717.2321803256998 441.6036480611705 Z" stroke-opacity="1" stroke-linecap="round" stroke-linejoin="round" stroke-miterlimit="10"/><text fill="rgb(97,97,97)" stroke="none" font-family="geogebra-sans-serif, sans-serif" font-size="16px" font-style="normal" font-weight="normal" text-decoration="normal" x="717" y="434" text-anchor="start" dominant-baseline="alphabetic" fill-opacity="1">E</text><text fill="none" stroke="rgb(255,255,255)" font-family="geogebra-sans-serif, sans-serif" font-size="16px" font-style="normal" font-weight="normal" text-decoration="normal" x="717" y="434" text-anchor="start" dominant-baseline="alphabetic" stroke-opacity="1" stroke-linejoin="bevel" stroke-miterlimit="10" stroke-width="3">E</text><text fill="rgb(97,97,97)" stroke="none" font-family="geogebra-sans-serif, sans-serif" font-size="16px" font-style="normal" font-weight="normal" text-decoration="normal" x="717" y="434" text-anchor="start" dominant-baseline="alphabetic" fill-opacity="1">E</text></g></g></svg>