<svg version="1.1" xmlns="http://www.w3.org/2000/svg" xmlns:xlink="http://www.w3.org/1999/xlink" width="332" height="308"><defs><clipPath id="rMROiRmlClTl"><path fill="none" stroke="none" d=" M 0 0 L 332 0 L 332 308 L 0 308 L 0 0 Z"/></clipPath></defs><g transform="scale(1,1)" clip-path="url(#rMROiRmlClTl)"><g transform="translate(-320,-269)"><rect fill="rgb(255,255,255)" stroke="none" x="0" y="0" width="1144" height="932" fill-opacity="1"/><path fill="none" stroke="rgb(97,97,97)" paint-order="fill stroke markers" d=" M 537.3788740464715 463.3362559741396 C 537.3788740464715 516.2276173075123 494.50195398229073 559.1045373716929 441.6105926489179 559.1045373716929 C 388.7192313155449 559.1045373716929 345.8423112513642 516.2276173075123 345.8423112513642 463.3362559741396 C 345.8423112513642 410.44489464076673 388.7192313155449 367.56797457658615 441.6105926489179 367.56797457658615 C 494.50195398229073 367.56797457658615 537.3788740464715 410.44489464076673 537.3788740464715 463.3362559741396 Z" stroke-opacity="0.8" stroke-linecap="round" stroke-linejoin="round" stroke-miterlimit="10" stroke-width="2.5"/><path fill="none" stroke="rgb(97,97,97)" paint-order="fill stroke markers" d=" M 633.1467476459192 463.05677774379103 C 633.1467476459192 515.9481390771639 590.2698275817384 558.8250591413445 537.3784662483655 558.8250591413445 C 484.4871049149925 558.8250591413445 441.61018485081183 515.9481390771639 441.61018485081183 463.05677774379103 C 441.61018485081183 410.1654164104182 484.4871049149925 367.2884963462376 537.3784662483655 367.2884963462376 C 590.2698275817384 367.2884963462376 633.1467476459192 410.1654164104182 633.1467476459192 463.05677774379103 Z" stroke-opacity="0.8" stroke-linecap="round" stroke-linejoin="round" stroke-miterlimit="10" stroke-width="2.5"/><path fill="none" stroke="rgb(97,97,97)" paint-order="fill stroke markers" d=" M 585.0207755989086 380.25910545542683 C 585.0207755989086 433.1504667887996 542.1438555347279 476.0273868529802 489.25249420135503 476.0273868529802 C 436.36113286798206 476.0273868529802 393.48421280380137 433.1504667887996 393.48421280380137 380.25910545542683 C 393.48421280380137 327.367744122054 436.36113286798206 284.4908240578734 489.25249420135503 284.4908240578734 C 542.1438555347279 284.4908240578734 585.0207755989086 327.367744122054 585.0207755989086 380.25910545542683 Z" stroke-opacity="0.8" stroke-linecap="round" stroke-linejoin="round" stroke-miterlimit="10" stroke-width="2.5"/><path fill="none" stroke="rgb(97,97,97)" paint-order="fill stroke markers" d=" M 345.8427190494702 463.61573420448815 L 1144 461.2864814390683" stroke-opacity="0.8" stroke-linecap="round" stroke-linejoin="round" stroke-miterlimit="10" stroke-width="2.5"/><path fill="none" stroke="rgb(97,97,97)" paint-order="fill stroke markers" d=" M 441.6105926489178 463.3362559741396 L 585.0203678008028 379.97962722507816" stroke-opacity="0.8" stroke-linecap="round" stroke-linejoin="round" stroke-miterlimit="10" stroke-width="2.5"/><path fill="none" stroke="rgb(97,97,97)" paint-order="fill stroke markers" d=" M 345.8427190494702 463.61573420448815 L 1144 247.2516960891158" stroke-opacity="0.8" stroke-linecap="round" stroke-linejoin="round" stroke-miterlimit="10" stroke-width="2.5"/><path fill="rgb(21,101,192)" stroke="none" paint-order="stroke fill markers" d=" M 350.8427190494702 463.61573420448815 C 350.8427190494702 466.3771579536421 348.60414279862414 468.61573420448815 345.8427190494702 468.61573420448815 C 343.08129530031624 468.61573420448815 340.8427190494702 466.3771579536421 340.8427190494702 463.61573420448815 C 340.8427190494702 460.8543104553342 343.08129530031624 458.61573420448815 345.8427190494702 458.61573420448815 C 348.60414279862414 458.61573420448815 350.8427190494702 460.8543104553342 350.8427190494702 463.61573420448815 Z" fill-opacity="1"/><path fill="none" stroke="rgb(0,0,0)" paint-order="fill stroke markers" d=" M 350.8427190494702 463.61573420448815 C 350.8427190494702 466.3771579536421 348.60414279862414 468.61573420448815 345.8427190494702 468.61573420448815 C 343.08129530031624 468.61573420448815 340.8427190494702 466.3771579536421 340.8427190494702 463.61573420448815 C 340.8427190494702 460.8543104553342 343.08129530031624 458.61573420448815 345.8427190494702 458.61573420448815 C 348.60414279862414 458.61573420448815 350.8427190494702 460.8543104553342 350.8427190494702 463.61573420448815 Z" stroke-opacity="1" stroke-linecap="round" stroke-linejoin="round" stroke-miterlimit="10"/><text fill="rgb(21,101,192)" stroke="none" font-family="geogebra-sans-serif, sans-serif" font-size="16px" font-style="normal" font-weight="normal" text-decoration="normal" x="350" y="454" text-anchor="start" dominant-baseline="alphabetic" fill-opacity="1">A</text><text fill="none" stroke="rgb(255,255,255)" font-family="geogebra-sans-serif, sans-serif" font-size="16px" font-style="normal" font-weight="normal" text-decoration="normal" x="350" y="454" text-anchor="start" dominant-baseline="alphabetic" stroke-opacity="1" stroke-linejoin="bevel" stroke-miterlimit="10" stroke-width="3">A</text><text fill="rgb(21,101,192)" stroke="none" font-family="geogebra-sans-serif, sans-serif" font-size="16px" font-style="normal" font-weight="normal" text-decoration="normal" x="350" y="454" text-anchor="start" dominant-baseline="alphabetic" fill-opacity="1">A</text><path fill="rgb(21,101,192)" stroke="none" paint-order="stroke fill markers" d=" M 446.6105926489178 463.3362559741396 C 446.6105926489178 466.09767972329354 444.37201639807176 468.3362559741396 441.6105926489178 468.3362559741396 C 438.84916889976387 468.3362559741396 436.6105926489178 466.09767972329354 436.6105926489178 463.3362559741396 C 436.6105926489178 460.57483222498564 438.84916889976387 458.3362559741396 441.6105926489178 458.3362559741396 C 444.37201639807176 458.3362559741396 446.6105926489178 460.57483222498564 446.6105926489178 463.3362559741396 Z" fill-opacity="1"/><path fill="none" stroke="rgb(0,0,0)" paint-order="fill stroke markers" d=" M 446.6105926489178 463.3362559741396 C 446.6105926489178 466.09767972329354 444.37201639807176 468.3362559741396 441.6105926489178 468.3362559741396 C 438.84916889976387 468.3362559741396 436.6105926489178 466.09767972329354 436.6105926489178 463.3362559741396 C 436.6105926489178 460.57483222498564 438.84916889976387 458.3362559741396 441.6105926489178 458.3362559741396 C 444.37201639807176 458.3362559741396 446.6105926489178 460.57483222498564 446.6105926489178 463.3362559741396 Z" stroke-opacity="1" stroke-linecap="round" stroke-linejoin="round" stroke-miterlimit="10"/><text fill="rgb(21,101,192)" stroke="none" font-family="geogebra-sans-serif, sans-serif" font-size="16px" font-style="normal" font-weight="normal" text-decoration="normal" x="446" y="453" text-anchor="start" dominant-baseline="alphabetic" fill-opacity="1">B</text><text fill="none" stroke="rgb(255,255,255)" font-family="geogebra-sans-serif, sans-serif" font-size="16px" font-style="normal" font-weight="normal" text-decoration="normal" x="446" y="453" text-anchor="start" dominant-baseline="alphabetic" stroke-opacity="1" stroke-linejoin="bevel" stroke-miterlimit="10" stroke-width="3">B</text><text fill="rgb(21,101,192)" stroke="none" font-family="geogebra-sans-serif, sans-serif" font-size="16px" font-style="normal" font-weight="normal" text-decoration="normal" x="446" y="453" text-anchor="start" dominant-baseline="alphabetic" fill-opacity="1">B</text><path fill="rgb(97,97,97)" stroke="none" paint-order="stroke fill markers" d=" M 541.3784662483655 463.05677774379103 C 541.3784662483655 465.2659167431142 539.5876052476887 467.05677774379103 537.3784662483655 467.05677774379103 C 535.1693272490423 467.05677774379103 533.3784662483655 465.2659167431142 533.3784662483655 463.05677774379103 C 533.3784662483655 460.8476387444679 535.1693272490423 459.05677774379103 537.3784662483655 459.05677774379103 C 539.5876052476887 459.05677774379103 541.3784662483655 460.8476387444679 541.3784662483655 463.05677774379103 Z" fill-opacity="1"/><path fill="none" stroke="rgb(0,0,0)" paint-order="fill stroke markers" d=" M 541.3784662483655 463.05677774379103 C 541.3784662483655 465.2659167431142 539.5876052476887 467.05677774379103 537.3784662483655 467.05677774379103 C 535.1693272490423 467.05677774379103 533.3784662483655 465.2659167431142 533.3784662483655 463.05677774379103 C 533.3784662483655 460.8476387444679 535.1693272490423 459.05677774379103 537.3784662483655 459.05677774379103 C 539.5876052476887 459.05677774379103 541.3784662483655 460.8476387444679 541.3784662483655 463.05677774379103 Z" stroke-opacity="1" stroke-linecap="round" stroke-linejoin="round" stroke-miterlimit="10"/><text fill="rgb(97,97,97)" stroke="none" font-family="geogebra-sans-serif, sans-serif" font-size="16px" font-style="normal" font-weight="normal" text-decoration="normal" x="541" y="455" text-anchor="start" dominant-baseline="alphabetic" fill-opacity="1">C</text><text fill="none" stroke="rgb(255,255,255)" font-family="geogebra-sans-serif, sans-serif" font-size="16px" font-style="normal" font-weight="normal" text-decoration="normal" x="541" y="455" text-anchor="start" dominant-baseline="alphabetic" stroke-opacity="1" stroke-linejoin="bevel" stroke-miterlimit="10" stroke-width="3">C</text><text fill="rgb(97,97,97)" stroke="none" font-family="geogebra-sans-serif, sans-serif" font-size="16px" font-style="normal" font-weight="normal" text-decoration="normal" x="541" y="455" text-anchor="start" dominant-baseline="alphabetic" fill-opacity="1">C</text><path fill="rgb(97,97,97)" stroke="none" paint-order="stroke fill markers" d=" M 493.25249420135503 380.2591054554268 C 493.25249420135503 382.46824445474994 491.4616332006782 384.2591054554268 489.25249420135503 384.2591054554268 C 487.0433552020319 384.2591054554268 485.25249420135503 382.46824445474994 485.25249420135503 380.2591054554268 C 485.25249420135503 378.0499664561036 487.0433552020319 376.2591054554268 489.25249420135503 376.2591054554268 C 491.4616332006782 376.2591054554268 493.25249420135503 378.0499664561036 493.25249420135503 380.2591054554268 Z" fill-opacity="1"/><path fill="none" stroke="rgb(0,0,0)" paint-order="fill stroke markers" d=" M 493.25249420135503 380.2591054554268 C 493.25249420135503 382.46824445474994 491.4616332006782 384.2591054554268 489.25249420135503 384.2591054554268 C 487.0433552020319 384.2591054554268 485.25249420135503 382.46824445474994 485.25249420135503 380.2591054554268 C 485.25249420135503 378.0499664561036 487.0433552020319 376.2591054554268 489.25249420135503 376.2591054554268 C 491.4616332006782 376.2591054554268 493.25249420135503 378.0499664561036 493.25249420135503 380.2591054554268 Z" stroke-opacity="1" stroke-linecap="round" stroke-linejoin="round" stroke-miterlimit="10"/><text fill="rgb(97,97,97)" stroke="none" font-family="geogebra-sans-serif, sans-serif" font-size="16px" font-style="normal" font-weight="normal" text-decoration="normal" x="493" y="372" text-anchor="start" dominant-baseline="alphabetic" fill-opacity="1">D</text><text fill="none" stroke="rgb(255,255,255)" font-family="geogebra-sans-serif, sans-serif" font-size="16px" font-style="normal" font-weight="normal" text-decoration="normal" x="493" y="372" text-anchor="start" dominant-baseline="alphabetic" stroke-opacity="1" stroke-linejoin="bevel" stroke-miterlimit="10" stroke-width="3">D</text><text fill="rgb(97,97,97)" stroke="none" font-family="geogebra-sans-serif, sans-serif" font-size="16px" font-style="normal" font-weight="normal" text-decoration="normal" x="493" y="372" text-anchor="start" dominant-baseline="alphabetic" fill-opacity="1">D</text><path fill="rgb(97,97,97)" stroke="none" paint-order="stroke fill markers" d=" M 589.0203678008028 379.97962722507816 C 589.0203678008028 382.1887662244013 587.2295068001259 383.97962722507816 585.0203678008028 383.97962722507816 C 582.8112288014796 383.97962722507816 581.0203678008028 382.1887662244013 581.0203678008028 379.97962722507816 C 581.0203678008028 377.770488225755 582.8112288014796 375.97962722507816 585.0203678008028 375.97962722507816 C 587.2295068001259 375.97962722507816 589.0203678008028 377.770488225755 589.0203678008028 379.97962722507816 Z" fill-opacity="1"/><path fill="none" stroke="rgb(0,0,0)" paint-order="fill stroke markers" d=" M 589.0203678008028 379.97962722507816 C 589.0203678008028 382.1887662244013 587.2295068001259 383.97962722507816 585.0203678008028 383.97962722507816 C 582.8112288014796 383.97962722507816 581.0203678008028 382.1887662244013 581.0203678008028 379.97962722507816 C 581.0203678008028 377.770488225755 582.8112288014796 375.97962722507816 585.0203678008028 375.97962722507816 C 587.2295068001259 375.97962722507816 589.0203678008028 377.770488225755 589.0203678008028 379.97962722507816 Z" stroke-opacity="1" stroke-linecap="round" stroke-linejoin="round" stroke-miterlimit="10"/><text fill="rgb(97,97,97)" stroke="none" font-family="geogebra-sans-serif, sans-serif" font-size="16px" font-style="normal" font-weight="normal" text-decoration="normal" x="589" y="372" text-anchor="start" dominant-baseline="alphabetic" fill-opacity="1">E</text><text fill="none" stroke="rgb(255,255,255)" font-family="geogebra-sans-serif, sans-serif" font-size="16px" font-style="normal" font-weight="normal" text-decoration="normal" x="589" y="372" text-anchor="start" dominant-baseline="alphabetic" stroke-opacity="1" stroke-linejoin="bevel" stroke-miterlimit="10" stroke-width="3">E</text><text fill="rgb(97,97,97)" stroke="none" font-family="geogebra-sans-serif, sans-serif" font-size="16px" font-style="normal" font-weight="normal" text-decoration="normal" x="589" y="372" text-anchor="start" dominant-baseline="alphabetic" fill-opacity="1">E</text><path fill="rgb(97,97,97)" stroke="none" paint-order="stroke fill markers" d=" M 528.4082649372822 415.2102839271293 C 528.4082649372822 417.41942292645246 526.6174039366053 419.2102839271293 524.4082649372822 419.2102839271293 C 522.199125937959 419.2102839271293 520.4082649372822 417.41942292645246 520.4082649372822 415.2102839271293 C 520.4082649372822 413.00114492780614 522.199125937959 411.2102839271293 524.4082649372822 411.2102839271293 C 526.6174039366053 411.2102839271293 528.4082649372822 413.00114492780614 528.4082649372822 415.2102839271293 Z" fill-opacity="1"/><path fill="none" stroke="rgb(0,0,0)" paint-order="fill stroke markers" d=" M 528.4082649372822 415.2102839271293 C 528.4082649372822 417.41942292645246 526.6174039366053 419.2102839271293 524.4082649372822 419.2102839271293 C 522.199125937959 419.2102839271293 520.4082649372822 417.41942292645246 520.4082649372822 415.2102839271293 C 520.4082649372822 413.00114492780614 522.199125937959 411.2102839271293 524.4082649372822 411.2102839271293 C 526.6174039366053 411.2102839271293 528.4082649372822 413.00114492780614 528.4082649372822 415.2102839271293 Z" stroke-opacity="1" stroke-linecap="round" stroke-linejoin="round" stroke-miterlimit="10"/><text fill="rgb(97,97,97)" stroke="none" font-family="geogebra-sans-serif, sans-serif" font-size="16px" font-style="normal" font-weight="normal" text-decoration="normal" x="528" y="407" text-anchor="start" dominant-baseline="alphabetic" fill-opacity="1">F</text><text fill="none" stroke="rgb(255,255,255)" font-family="geogebra-sans-serif, sans-serif" font-size="16px" font-style="normal" font-weight="normal" text-decoration="normal" x="528" y="407" text-anchor="start" dominant-baseline="alphabetic" stroke-opacity="1" stroke-linejoin="bevel" stroke-miterlimit="10" stroke-width="3">F</text><text fill="rgb(97,97,97)" stroke="none" font-family="geogebra-sans-serif, sans-serif" font-size="16px" font-style="normal" font-weight="normal" text-decoration="normal" x="528" y="407" text-anchor="start" dominant-baseline="alphabetic" fill-opacity="1">F</text></g></g></svg>