<svg version="1.1" xmlns="http://www.w3.org/2000/svg" xmlns:xlink="http://www.w3.org/1999/xlink" width="299" height="209"><defs><clipPath id="vSixCXwWTdmu"><path fill="none" stroke="none" d=" M 0 0 L 299 0 L 299 209 L 0 209 L 0 0 Z"/></clipPath></defs><g transform="scale(1,1)" clip-path="url(#vSixCXwWTdmu)"><g transform="translate(-416,-277)"><rect fill="rgb(255,255,255)" stroke="none" x="0" y="0" width="1144" height="932" fill-opacity="1"/><path fill="none" stroke="rgb(97,97,97)" paint-order="fill stroke markers" d=" M 614.0992126388351 387.13767912345844 C 614.0992126388351 438.13034235839586 572.7614915012902 479.4680634959408 521.7688282663528 479.4680634959408 C 470.7761650314155 479.4680634959408 429.4384438938706 438.13034235839586 429.4384438938706 387.13767912345844 C 429.4384438938706 336.1450158885211 470.7761650314155 294.80729475097615 521.7688282663528 294.80729475097615 C 572.7614915012902 294.80729475097615 614.0992126388351 336.1450158885211 614.0992126388351 387.13767912345844 Z" stroke-opacity="0.8" stroke-linecap="round" stroke-linejoin="round" stroke-miterlimit="10" stroke-width="2.5"/><path fill="none" stroke="rgb(97,97,97)" paint-order="fill stroke markers" d=" M 706.4292038523786 386.868233623808 C 706.4292038523786 437.8608968587454 665.0914827148337 479.19861799629035 614.0988194798963 479.19861799629035 C 563.106156244959 479.19861799629035 521.7684351074141 437.8608968587454 521.7684351074141 386.868233623808 C 521.7684351074141 335.87557038887064 563.106156244959 294.5378492513257 614.0988194798963 294.5378492513257 C 665.0914827148337 294.5378492513257 706.4292038523786 335.87557038887064 706.4292038523786 386.868233623808 Z" stroke-opacity="0.8" stroke-linecap="round" stroke-linejoin="round" stroke-miterlimit="10" stroke-width="2.5"/><path fill="none" stroke="rgb(97,97,97)" paint-order="fill stroke markers" d=" M -5 505.17456638214526 L 1149 192.3488790842855" stroke-opacity="0.8" stroke-linecap="round" stroke-linejoin="round" stroke-miterlimit="10" stroke-width="2.5"/><path fill="none" stroke="rgb(97,97,97)" paint-order="fill stroke markers" d=" M -5 272.3573701806442 L 1149 577.9640639267316" stroke-opacity="0.8" stroke-linecap="round" stroke-linejoin="round" stroke-miterlimit="10" stroke-width="2.5"/><path fill="none" stroke="rgb(97,97,97)" paint-order="fill stroke markers" d=" M 429.4388370528093 387.40712462310887 L 1144 385.32182940050035" stroke-opacity="0.8" stroke-linecap="round" stroke-linejoin="round" stroke-miterlimit="10" stroke-width="2.5"/><path fill="rgb(21,101,192)" stroke="none" paint-order="stroke fill markers" d=" M 434.4388370528093 387.40712462310887 C 434.4388370528093 390.1685483722628 432.2002608019632 392.40712462310887 429.4388370528093 392.40712462310887 C 426.6774133036553 392.40712462310887 424.4388370528093 390.1685483722628 424.4388370528093 387.40712462310887 C 424.4388370528093 384.6457008739549 426.6774133036553 382.40712462310887 429.4388370528093 382.40712462310887 C 432.2002608019632 382.40712462310887 434.4388370528093 384.6457008739549 434.4388370528093 387.40712462310887 Z" fill-opacity="1"/><path fill="none" stroke="rgb(0,0,0)" paint-order="fill stroke markers" d=" M 434.4388370528093 387.40712462310887 C 434.4388370528093 390.1685483722628 432.2002608019632 392.40712462310887 429.4388370528093 392.40712462310887 C 426.6774133036553 392.40712462310887 424.4388370528093 390.1685483722628 424.4388370528093 387.40712462310887 C 424.4388370528093 384.6457008739549 426.6774133036553 382.40712462310887 429.4388370528093 382.40712462310887 C 432.2002608019632 382.40712462310887 434.4388370528093 384.6457008739549 434.4388370528093 387.40712462310887 Z" stroke-opacity="1" stroke-linecap="round" stroke-linejoin="round" stroke-miterlimit="10"/><text fill="rgb(21,101,192)" stroke="none" font-family="geogebra-sans-serif, sans-serif" font-size="16px" font-style="normal" font-weight="normal" text-decoration="normal" x="433" y="377" text-anchor="start" dominant-baseline="alphabetic" fill-opacity="1">A</text><text fill="none" stroke="rgb(255,255,255)" font-family="geogebra-sans-serif, sans-serif" font-size="16px" font-style="normal" font-weight="normal" text-decoration="normal" x="433" y="377" text-anchor="start" dominant-baseline="alphabetic" stroke-opacity="1" stroke-linejoin="bevel" stroke-miterlimit="10" stroke-width="3">A</text><text fill="rgb(21,101,192)" stroke="none" font-family="geogebra-sans-serif, sans-serif" font-size="16px" font-style="normal" font-weight="normal" text-decoration="normal" x="433" y="377" text-anchor="start" dominant-baseline="alphabetic" fill-opacity="1">A</text><path fill="rgb(21,101,192)" stroke="none" paint-order="stroke fill markers" d=" M 526.7688282663528 387.13767912345844 C 526.7688282663528 389.8991028726124 524.5302520155068 392.13767912345844 521.7688282663528 392.13767912345844 C 519.0074045171988 392.13767912345844 516.7688282663528 389.8991028726124 516.7688282663528 387.13767912345844 C 516.7688282663528 384.3762553743045 519.0074045171988 382.13767912345844 521.7688282663528 382.13767912345844 C 524.5302520155068 382.13767912345844 526.7688282663528 384.3762553743045 526.7688282663528 387.13767912345844 Z" fill-opacity="1"/><path fill="none" stroke="rgb(0,0,0)" paint-order="fill stroke markers" d=" M 526.7688282663528 387.13767912345844 C 526.7688282663528 389.8991028726124 524.5302520155068 392.13767912345844 521.7688282663528 392.13767912345844 C 519.0074045171988 392.13767912345844 516.7688282663528 389.8991028726124 516.7688282663528 387.13767912345844 C 516.7688282663528 384.3762553743045 519.0074045171988 382.13767912345844 521.7688282663528 382.13767912345844 C 524.5302520155068 382.13767912345844 526.7688282663528 384.3762553743045 526.7688282663528 387.13767912345844 Z" stroke-opacity="1" stroke-linecap="round" stroke-linejoin="round" stroke-miterlimit="10"/><text fill="rgb(21,101,192)" stroke="none" font-family="geogebra-sans-serif, sans-serif" font-size="16px" font-style="normal" font-weight="normal" text-decoration="normal" x="526" y="377" text-anchor="start" dominant-baseline="alphabetic" fill-opacity="1">B</text><text fill="none" stroke="rgb(255,255,255)" font-family="geogebra-sans-serif, sans-serif" font-size="16px" font-style="normal" font-weight="normal" text-decoration="normal" x="526" y="377" text-anchor="start" dominant-baseline="alphabetic" stroke-opacity="1" stroke-linejoin="bevel" stroke-miterlimit="10" stroke-width="3">B</text><text fill="rgb(21,101,192)" stroke="none" font-family="geogebra-sans-serif, sans-serif" font-size="16px" font-style="normal" font-weight="normal" text-decoration="normal" x="526" y="377" text-anchor="start" dominant-baseline="alphabetic" fill-opacity="1">B</text><path fill="rgb(97,97,97)" stroke="none" paint-order="stroke fill markers" d=" M 618.0988194798963 386.868233623808 C 618.0988194798963 389.07737262313117 616.3079584792195 390.868233623808 614.0988194798963 390.868233623808 C 611.8896804805731 390.868233623808 610.0988194798963 389.07737262313117 610.0988194798963 386.868233623808 C 610.0988194798963 384.65909462448485 611.8896804805731 382.868233623808 614.0988194798963 382.868233623808 C 616.3079584792195 382.868233623808 618.0988194798963 384.65909462448485 618.0988194798963 386.868233623808 Z" fill-opacity="1"/><path fill="none" stroke="rgb(0,0,0)" paint-order="fill stroke markers" d=" M 618.0988194798963 386.868233623808 C 618.0988194798963 389.07737262313117 616.3079584792195 390.868233623808 614.0988194798963 390.868233623808 C 611.8896804805731 390.868233623808 610.0988194798963 389.07737262313117 610.0988194798963 386.868233623808 C 610.0988194798963 384.65909462448485 611.8896804805731 382.868233623808 614.0988194798963 382.868233623808 C 616.3079584792195 382.868233623808 618.0988194798963 384.65909462448485 618.0988194798963 386.868233623808 Z" stroke-opacity="1" stroke-linecap="round" stroke-linejoin="round" stroke-miterlimit="10"/><text fill="rgb(97,97,97)" stroke="none" font-family="geogebra-sans-serif, sans-serif" font-size="16px" font-style="normal" font-weight="normal" text-decoration="normal" x="618" y="379" text-anchor="start" dominant-baseline="alphabetic" fill-opacity="1">C</text><text fill="none" stroke="rgb(255,255,255)" font-family="geogebra-sans-serif, sans-serif" font-size="16px" font-style="normal" font-weight="normal" text-decoration="normal" x="618" y="379" text-anchor="start" dominant-baseline="alphabetic" stroke-opacity="1" stroke-linejoin="bevel" stroke-miterlimit="10" stroke-width="3">C</text><text fill="rgb(97,97,97)" stroke="none" font-family="geogebra-sans-serif, sans-serif" font-size="16px" font-style="normal" font-weight="normal" text-decoration="normal" x="618" y="379" text-anchor="start" dominant-baseline="alphabetic" fill-opacity="1">C</text><path fill="rgb(97,97,97)" stroke="none" paint-order="stroke fill markers" d=" M 571.7004772254919 307.0428384515104 C 571.7004772254919 309.2519774508336 569.9096162248151 311.0428384515104 567.7004772254919 311.0428384515104 C 565.4913382261688 311.0428384515104 563.7004772254919 309.2519774508336 563.7004772254919 307.0428384515104 C 563.7004772254919 304.83369945218726 565.4913382261688 303.0428384515104 567.7004772254919 303.0428384515104 C 569.9096162248151 303.0428384515104 571.7004772254919 304.83369945218726 571.7004772254919 307.0428384515104 Z" fill-opacity="1"/><path fill="none" stroke="rgb(0,0,0)" paint-order="fill stroke markers" d=" M 571.7004772254919 307.0428384515104 C 571.7004772254919 309.2519774508336 569.9096162248151 311.0428384515104 567.7004772254919 311.0428384515104 C 565.4913382261688 311.0428384515104 563.7004772254919 309.2519774508336 563.7004772254919 307.0428384515104 C 563.7004772254919 304.83369945218726 565.4913382261688 303.0428384515104 567.7004772254919 303.0428384515104 C 569.9096162248151 303.0428384515104 571.7004772254919 304.83369945218726 571.7004772254919 307.0428384515104 Z" stroke-opacity="1" stroke-linecap="round" stroke-linejoin="round" stroke-miterlimit="10"/><text fill="rgb(97,97,97)" stroke="none" font-family="geogebra-sans-serif, sans-serif" font-size="16px" font-style="normal" font-weight="normal" text-decoration="normal" x="572" y="299" text-anchor="start" dominant-baseline="alphabetic" fill-opacity="1">D</text><text fill="none" stroke="rgb(255,255,255)" font-family="geogebra-sans-serif, sans-serif" font-size="16px" font-style="normal" font-weight="normal" text-decoration="normal" x="572" y="299" text-anchor="start" dominant-baseline="alphabetic" stroke-opacity="1" stroke-linejoin="bevel" stroke-miterlimit="10" stroke-width="3">D</text><text fill="rgb(97,97,97)" stroke="none" font-family="geogebra-sans-serif, sans-serif" font-size="16px" font-style="normal" font-weight="normal" text-decoration="normal" x="572" y="299" text-anchor="start" dominant-baseline="alphabetic" fill-opacity="1">D</text><path fill="rgb(97,97,97)" stroke="none" paint-order="stroke fill markers" d=" M 572.1671705207572 466.963074295756 C 572.1671705207572 469.17221329507913 570.3763095200803 470.963074295756 568.1671705207572 470.963074295756 C 565.958031521434 470.963074295756 564.1671705207572 469.17221329507913 564.1671705207572 466.963074295756 C 564.1671705207572 464.7539352964328 565.958031521434 462.963074295756 568.1671705207572 462.963074295756 C 570.3763095200803 462.963074295756 572.1671705207572 464.7539352964328 572.1671705207572 466.963074295756 Z" fill-opacity="1"/><path fill="none" stroke="rgb(0,0,0)" paint-order="fill stroke markers" d=" M 572.1671705207572 466.963074295756 C 572.1671705207572 469.17221329507913 570.3763095200803 470.963074295756 568.1671705207572 470.963074295756 C 565.958031521434 470.963074295756 564.1671705207572 469.17221329507913 564.1671705207572 466.963074295756 C 564.1671705207572 464.7539352964328 565.958031521434 462.963074295756 568.1671705207572 462.963074295756 C 570.3763095200803 462.963074295756 572.1671705207572 464.7539352964328 572.1671705207572 466.963074295756 Z" stroke-opacity="1" stroke-linecap="round" stroke-linejoin="round" stroke-miterlimit="10"/><text fill="rgb(97,97,97)" stroke="none" font-family="geogebra-sans-serif, sans-serif" font-size="16px" font-style="normal" font-weight="normal" text-decoration="normal" x="572" y="459" text-anchor="start" dominant-baseline="alphabetic" fill-opacity="1">E</text><text fill="none" stroke="rgb(255,255,255)" font-family="geogebra-sans-serif, sans-serif" font-size="16px" font-style="normal" font-weight="normal" text-decoration="normal" x="572" y="459" text-anchor="start" dominant-baseline="alphabetic" stroke-opacity="1" stroke-linejoin="bevel" stroke-miterlimit="10" stroke-width="3">E</text><text fill="rgb(97,97,97)" stroke="none" font-family="geogebra-sans-serif, sans-serif" font-size="16px" font-style="normal" font-weight="normal" text-decoration="normal" x="572" y="459" text-anchor="start" dominant-baseline="alphabetic" fill-opacity="1">E</text></g></g></svg>