<svg version="1.1" xmlns="http://www.w3.org/2000/svg" xmlns:xlink="http://www.w3.org/1999/xlink" width="535" height="510"><defs><clipPath id="TmBlzwJTETXf"><path fill="none" stroke="none" d=" M 0 0 L 535 0 L 535 510 L 0 510 L 0 0 Z"/></clipPath></defs><g transform="scale(1,1)" clip-path="url(#TmBlzwJTETXf)"><g transform="translate(-385,-205)"><rect fill="rgb(255,255,255)" stroke="none" x="0" y="0" width="1144" height="932" fill-opacity="1"/><path fill="none" stroke="rgb(97,97,97)" paint-order="fill stroke markers" d=" M 900.3838722906637 453.9243634784712 C 900.3838722906637 583.7547273945884 795.1355671761867 689.0030325090647 665.3052032600688 689.0030325090647 C 535.4748393439507 689.0030325090647 430.2265342294738 583.7547273945884 430.2265342294738 453.9243634784712 C 430.2265342294738 324.093999562354 535.4748393439507 218.84569444787763 665.3052032600688 218.84569444787763 C 795.1355671761867 218.84569444787763 900.3838722906637 324.093999562354 900.3838722906637 453.9243634784712 Z" stroke-opacity="0.8" stroke-linecap="round" stroke-linejoin="round" stroke-miterlimit="10" stroke-width="2.5"/><path fill="none" stroke="rgb(97,97,97)" paint-order="fill stroke markers" d=" M 761.241384254115 937 L -5 15.43941623492338" stroke-opacity="0.8" stroke-linecap="round" stroke-linejoin="round" stroke-miterlimit="10" stroke-width="2.5"/><path fill="none" stroke="rgb(97,97,97)" paint-order="fill stroke markers" d=" M 1066.9635976712311 937 L 283.72764261504466 -5" stroke-opacity="0.8" stroke-linecap="round" stroke-linejoin="round" stroke-miterlimit="10" stroke-width="2.5"/><path fill="none" stroke="rgb(97,97,97)" paint-order="fill stroke markers" d=" M -5 858.3956729636774 L 1033.408309375237 -5" stroke-opacity="0.8" stroke-linecap="round" stroke-linejoin="round" stroke-miterlimit="10" stroke-width="2.5"/><path fill="none" stroke="rgb(97,97,97)" paint-order="fill stroke markers" d=" M 268.1552957823041 937 L 1149 204.6122684032665" stroke-opacity="0.8" stroke-linecap="round" stroke-linejoin="round" stroke-miterlimit="10" stroke-width="2.5"/><path fill="none" stroke="rgb(97,97,97)" paint-order="fill stroke markers" d=" M 484.54640259746003 604.2181977372691 L 665.3052032600688 453.9243634784712" stroke-opacity="0.8" stroke-linecap="round" stroke-linejoin="round" stroke-miterlimit="10" stroke-width="2.5"/><path fill="rgb(21,101,192)" stroke="none" paint-order="stroke fill markers" d=" M 489.54640259746003 604.2181977372691 C 489.54640259746003 606.9796214864231 487.307826346614 609.2181977372691 484.54640259746003 609.2181977372691 C 481.7849788483061 609.2181977372691 479.54640259746003 606.9796214864231 479.54640259746003 604.2181977372691 C 479.54640259746003 601.4567739881151 481.7849788483061 599.2181977372691 484.54640259746003 599.2181977372691 C 487.307826346614 599.2181977372691 489.54640259746003 601.4567739881151 489.54640259746003 604.2181977372691 Z" fill-opacity="1"/><path fill="none" stroke="rgb(0,0,0)" paint-order="fill stroke markers" d=" M 489.54640259746003 604.2181977372691 C 489.54640259746003 606.9796214864231 487.307826346614 609.2181977372691 484.54640259746003 609.2181977372691 C 481.7849788483061 609.2181977372691 479.54640259746003 606.9796214864231 479.54640259746003 604.2181977372691 C 479.54640259746003 601.4567739881151 481.7849788483061 599.2181977372691 484.54640259746003 599.2181977372691 C 487.307826346614 599.2181977372691 489.54640259746003 601.4567739881151 489.54640259746003 604.2181977372691 Z" stroke-opacity="1" stroke-linecap="round" stroke-linejoin="round" stroke-miterlimit="10"/><text fill="rgb(21,101,192)" stroke="none" font-family="geogebra-sans-serif, sans-serif" font-size="16px" font-style="normal" font-weight="normal" text-decoration="normal" x="489" y="594" text-anchor="start" dominant-baseline="alphabetic" fill-opacity="1">A</text><text fill="none" stroke="rgb(255,255,255)" font-family="geogebra-sans-serif, sans-serif" font-size="16px" font-style="normal" font-weight="normal" text-decoration="normal" x="489" y="594" text-anchor="start" dominant-baseline="alphabetic" stroke-opacity="1" stroke-linejoin="bevel" stroke-miterlimit="10" stroke-width="3">A</text><text fill="rgb(21,101,192)" stroke="none" font-family="geogebra-sans-serif, sans-serif" font-size="16px" font-style="normal" font-weight="normal" text-decoration="normal" x="489" y="594" text-anchor="start" dominant-baseline="alphabetic" fill-opacity="1">A</text><path fill="rgb(21,101,192)" stroke="none" paint-order="stroke fill markers" d=" M 670.3052032600688 453.9243634784712 C 670.3052032600688 456.68578722762516 668.0666270092228 458.9243634784712 665.3052032600688 458.9243634784712 C 662.5437795109148 458.9243634784712 660.3052032600688 456.68578722762516 660.3052032600688 453.9243634784712 C 660.3052032600688 451.16293972931726 662.5437795109148 448.9243634784712 665.3052032600688 448.9243634784712 C 668.0666270092228 448.9243634784712 670.3052032600688 451.16293972931726 670.3052032600688 453.9243634784712 Z" fill-opacity="1"/><path fill="none" stroke="rgb(0,0,0)" paint-order="fill stroke markers" d=" M 670.3052032600688 453.9243634784712 C 670.3052032600688 456.68578722762516 668.0666270092228 458.9243634784712 665.3052032600688 458.9243634784712 C 662.5437795109148 458.9243634784712 660.3052032600688 456.68578722762516 660.3052032600688 453.9243634784712 C 660.3052032600688 451.16293972931726 662.5437795109148 448.9243634784712 665.3052032600688 448.9243634784712 C 668.0666270092228 448.9243634784712 670.3052032600688 451.16293972931726 670.3052032600688 453.9243634784712 Z" stroke-opacity="1" stroke-linecap="round" stroke-linejoin="round" stroke-miterlimit="10"/><text fill="rgb(21,101,192)" stroke="none" font-family="geogebra-sans-serif, sans-serif" font-size="16px" font-style="normal" font-weight="normal" text-decoration="normal" x="669" y="444" text-anchor="start" dominant-baseline="alphabetic" fill-opacity="1">B</text><text fill="none" stroke="rgb(255,255,255)" font-family="geogebra-sans-serif, sans-serif" font-size="16px" font-style="normal" font-weight="normal" text-decoration="normal" x="669" y="444" text-anchor="start" dominant-baseline="alphabetic" stroke-opacity="1" stroke-linejoin="bevel" stroke-miterlimit="10" stroke-width="3">B</text><text fill="rgb(21,101,192)" stroke="none" font-family="geogebra-sans-serif, sans-serif" font-size="16px" font-style="normal" font-weight="normal" text-decoration="normal" x="669" y="444" text-anchor="start" dominant-baseline="alphabetic" fill-opacity="1">B</text><path fill="rgb(97,97,97)" stroke="none" paint-order="stroke fill markers" d=" M 519.01136900127 273.16556281586344 C 519.01136900127 275.3747018151866 517.2205080005932 277.16556281586344 515.01136900127 277.16556281586344 C 512.8022300019469 277.16556281586344 511.01136900127005 275.3747018151866 511.01136900127005 273.16556281586344 C 511.01136900127005 270.9564238165403 512.8022300019469 269.16556281586344 515.01136900127 269.16556281586344 C 517.2205080005932 269.16556281586344 519.01136900127 270.9564238165403 519.01136900127 273.16556281586344 Z" fill-opacity="1"/><path fill="none" stroke="rgb(0,0,0)" paint-order="fill stroke markers" d=" M 519.01136900127 273.16556281586344 C 519.01136900127 275.3747018151866 517.2205080005932 277.16556281586344 515.01136900127 277.16556281586344 C 512.8022300019469 277.16556281586344 511.01136900127005 275.3747018151866 511.01136900127005 273.16556281586344 C 511.01136900127005 270.9564238165403 512.8022300019469 269.16556281586344 515.01136900127 269.16556281586344 C 517.2205080005932 269.16556281586344 519.01136900127 270.9564238165403 519.01136900127 273.16556281586344 Z" stroke-opacity="1" stroke-linecap="round" stroke-linejoin="round" stroke-miterlimit="10"/><text fill="rgb(97,97,97)" stroke="none" font-family="geogebra-sans-serif, sans-serif" font-size="16px" font-style="normal" font-weight="normal" text-decoration="normal" x="519" y="265" text-anchor="start" dominant-baseline="alphabetic" fill-opacity="1">C</text><text fill="none" stroke="rgb(255,255,255)" font-family="geogebra-sans-serif, sans-serif" font-size="16px" font-style="normal" font-weight="normal" text-decoration="normal" x="519" y="265" text-anchor="start" dominant-baseline="alphabetic" stroke-opacity="1" stroke-linejoin="bevel" stroke-miterlimit="10" stroke-width="3">C</text><text fill="rgb(97,97,97)" stroke="none" font-family="geogebra-sans-serif, sans-serif" font-size="16px" font-style="normal" font-weight="normal" text-decoration="normal" x="519" y="265" text-anchor="start" dominant-baseline="alphabetic" fill-opacity="1">C</text><path fill="rgb(97,97,97)" stroke="none" paint-order="stroke fill markers" d=" M 819.5990375188676 634.6831641410789 C 819.5990375188676 636.8923031404021 817.8081765181907 638.6831641410789 815.5990375188676 638.6831641410789 C 813.3898985195444 638.6831641410789 811.5990375188676 636.8923031404021 811.5990375188676 634.6831641410789 C 811.5990375188676 632.4740251417558 813.3898985195444 630.6831641410789 815.5990375188676 630.6831641410789 C 817.8081765181907 630.6831641410789 819.5990375188676 632.4740251417558 819.5990375188676 634.6831641410789 Z" fill-opacity="1"/><path fill="none" stroke="rgb(0,0,0)" paint-order="fill stroke markers" d=" M 819.5990375188676 634.6831641410789 C 819.5990375188676 636.8923031404021 817.8081765181907 638.6831641410789 815.5990375188676 638.6831641410789 C 813.3898985195444 638.6831641410789 811.5990375188676 636.8923031404021 811.5990375188676 634.6831641410789 C 811.5990375188676 632.4740251417558 813.3898985195444 630.6831641410789 815.5990375188676 630.6831641410789 C 817.8081765181907 630.6831641410789 819.5990375188676 632.4740251417558 819.5990375188676 634.6831641410789 Z" stroke-opacity="1" stroke-linecap="round" stroke-linejoin="round" stroke-miterlimit="10"/><text fill="rgb(97,97,97)" stroke="none" font-family="geogebra-sans-serif, sans-serif" font-size="16px" font-style="normal" font-weight="normal" text-decoration="normal" x="820" y="627" text-anchor="start" dominant-baseline="alphabetic" fill-opacity="1">D</text><text fill="none" stroke="rgb(255,255,255)" font-family="geogebra-sans-serif, sans-serif" font-size="16px" font-style="normal" font-weight="normal" text-decoration="normal" x="820" y="627" text-anchor="start" dominant-baseline="alphabetic" stroke-opacity="1" stroke-linejoin="bevel" stroke-miterlimit="10" stroke-width="3">D</text><text fill="rgb(97,97,97)" stroke="none" font-family="geogebra-sans-serif, sans-serif" font-size="16px" font-style="normal" font-weight="normal" text-decoration="normal" x="820" y="627" text-anchor="start" dominant-baseline="alphabetic" fill-opacity="1">D</text><path fill="rgb(97,97,97)" stroke="none" paint-order="stroke fill markers" d=" M 594.1582861306695 363.5449631471673 C 594.1582861306695 365.7541021464905 592.3674251299926 367.5449631471673 590.1582861306695 367.5449631471673 C 587.9491471313463 367.5449631471673 586.1582861306695 365.7541021464905 586.1582861306695 363.5449631471673 C 586.1582861306695 361.33582414784416 587.9491471313463 359.5449631471673 590.1582861306695 359.5449631471673 C 592.3674251299926 359.5449631471673 594.1582861306695 361.33582414784416 594.1582861306695 363.5449631471673 Z" fill-opacity="1"/><path fill="none" stroke="rgb(0,0,0)" paint-order="fill stroke markers" d=" M 594.1582861306695 363.5449631471673 C 594.1582861306695 365.7541021464905 592.3674251299926 367.5449631471673 590.1582861306695 367.5449631471673 C 587.9491471313463 367.5449631471673 586.1582861306695 365.7541021464905 586.1582861306695 363.5449631471673 C 586.1582861306695 361.33582414784416 587.9491471313463 359.5449631471673 590.1582861306695 359.5449631471673 C 592.3674251299926 359.5449631471673 594.1582861306695 361.33582414784416 594.1582861306695 363.5449631471673 Z" stroke-opacity="1" stroke-linecap="round" stroke-linejoin="round" stroke-miterlimit="10"/><text fill="rgb(97,97,97)" stroke="none" font-family="geogebra-sans-serif, sans-serif" font-size="16px" font-style="normal" font-weight="normal" text-decoration="normal" x="594" y="356" text-anchor="start" dominant-baseline="alphabetic" fill-opacity="1">E</text><text fill="none" stroke="rgb(255,255,255)" font-family="geogebra-sans-serif, sans-serif" font-size="16px" font-style="normal" font-weight="normal" text-decoration="normal" x="594" y="356" text-anchor="start" dominant-baseline="alphabetic" stroke-opacity="1" stroke-linejoin="bevel" stroke-miterlimit="10" stroke-width="3">E</text><text fill="rgb(97,97,97)" stroke="none" font-family="geogebra-sans-serif, sans-serif" font-size="16px" font-style="normal" font-weight="normal" text-decoration="normal" x="594" y="356" text-anchor="start" dominant-baseline="alphabetic" fill-opacity="1">E</text><path fill="rgb(97,97,97)" stroke="none" paint-order="stroke fill markers" d=" M 744.4521203894682 544.3037638097751 C 744.4521203894682 546.5129028090983 742.6612593887913 548.3037638097751 740.4521203894682 548.3037638097751 C 738.242981390145 548.3037638097751 736.4521203894682 546.5129028090983 736.4521203894682 544.3037638097751 C 736.4521203894682 542.0946248104519 738.242981390145 540.3037638097751 740.4521203894682 540.3037638097751 C 742.6612593887913 540.3037638097751 744.4521203894682 542.0946248104519 744.4521203894682 544.3037638097751 Z" fill-opacity="1"/><path fill="none" stroke="rgb(0,0,0)" paint-order="fill stroke markers" d=" M 744.4521203894682 544.3037638097751 C 744.4521203894682 546.5129028090983 742.6612593887913 548.3037638097751 740.4521203894682 548.3037638097751 C 738.242981390145 548.3037638097751 736.4521203894682 546.5129028090983 736.4521203894682 544.3037638097751 C 736.4521203894682 542.0946248104519 738.242981390145 540.3037638097751 740.4521203894682 540.3037638097751 C 742.6612593887913 540.3037638097751 744.4521203894682 542.0946248104519 744.4521203894682 544.3037638097751 Z" stroke-opacity="1" stroke-linecap="round" stroke-linejoin="round" stroke-miterlimit="10"/><text fill="rgb(97,97,97)" stroke="none" font-family="geogebra-sans-serif, sans-serif" font-size="16px" font-style="normal" font-weight="normal" text-decoration="normal" x="744" y="536" text-anchor="start" dominant-baseline="alphabetic" fill-opacity="1">F</text><text fill="none" stroke="rgb(255,255,255)" font-family="geogebra-sans-serif, sans-serif" font-size="16px" font-style="normal" font-weight="normal" text-decoration="normal" x="744" y="536" text-anchor="start" dominant-baseline="alphabetic" stroke-opacity="1" stroke-linejoin="bevel" stroke-miterlimit="10" stroke-width="3">F</text><text fill="rgb(97,97,97)" stroke="none" font-family="geogebra-sans-serif, sans-serif" font-size="16px" font-style="normal" font-weight="normal" text-decoration="normal" x="744" y="536" text-anchor="start" dominant-baseline="alphabetic" fill-opacity="1">F</text><path fill="rgb(97,97,97)" stroke="none" paint-order="stroke fill markers" d=" M 563.6933197268594 694.5975980685729 C 563.6933197268594 696.806737067896 561.9024587261825 698.5975980685729 559.6933197268594 698.5975980685729 C 557.4841807275362 698.5975980685729 555.6933197268594 696.806737067896 555.6933197268594 694.5975980685729 C 555.6933197268594 692.3884590692497 557.4841807275362 690.5975980685729 559.6933197268594 690.5975980685729 C 561.9024587261825 690.5975980685729 563.6933197268594 692.3884590692497 563.6933197268594 694.5975980685729 Z" fill-opacity="1"/><path fill="none" stroke="rgb(0,0,0)" paint-order="fill stroke markers" d=" M 563.6933197268594 694.5975980685729 C 563.6933197268594 696.806737067896 561.9024587261825 698.5975980685729 559.6933197268594 698.5975980685729 C 557.4841807275362 698.5975980685729 555.6933197268594 696.806737067896 555.6933197268594 694.5975980685729 C 555.6933197268594 692.3884590692497 557.4841807275362 690.5975980685729 559.6933197268594 690.5975980685729 C 561.9024587261825 690.5975980685729 563.6933197268594 692.3884590692497 563.6933197268594 694.5975980685729 Z" stroke-opacity="1" stroke-linecap="round" stroke-linejoin="round" stroke-miterlimit="10"/><text fill="rgb(97,97,97)" stroke="none" font-family="geogebra-sans-serif, sans-serif" font-size="16px" font-style="normal" font-weight="normal" text-decoration="normal" x="564" y="687" text-anchor="start" dominant-baseline="alphabetic" fill-opacity="1">G</text><text fill="none" stroke="rgb(255,255,255)" font-family="geogebra-sans-serif, sans-serif" font-size="16px" font-style="normal" font-weight="normal" text-decoration="normal" x="564" y="687" text-anchor="start" dominant-baseline="alphabetic" stroke-opacity="1" stroke-linejoin="bevel" stroke-miterlimit="10" stroke-width="3">G</text><text fill="rgb(97,97,97)" stroke="none" font-family="geogebra-sans-serif, sans-serif" font-size="16px" font-style="normal" font-weight="normal" text-decoration="normal" x="564" y="687" text-anchor="start" dominant-baseline="alphabetic" fill-opacity="1">G</text><path fill="rgb(97,97,97)" stroke="none" paint-order="stroke fill markers" d=" M 413.3994854680607 513.8387974059651 C 413.3994854680607 516.0479364052883 411.60862446738383 517.8387974059651 409.3994854680607 517.8387974059651 C 407.1903464687375 517.8387974059651 405.3994854680607 516.0479364052883 405.3994854680607 513.8387974059651 C 405.3994854680607 511.62965840664197 407.1903464687375 509.8387974059651 409.3994854680607 509.8387974059651 C 411.60862446738383 509.8387974059651 413.3994854680607 511.62965840664197 413.3994854680607 513.8387974059651 Z" fill-opacity="1"/><path fill="none" stroke="rgb(0,0,0)" paint-order="fill stroke markers" d=" M 413.3994854680607 513.8387974059651 C 413.3994854680607 516.0479364052883 411.60862446738383 517.8387974059651 409.3994854680607 517.8387974059651 C 407.1903464687375 517.8387974059651 405.3994854680607 516.0479364052883 405.3994854680607 513.8387974059651 C 405.3994854680607 511.62965840664197 407.1903464687375 509.8387974059651 409.3994854680607 509.8387974059651 C 411.60862446738383 509.8387974059651 413.3994854680607 511.62965840664197 413.3994854680607 513.8387974059651 Z" stroke-opacity="1" stroke-linecap="round" stroke-linejoin="round" stroke-miterlimit="10"/><text fill="rgb(97,97,97)" stroke="none" font-family="geogebra-sans-serif, sans-serif" font-size="16px" font-style="normal" font-weight="normal" text-decoration="normal" x="413" y="506" text-anchor="start" dominant-baseline="alphabetic" fill-opacity="1">H</text><text fill="none" stroke="rgb(255,255,255)" font-family="geogebra-sans-serif, sans-serif" font-size="16px" font-style="normal" font-weight="normal" text-decoration="normal" x="413" y="506" text-anchor="start" dominant-baseline="alphabetic" stroke-opacity="1" stroke-linejoin="bevel" stroke-miterlimit="10" stroke-width="3">H</text><text fill="rgb(97,97,97)" stroke="none" font-family="geogebra-sans-serif, sans-serif" font-size="16px" font-style="normal" font-weight="normal" text-decoration="normal" x="413" y="506" text-anchor="start" dominant-baseline="alphabetic" fill-opacity="1">H</text></g></g></svg>