<svg version="1.1" xmlns="http://www.w3.org/2000/svg" xmlns:xlink="http://www.w3.org/1999/xlink" width="730" height="779"><defs><clipPath id="XQVvaurwQOCx"><path fill="none" stroke="none" d=" M 0 0 L 730 0 L 730 779 L 0 779 L 0 0 Z"/></clipPath></defs><g transform="scale(1,1)" clip-path="url(#XQVvaurwQOCx)"><g transform="translate(-252,-62)"><rect fill="rgb(255,255,255)" stroke="none" x="0" y="0" width="1144" height="932" fill-opacity="1"/><path fill="none" stroke="rgb(97,97,97)" paint-order="fill stroke markers" d=" M 783.0851697777246 580.4187571537498 C 783.0851697777246 719.5076649684723 670.3313318759732 832.2615028702232 531.2424240612498 832.2615028702232 C 392.1535162465265 832.2615028702232 279.3996783447751 719.5076649684723 279.3996783447751 580.4187571537498 C 279.3996783447751 441.32984933902713 392.1535162465265 328.57601143727635 531.2424240612498 328.57601143727635 C 670.3313318759732 328.57601143727635 783.0851697777246 441.32984933902713 783.0851697777246 580.4187571537498 Z" stroke-opacity="0.8" stroke-linecap="round" stroke-linejoin="round" stroke-miterlimit="10" stroke-width="2.5"/><path fill="none" stroke="rgb(97,97,97)" paint-order="fill stroke markers" d=" M 969.3327457164751 410.8999999999999 C 969.3327457164751 549.9889078147226 856.5789078147236 662.7427457164733 717.4900000000002 662.7427457164733 C 578.4010921852769 662.7427457164733 465.6472542835255 549.9889078147226 465.6472542835255 410.8999999999999 C 465.6472542835255 271.8110921852773 578.4010921852769 159.0572542835265 717.4900000000002 159.0572542835265 C 856.5789078147236 159.0572542835265 969.3327457164751 271.8110921852773 969.3327457164751 410.8999999999999 Z" stroke-opacity="0.8" stroke-linecap="round" stroke-linejoin="round" stroke-miterlimit="10" stroke-width="2.5"/><path fill="none" stroke="rgb(97,97,97)" paint-order="fill stroke markers" d=" M 1257.6965866459254 656.9545107331033 C 1257.6965866459254 925.6536471502633 1039.8728985608998 1143.477335235288 771.1737621437384 1143.477335235288 C 502.47462572657696 1143.477335235288 284.6509376415512 925.6536471502633 284.6509376415512 656.9545107331033 C 284.6509376415512 388.2553743159434 502.47462572657696 170.43168623091879 771.1737621437384 170.43168623091879 C 1039.8728985608998 170.43168623091879 1257.6965866459254 388.2553743159434 1257.6965866459254 656.9545107331033 Z" stroke-opacity="0.8" stroke-linecap="round" stroke-linejoin="round" stroke-miterlimit="10" stroke-width="2.5"/><path fill="none" stroke="rgb(97,97,97)" paint-order="fill stroke markers" d=" M 884.5733671395992 317.7762120306253 C 884.5733671395992 456.86511984534764 771.819529237848 569.6189577470983 632.7306214231248 569.6189577470983 C 493.6417136084017 569.6189577470983 380.88787570665045 456.86511984534764 380.88787570665045 317.7762120306253 C 380.88787570665045 178.68730421590288 493.6417136084017 65.93346631415224 632.7306214231248 65.93346631415224 C 771.819529237848 65.93346631415224 884.5733671395992 178.68730421590288 884.5733671395992 317.7762120306253 Z" stroke-opacity="0.8" stroke-linecap="round" stroke-linejoin="round" stroke-miterlimit="10" stroke-width="2.5"/><path fill="none" stroke="rgb(97,97,97)" paint-order="fill stroke markers" d=" M 477.5586619175117 334.3642464206464 L 607.9498323462005 932" stroke-opacity="0.8" stroke-linecap="round" stroke-linejoin="round" stroke-miterlimit="10" stroke-width="2.5"/><path fill="none" stroke="rgb(97,97,97)" paint-order="fill stroke markers" d=" M 584.926186204988 826.4732678868531 L 848.5630869801787 0" stroke-opacity="0.8" stroke-linecap="round" stroke-linejoin="round" stroke-miterlimit="10" stroke-width="2.5"/><path fill="none" stroke="rgb(97,97,97)" paint-order="fill stroke markers" d=" M 547.9712428462493 224.6524240612506 L 1191.7846258901677 932" stroke-opacity="0.8" stroke-linecap="round" stroke-linejoin="round" stroke-miterlimit="10" stroke-width="2.5"/><path fill="none" stroke="rgb(97,97,97)" paint-order="fill stroke markers" d=" M 361.72366690749936 394.171181215 L 851.2445235541713 932" stroke-opacity="0.8" stroke-linecap="round" stroke-linejoin="round" stroke-miterlimit="10" stroke-width="2.5"/><path fill="none" stroke="rgb(97,97,97)" paint-order="fill stroke markers" d=" M 285.1879133281452 634.1025192974879 L 794.025753579354 170.9686619175128" stroke-opacity="0.8" stroke-linecap="round" stroke-linejoin="round" stroke-miterlimit="10" stroke-width="2.5"/><path fill="none" stroke="rgb(97,97,97)" paint-order="fill stroke markers" d=" M 802.2493785768756 504.02378796937455 L 0 1234.2148623941189" stroke-opacity="0.8" stroke-linecap="round" stroke-linejoin="round" stroke-miterlimit="10" stroke-width="2.5"/><path fill="rgb(21,101,192)" stroke="none" paint-order="stroke fill markers" d=" M 536.2424240612498 580.4187571537498 C 536.2424240612498 583.1801809029038 534.0038478104038 585.4187571537498 531.2424240612498 585.4187571537498 C 528.4810003120958 585.4187571537498 526.2424240612498 583.1801809029038 526.2424240612498 580.4187571537498 C 526.2424240612498 577.6573334045958 528.4810003120958 575.4187571537498 531.2424240612498 575.4187571537498 C 534.0038478104038 575.4187571537498 536.2424240612498 577.6573334045958 536.2424240612498 580.4187571537498 Z" fill-opacity="1"/><path fill="none" stroke="rgb(0,0,0)" paint-order="fill stroke markers" d=" M 536.2424240612498 580.4187571537498 C 536.2424240612498 583.1801809029038 534.0038478104038 585.4187571537498 531.2424240612498 585.4187571537498 C 528.4810003120958 585.4187571537498 526.2424240612498 583.1801809029038 526.2424240612498 580.4187571537498 C 526.2424240612498 577.6573334045958 528.4810003120958 575.4187571537498 531.2424240612498 575.4187571537498 C 534.0038478104038 575.4187571537498 536.2424240612498 577.6573334045958 536.2424240612498 580.4187571537498 Z" stroke-opacity="1" stroke-linecap="round" stroke-linejoin="round" stroke-miterlimit="10"/><text fill="rgb(21,101,192)" stroke="none" font-family="geogebra-sans-serif, sans-serif" font-size="16px" font-style="normal" font-weight="normal" text-decoration="normal" x="535" y="570" text-anchor="start" dominant-baseline="alphabetic" fill-opacity="1">A</text><text fill="none" stroke="rgb(255,255,255)" font-family="geogebra-sans-serif, sans-serif" font-size="16px" font-style="normal" font-weight="normal" text-decoration="normal" x="535" y="570" text-anchor="start" dominant-baseline="alphabetic" stroke-opacity="1" stroke-linejoin="bevel" stroke-miterlimit="10" stroke-width="3">A</text><text fill="rgb(21,101,192)" stroke="none" font-family="geogebra-sans-serif, sans-serif" font-size="16px" font-style="normal" font-weight="normal" text-decoration="normal" x="535" y="570" text-anchor="start" dominant-baseline="alphabetic" fill-opacity="1">A</text><path fill="rgb(21,101,192)" stroke="none" paint-order="stroke fill markers" d=" M 722.4900000000002 410.8999999999999 C 722.4900000000002 413.66142374915387 720.2514237491542 415.8999999999999 717.4900000000002 415.8999999999999 C 714.7285762508462 415.8999999999999 712.4900000000002 413.66142374915387 712.4900000000002 410.8999999999999 C 712.4900000000002 408.138576250846 714.7285762508462 405.8999999999999 717.4900000000002 405.8999999999999 C 720.2514237491542 405.8999999999999 722.4900000000002 408.138576250846 722.4900000000002 410.8999999999999 Z" fill-opacity="1"/><path fill="none" stroke="rgb(0,0,0)" paint-order="fill stroke markers" d=" M 722.4900000000002 410.8999999999999 C 722.4900000000002 413.66142374915387 720.2514237491542 415.8999999999999 717.4900000000002 415.8999999999999 C 714.7285762508462 415.8999999999999 712.4900000000002 413.66142374915387 712.4900000000002 410.8999999999999 C 712.4900000000002 408.138576250846 714.7285762508462 405.8999999999999 717.4900000000002 405.8999999999999 C 720.2514237491542 405.8999999999999 722.4900000000002 408.138576250846 722.4900000000002 410.8999999999999 Z" stroke-opacity="1" stroke-linecap="round" stroke-linejoin="round" stroke-miterlimit="10"/><text fill="rgb(21,101,192)" stroke="none" font-family="geogebra-sans-serif, sans-serif" font-size="16px" font-style="normal" font-weight="normal" text-decoration="normal" x="721" y="401" text-anchor="start" dominant-baseline="alphabetic" fill-opacity="1">B</text><text fill="none" stroke="rgb(255,255,255)" font-family="geogebra-sans-serif, sans-serif" font-size="16px" font-style="normal" font-weight="normal" text-decoration="normal" x="721" y="401" text-anchor="start" dominant-baseline="alphabetic" stroke-opacity="1" stroke-linejoin="bevel" stroke-miterlimit="10" stroke-width="3">B</text><text fill="rgb(21,101,192)" stroke="none" font-family="geogebra-sans-serif, sans-serif" font-size="16px" font-style="normal" font-weight="normal" text-decoration="normal" x="721" y="401" text-anchor="start" dominant-baseline="alphabetic" fill-opacity="1">B</text><path fill="rgb(97,97,97)" stroke="none" paint-order="stroke fill markers" d=" M 481.5586619175117 334.3642464206464 C 481.5586619175117 336.57338541996955 479.76780091683486 338.3642464206464 477.5586619175117 338.3642464206464 C 475.34952291818854 338.3642464206464 473.5586619175117 336.57338541996955 473.5586619175117 334.3642464206464 C 473.5586619175117 332.15510742132324 475.34952291818854 330.3642464206464 477.5586619175117 330.3642464206464 C 479.76780091683486 330.3642464206464 481.5586619175117 332.15510742132324 481.5586619175117 334.3642464206464 Z" fill-opacity="1"/><path fill="none" stroke="rgb(0,0,0)" paint-order="fill stroke markers" d=" M 481.5586619175117 334.3642464206464 C 481.5586619175117 336.57338541996955 479.76780091683486 338.3642464206464 477.5586619175117 338.3642464206464 C 475.34952291818854 338.3642464206464 473.5586619175117 336.57338541996955 473.5586619175117 334.3642464206464 C 473.5586619175117 332.15510742132324 475.34952291818854 330.3642464206464 477.5586619175117 330.3642464206464 C 479.76780091683486 330.3642464206464 481.5586619175117 332.15510742132324 481.5586619175117 334.3642464206464 Z" stroke-opacity="1" stroke-linecap="round" stroke-linejoin="round" stroke-miterlimit="10"/><text fill="rgb(97,97,97)" stroke="none" font-family="geogebra-sans-serif, sans-serif" font-size="16px" font-style="normal" font-weight="normal" text-decoration="normal" x="482" y="326" text-anchor="start" dominant-baseline="alphabetic" fill-opacity="1">C</text><text fill="none" stroke="rgb(255,255,255)" font-family="geogebra-sans-serif, sans-serif" font-size="16px" font-style="normal" font-weight="normal" text-decoration="normal" x="482" y="326" text-anchor="start" dominant-baseline="alphabetic" stroke-opacity="1" stroke-linejoin="bevel" stroke-miterlimit="10" stroke-width="3">C</text><text fill="rgb(97,97,97)" stroke="none" font-family="geogebra-sans-serif, sans-serif" font-size="16px" font-style="normal" font-weight="normal" text-decoration="normal" x="482" y="326" text-anchor="start" dominant-baseline="alphabetic" fill-opacity="1">C</text><path fill="rgb(97,97,97)" stroke="none" paint-order="stroke fill markers" d=" M 588.926186204988 826.4732678868531 C 588.926186204988 828.6824068861763 587.1353252043111 830.4732678868531 584.926186204988 830.4732678868531 C 582.7170472056648 830.4732678868531 580.926186204988 828.6824068861763 580.926186204988 826.4732678868531 C 580.926186204988 824.26412888753 582.7170472056648 822.4732678868531 584.926186204988 822.4732678868531 C 587.1353252043111 822.4732678868531 588.926186204988 824.26412888753 588.926186204988 826.4732678868531 Z" fill-opacity="1"/><path fill="none" stroke="rgb(0,0,0)" paint-order="fill stroke markers" d=" M 588.926186204988 826.4732678868531 C 588.926186204988 828.6824068861763 587.1353252043111 830.4732678868531 584.926186204988 830.4732678868531 C 582.7170472056648 830.4732678868531 580.926186204988 828.6824068861763 580.926186204988 826.4732678868531 C 580.926186204988 824.26412888753 582.7170472056648 822.4732678868531 584.926186204988 822.4732678868531 C 587.1353252043111 822.4732678868531 588.926186204988 824.26412888753 588.926186204988 826.4732678868531 Z" stroke-opacity="1" stroke-linecap="round" stroke-linejoin="round" stroke-miterlimit="10"/><text fill="rgb(97,97,97)" stroke="none" font-family="geogebra-sans-serif, sans-serif" font-size="16px" font-style="normal" font-weight="normal" text-decoration="normal" x="589" y="818" text-anchor="start" dominant-baseline="alphabetic" fill-opacity="1">D</text><text fill="none" stroke="rgb(255,255,255)" font-family="geogebra-sans-serif, sans-serif" font-size="16px" font-style="normal" font-weight="normal" text-decoration="normal" x="589" y="818" text-anchor="start" dominant-baseline="alphabetic" stroke-opacity="1" stroke-linejoin="bevel" stroke-miterlimit="10" stroke-width="3">D</text><text fill="rgb(97,97,97)" stroke="none" font-family="geogebra-sans-serif, sans-serif" font-size="16px" font-style="normal" font-weight="normal" text-decoration="normal" x="589" y="818" text-anchor="start" dominant-baseline="alphabetic" fill-opacity="1">D</text><path fill="rgb(97,97,97)" stroke="none" paint-order="stroke fill markers" d=" M 775.1737621437384 656.9545107331033 C 775.1737621437384 659.1636497324265 773.3829011430615 660.9545107331033 771.1737621437384 660.9545107331033 C 768.9646231444152 660.9545107331033 767.1737621437384 659.1636497324265 767.1737621437384 656.9545107331033 C 767.1737621437384 654.7453717337802 768.9646231444152 652.9545107331033 771.1737621437384 652.9545107331033 C 773.3829011430615 652.9545107331033 775.1737621437384 654.7453717337802 775.1737621437384 656.9545107331033 Z" fill-opacity="1"/><path fill="none" stroke="rgb(0,0,0)" paint-order="fill stroke markers" d=" M 775.1737621437384 656.9545107331033 C 775.1737621437384 659.1636497324265 773.3829011430615 660.9545107331033 771.1737621437384 660.9545107331033 C 768.9646231444152 660.9545107331033 767.1737621437384 659.1636497324265 767.1737621437384 656.9545107331033 C 767.1737621437384 654.7453717337802 768.9646231444152 652.9545107331033 771.1737621437384 652.9545107331033 C 773.3829011430615 652.9545107331033 775.1737621437384 654.7453717337802 775.1737621437384 656.9545107331033 Z" stroke-opacity="1" stroke-linecap="round" stroke-linejoin="round" stroke-miterlimit="10"/><text fill="rgb(97,97,97)" stroke="none" font-family="geogebra-sans-serif, sans-serif" font-size="16px" font-style="normal" font-weight="normal" text-decoration="normal" x="775" y="649" text-anchor="start" dominant-baseline="alphabetic" fill-opacity="1">E</text><text fill="none" stroke="rgb(255,255,255)" font-family="geogebra-sans-serif, sans-serif" font-size="16px" font-style="normal" font-weight="normal" text-decoration="normal" x="775" y="649" text-anchor="start" dominant-baseline="alphabetic" stroke-opacity="1" stroke-linejoin="bevel" stroke-miterlimit="10" stroke-width="3">E</text><text fill="rgb(97,97,97)" stroke="none" font-family="geogebra-sans-serif, sans-serif" font-size="16px" font-style="normal" font-weight="normal" text-decoration="normal" x="775" y="649" text-anchor="start" dominant-baseline="alphabetic" fill-opacity="1">E</text><path fill="rgb(97,97,97)" stroke="none" paint-order="stroke fill markers" d=" M 798.025753579354 170.9686619175128 C 798.025753579354 173.17780091683596 796.2348925786772 174.9686619175128 794.025753579354 174.9686619175128 C 791.8166145800309 174.9686619175128 790.025753579354 173.17780091683596 790.025753579354 170.9686619175128 C 790.025753579354 168.75952291818962 791.8166145800309 166.9686619175128 794.025753579354 166.9686619175128 C 796.2348925786772 166.9686619175128 798.025753579354 168.75952291818962 798.025753579354 170.9686619175128 Z" fill-opacity="1"/><path fill="none" stroke="rgb(0,0,0)" paint-order="fill stroke markers" d=" M 798.025753579354 170.9686619175128 C 798.025753579354 173.17780091683596 796.2348925786772 174.9686619175128 794.025753579354 174.9686619175128 C 791.8166145800309 174.9686619175128 790.025753579354 173.17780091683596 790.025753579354 170.9686619175128 C 790.025753579354 168.75952291818962 791.8166145800309 166.9686619175128 794.025753579354 166.9686619175128 C 796.2348925786772 166.9686619175128 798.025753579354 168.75952291818962 798.025753579354 170.9686619175128 Z" stroke-opacity="1" stroke-linecap="round" stroke-linejoin="round" stroke-miterlimit="10"/><text fill="rgb(97,97,97)" stroke="none" font-family="geogebra-sans-serif, sans-serif" font-size="16px" font-style="normal" font-weight="normal" text-decoration="normal" x="798" y="163" text-anchor="start" dominant-baseline="alphabetic" fill-opacity="1">F</text><text fill="none" stroke="rgb(255,255,255)" font-family="geogebra-sans-serif, sans-serif" font-size="16px" font-style="normal" font-weight="normal" text-decoration="normal" x="798" y="163" text-anchor="start" dominant-baseline="alphabetic" stroke-opacity="1" stroke-linejoin="bevel" stroke-miterlimit="10" stroke-width="3">F</text><text fill="rgb(97,97,97)" stroke="none" font-family="geogebra-sans-serif, sans-serif" font-size="16px" font-style="normal" font-weight="normal" text-decoration="normal" x="798" y="163" text-anchor="start" dominant-baseline="alphabetic" fill-opacity="1">F</text><path fill="rgb(97,97,97)" stroke="none" paint-order="stroke fill markers" d=" M 551.9712428462493 224.6524240612506 C 551.9712428462493 226.86156306057376 550.1803818455725 228.6524240612506 547.9712428462493 228.6524240612506 C 545.7621038469262 228.6524240612506 543.9712428462493 226.86156306057376 543.9712428462493 224.6524240612506 C 543.9712428462493 222.4432850619274 545.7621038469262 220.6524240612506 547.9712428462493 220.6524240612506 C 550.1803818455725 220.6524240612506 551.9712428462493 222.4432850619274 551.9712428462493 224.6524240612506 Z" fill-opacity="1"/><path fill="none" stroke="rgb(0,0,0)" paint-order="fill stroke markers" d=" M 551.9712428462493 224.6524240612506 C 551.9712428462493 226.86156306057376 550.1803818455725 228.6524240612506 547.9712428462493 228.6524240612506 C 545.7621038469262 228.6524240612506 543.9712428462493 226.86156306057376 543.9712428462493 224.6524240612506 C 543.9712428462493 222.4432850619274 545.7621038469262 220.6524240612506 547.9712428462493 220.6524240612506 C 550.1803818455725 220.6524240612506 551.9712428462493 222.4432850619274 551.9712428462493 224.6524240612506 Z" stroke-opacity="1" stroke-linecap="round" stroke-linejoin="round" stroke-miterlimit="10"/><text fill="rgb(97,97,97)" stroke="none" font-family="geogebra-sans-serif, sans-serif" font-size="16px" font-style="normal" font-weight="normal" text-decoration="normal" x="552" y="217" text-anchor="start" dominant-baseline="alphabetic" fill-opacity="1">G</text><text fill="none" stroke="rgb(255,255,255)" font-family="geogebra-sans-serif, sans-serif" font-size="16px" font-style="normal" font-weight="normal" text-decoration="normal" x="552" y="217" text-anchor="start" dominant-baseline="alphabetic" stroke-opacity="1" stroke-linejoin="bevel" stroke-miterlimit="10" stroke-width="3">G</text><text fill="rgb(97,97,97)" stroke="none" font-family="geogebra-sans-serif, sans-serif" font-size="16px" font-style="normal" font-weight="normal" text-decoration="normal" x="552" y="217" text-anchor="start" dominant-baseline="alphabetic" fill-opacity="1">G</text><path fill="rgb(97,97,97)" stroke="none" paint-order="stroke fill markers" d=" M 365.72366690749936 394.171181215 C 365.72366690749936 396.38032021432315 363.9328059068225 398.171181215 361.72366690749936 398.171181215 C 359.5145279081762 398.171181215 357.72366690749936 396.38032021432315 357.72366690749936 394.171181215 C 357.72366690749936 391.96204221567683 359.5145279081762 390.171181215 361.72366690749936 390.171181215 C 363.9328059068225 390.171181215 365.72366690749936 391.96204221567683 365.72366690749936 394.171181215 Z" fill-opacity="1"/><path fill="none" stroke="rgb(0,0,0)" paint-order="fill stroke markers" d=" M 365.72366690749936 394.171181215 C 365.72366690749936 396.38032021432315 363.9328059068225 398.171181215 361.72366690749936 398.171181215 C 359.5145279081762 398.171181215 357.72366690749936 396.38032021432315 357.72366690749936 394.171181215 C 357.72366690749936 391.96204221567683 359.5145279081762 390.171181215 361.72366690749936 390.171181215 C 363.9328059068225 390.171181215 365.72366690749936 391.96204221567683 365.72366690749936 394.171181215 Z" stroke-opacity="1" stroke-linecap="round" stroke-linejoin="round" stroke-miterlimit="10"/><text fill="rgb(97,97,97)" stroke="none" font-family="geogebra-sans-serif, sans-serif" font-size="16px" font-style="normal" font-weight="normal" text-decoration="normal" x="366" y="386" text-anchor="start" dominant-baseline="alphabetic" fill-opacity="1">H</text><text fill="none" stroke="rgb(255,255,255)" font-family="geogebra-sans-serif, sans-serif" font-size="16px" font-style="normal" font-weight="normal" text-decoration="normal" x="366" y="386" text-anchor="start" dominant-baseline="alphabetic" stroke-opacity="1" stroke-linejoin="bevel" stroke-miterlimit="10" stroke-width="3">H</text><text fill="rgb(97,97,97)" stroke="none" font-family="geogebra-sans-serif, sans-serif" font-size="16px" font-style="normal" font-weight="normal" text-decoration="normal" x="366" y="386" text-anchor="start" dominant-baseline="alphabetic" fill-opacity="1">H</text><path fill="rgb(97,97,97)" stroke="none" paint-order="stroke fill markers" d=" M 289.1879133281452 634.1025192974879 C 289.1879133281452 636.3116582968111 287.3970523274684 638.1025192974879 285.1879133281452 638.1025192974879 C 282.97877432882206 638.1025192974879 281.1879133281452 636.3116582968111 281.1879133281452 634.1025192974879 C 281.1879133281452 631.8933802981647 282.97877432882206 630.1025192974879 285.1879133281452 630.1025192974879 C 287.3970523274684 630.1025192974879 289.1879133281452 631.8933802981647 289.1879133281452 634.1025192974879 Z" fill-opacity="1"/><path fill="none" stroke="rgb(0,0,0)" paint-order="fill stroke markers" d=" M 289.1879133281452 634.1025192974879 C 289.1879133281452 636.3116582968111 287.3970523274684 638.1025192974879 285.1879133281452 638.1025192974879 C 282.97877432882206 638.1025192974879 281.1879133281452 636.3116582968111 281.1879133281452 634.1025192974879 C 281.1879133281452 631.8933802981647 282.97877432882206 630.1025192974879 285.1879133281452 630.1025192974879 C 287.3970523274684 630.1025192974879 289.1879133281452 631.8933802981647 289.1879133281452 634.1025192974879 Z" stroke-opacity="1" stroke-linecap="round" stroke-linejoin="round" stroke-miterlimit="10"/><text fill="rgb(97,97,97)" stroke="none" font-family="geogebra-sans-serif, sans-serif" font-size="16px" font-style="normal" font-weight="normal" text-decoration="normal" x="289" y="626" text-anchor="start" dominant-baseline="alphabetic" fill-opacity="1">I</text><text fill="none" stroke="rgb(255,255,255)" font-family="geogebra-sans-serif, sans-serif" font-size="16px" font-style="normal" font-weight="normal" text-decoration="normal" x="289" y="626" text-anchor="start" dominant-baseline="alphabetic" stroke-opacity="1" stroke-linejoin="bevel" stroke-miterlimit="10" stroke-width="3">I</text><text fill="rgb(97,97,97)" stroke="none" font-family="geogebra-sans-serif, sans-serif" font-size="16px" font-style="normal" font-weight="normal" text-decoration="normal" x="289" y="626" text-anchor="start" dominant-baseline="alphabetic" fill-opacity="1">I</text><path fill="rgb(97,97,97)" stroke="none" paint-order="stroke fill markers" d=" M 636.7306214231248 317.7762120306253 C 636.7306214231248 319.98535102994845 634.939760422448 321.7762120306253 632.7306214231248 321.7762120306253 C 630.5214824238017 321.7762120306253 628.7306214231248 319.98535102994845 628.7306214231248 317.7762120306253 C 628.7306214231248 315.56707303130213 630.5214824238017 313.7762120306253 632.7306214231248 313.7762120306253 C 634.939760422448 313.7762120306253 636.7306214231248 315.56707303130213 636.7306214231248 317.7762120306253 Z" fill-opacity="1"/><path fill="none" stroke="rgb(0,0,0)" paint-order="fill stroke markers" d=" M 636.7306214231248 317.7762120306253 C 636.7306214231248 319.98535102994845 634.939760422448 321.7762120306253 632.7306214231248 321.7762120306253 C 630.5214824238017 321.7762120306253 628.7306214231248 319.98535102994845 628.7306214231248 317.7762120306253 C 628.7306214231248 315.56707303130213 630.5214824238017 313.7762120306253 632.7306214231248 313.7762120306253 C 634.939760422448 313.7762120306253 636.7306214231248 315.56707303130213 636.7306214231248 317.7762120306253 Z" stroke-opacity="1" stroke-linecap="round" stroke-linejoin="round" stroke-miterlimit="10"/><text fill="rgb(97,97,97)" stroke="none" font-family="geogebra-sans-serif, sans-serif" font-size="16px" font-style="normal" font-weight="normal" text-decoration="normal" x="637" y="310" text-anchor="start" dominant-baseline="alphabetic" fill-opacity="1">J</text><text fill="none" stroke="rgb(255,255,255)" font-family="geogebra-sans-serif, sans-serif" font-size="16px" font-style="normal" font-weight="normal" text-decoration="normal" x="637" y="310" text-anchor="start" dominant-baseline="alphabetic" stroke-opacity="1" stroke-linejoin="bevel" stroke-miterlimit="10" stroke-width="3">J</text><text fill="rgb(97,97,97)" stroke="none" font-family="geogebra-sans-serif, sans-serif" font-size="16px" font-style="normal" font-weight="normal" text-decoration="normal" x="637" y="310" text-anchor="start" dominant-baseline="alphabetic" fill-opacity="1">J</text><path fill="rgb(97,97,97)" stroke="none" paint-order="stroke fill markers" d=" M 450.48304548437477 487.2949691843751 C 450.48304548437477 489.50410818369824 448.69218448369793 491.2949691843751 446.48304548437477 491.2949691843751 C 444.2739064850516 491.2949691843751 442.48304548437477 489.50410818369824 442.48304548437477 487.2949691843751 C 442.48304548437477 485.0858301850519 444.2739064850516 483.2949691843751 446.48304548437477 483.2949691843751 C 448.69218448369793 483.2949691843751 450.48304548437477 485.0858301850519 450.48304548437477 487.2949691843751 Z" fill-opacity="1"/><path fill="none" stroke="rgb(0,0,0)" paint-order="fill stroke markers" d=" M 450.48304548437477 487.2949691843751 C 450.48304548437477 489.50410818369824 448.69218448369793 491.2949691843751 446.48304548437477 491.2949691843751 C 444.2739064850516 491.2949691843751 442.48304548437477 489.50410818369824 442.48304548437477 487.2949691843751 C 442.48304548437477 485.0858301850519 444.2739064850516 483.2949691843751 446.48304548437477 483.2949691843751 C 448.69218448369793 483.2949691843751 450.48304548437477 485.0858301850519 450.48304548437477 487.2949691843751 Z" stroke-opacity="1" stroke-linecap="round" stroke-linejoin="round" stroke-miterlimit="10"/><text fill="rgb(97,97,97)" stroke="none" font-family="geogebra-sans-serif, sans-serif" font-size="16px" font-style="normal" font-weight="normal" text-decoration="normal" x="450" y="479" text-anchor="start" dominant-baseline="alphabetic" fill-opacity="1">K</text><text fill="none" stroke="rgb(255,255,255)" font-family="geogebra-sans-serif, sans-serif" font-size="16px" font-style="normal" font-weight="normal" text-decoration="normal" x="450" y="479" text-anchor="start" dominant-baseline="alphabetic" stroke-opacity="1" stroke-linejoin="bevel" stroke-miterlimit="10" stroke-width="3">K</text><text fill="rgb(97,97,97)" stroke="none" font-family="geogebra-sans-serif, sans-serif" font-size="16px" font-style="normal" font-weight="normal" text-decoration="normal" x="450" y="479" text-anchor="start" dominant-baseline="alphabetic" fill-opacity="1">K</text><path fill="rgb(97,97,97)" stroke="none" paint-order="stroke fill markers" d=" M 806.2493785768756 504.02378796937455 C 806.2493785768756 506.2329269686977 804.4585175761988 508.02378796937455 802.2493785768756 508.02378796937455 C 800.0402395775525 508.02378796937455 798.2493785768756 506.2329269686977 798.2493785768756 504.02378796937455 C 798.2493785768756 501.8146489700514 800.0402395775525 500.02378796937455 802.2493785768756 500.02378796937455 C 804.4585175761988 500.02378796937455 806.2493785768756 501.8146489700514 806.2493785768756 504.02378796937455 Z" fill-opacity="1"/><path fill="none" stroke="rgb(0,0,0)" paint-order="fill stroke markers" d=" M 806.2493785768756 504.02378796937455 C 806.2493785768756 506.2329269686977 804.4585175761988 508.02378796937455 802.2493785768756 508.02378796937455 C 800.0402395775525 508.02378796937455 798.2493785768756 506.2329269686977 798.2493785768756 504.02378796937455 C 798.2493785768756 501.8146489700514 800.0402395775525 500.02378796937455 802.2493785768756 500.02378796937455 C 804.4585175761988 500.02378796937455 806.2493785768756 501.8146489700514 806.2493785768756 504.02378796937455 Z" stroke-opacity="1" stroke-linecap="round" stroke-linejoin="round" stroke-miterlimit="10"/><text fill="rgb(97,97,97)" stroke="none" font-family="geogebra-sans-serif, sans-serif" font-size="16px" font-style="normal" font-weight="normal" text-decoration="normal" x="806" y="496" text-anchor="start" dominant-baseline="alphabetic" fill-opacity="1">L</text><text fill="none" stroke="rgb(255,255,255)" font-family="geogebra-sans-serif, sans-serif" font-size="16px" font-style="normal" font-weight="normal" text-decoration="normal" x="806" y="496" text-anchor="start" dominant-baseline="alphabetic" stroke-opacity="1" stroke-linejoin="bevel" stroke-miterlimit="10" stroke-width="3">L</text><text fill="rgb(97,97,97)" stroke="none" font-family="geogebra-sans-serif, sans-serif" font-size="16px" font-style="normal" font-weight="normal" text-decoration="normal" x="806" y="496" text-anchor="start" dominant-baseline="alphabetic" fill-opacity="1">L</text><path fill="rgb(97,97,97)" stroke="none" paint-order="stroke fill markers" d=" M 644.9542464206465 650.8313380824872 C 644.9542464206465 653.0404770818103 643.1633854199697 654.8313380824872 640.9542464206465 654.8313380824872 C 638.7451074213234 654.8313380824872 636.9542464206465 653.0404770818103 636.9542464206465 650.8313380824872 C 636.9542464206465 648.622199083164 638.7451074213234 646.8313380824872 640.9542464206465 646.8313380824872 C 643.1633854199697 646.8313380824872 644.9542464206465 648.622199083164 644.9542464206465 650.8313380824872 Z" fill-opacity="1"/><path fill="none" stroke="rgb(0,0,0)" paint-order="fill stroke markers" d=" M 644.9542464206465 650.8313380824872 C 644.9542464206465 653.0404770818103 643.1633854199697 654.8313380824872 640.9542464206465 654.8313380824872 C 638.7451074213234 654.8313380824872 636.9542464206465 653.0404770818103 636.9542464206465 650.8313380824872 C 636.9542464206465 648.622199083164 638.7451074213234 646.8313380824872 640.9542464206465 646.8313380824872 C 643.1633854199697 646.8313380824872 644.9542464206465 648.622199083164 644.9542464206465 650.8313380824872 Z" stroke-opacity="1" stroke-linecap="round" stroke-linejoin="round" stroke-miterlimit="10"/><text fill="rgb(97,97,97)" stroke="none" font-family="geogebra-sans-serif, sans-serif" font-size="16px" font-style="normal" font-weight="normal" text-decoration="normal" x="645" y="643" text-anchor="start" dominant-baseline="alphabetic" fill-opacity="1">M</text><text fill="none" stroke="rgb(255,255,255)" font-family="geogebra-sans-serif, sans-serif" font-size="16px" font-style="normal" font-weight="normal" text-decoration="normal" x="645" y="643" text-anchor="start" dominant-baseline="alphabetic" stroke-opacity="1" stroke-linejoin="bevel" stroke-miterlimit="10" stroke-width="3">M</text><text fill="rgb(97,97,97)" stroke="none" font-family="geogebra-sans-serif, sans-serif" font-size="16px" font-style="normal" font-weight="normal" text-decoration="normal" x="645" y="643" text-anchor="start" dominant-baseline="alphabetic" fill-opacity="1">M</text><path fill="rgb(97,97,97)" stroke="none" paint-order="stroke fill markers" d=" M 620.0018026381251 673.5425451231248 C 620.0018026381251 675.751684122448 618.2109416374483 677.5425451231248 616.0018026381251 677.5425451231248 C 613.792663638802 677.5425451231248 612.0018026381251 675.751684122448 612.0018026381251 673.5425451231248 C 612.0018026381251 671.3334061238016 613.792663638802 669.5425451231248 616.0018026381251 669.5425451231248 C 618.2109416374483 669.5425451231248 620.0018026381251 671.3334061238016 620.0018026381251 673.5425451231248 Z" fill-opacity="1"/><path fill="none" stroke="rgb(0,0,0)" paint-order="fill stroke markers" d=" M 620.0018026381251 673.5425451231248 C 620.0018026381251 675.751684122448 618.2109416374483 677.5425451231248 616.0018026381251 677.5425451231248 C 613.792663638802 677.5425451231248 612.0018026381251 675.751684122448 612.0018026381251 673.5425451231248 C 612.0018026381251 671.3334061238016 613.792663638802 669.5425451231248 616.0018026381251 669.5425451231248 C 618.2109416374483 669.5425451231248 620.0018026381251 671.3334061238016 620.0018026381251 673.5425451231248 Z" stroke-opacity="1" stroke-linecap="round" stroke-linejoin="round" stroke-miterlimit="10"/><text fill="rgb(97,97,97)" stroke="none" font-family="geogebra-sans-serif, sans-serif" font-size="16px" font-style="normal" font-weight="normal" text-decoration="normal" x="620" y="666" text-anchor="start" dominant-baseline="alphabetic" fill-opacity="1">N</text><text fill="none" stroke="rgb(255,255,255)" font-family="geogebra-sans-serif, sans-serif" font-size="16px" font-style="normal" font-weight="normal" text-decoration="normal" x="620" y="666" text-anchor="start" dominant-baseline="alphabetic" stroke-opacity="1" stroke-linejoin="bevel" stroke-miterlimit="10" stroke-width="3">N</text><text fill="rgb(97,97,97)" stroke="none" font-family="geogebra-sans-serif, sans-serif" font-size="16px" font-style="normal" font-weight="normal" text-decoration="normal" x="620" y="666" text-anchor="start" dominant-baseline="alphabetic" fill-opacity="1">N</text></g></g></svg>